M48
; DRILL file KiCad 10.0.6 date 2026-09-07T01:10:43
; FORMAT={-:-/ absolute / metric / decimal}
; #@! TF.CreationDate,2026-09-07T01:10:43-05:00
; #@! TF.GenerationSoftware,Kicad,Pcbnew,10.0.6
; #@! TF.FileFunction,NonPlated,1,2,NPTH
FMAT,2
METRIC
; #@! TA.AperFunction,NonPlated,NPTH,ComponentDrill
T1C1.700
; #@! TA.AperFunction,NonPlated,NPTH,ComponentDrill
T2C4.000
%
G90
G05
T1
X119.42Y-84.5
X119.42Y-104.5
X119.42Y-124.5
X129.58Y-84.5
X129.58Y-104.5
X129.58Y-124.5
X139.42Y-84.5
X139.42Y-104.54
X139.42Y-124.5
X149.58Y-84.5
X149.58Y-104.54
X149.58Y-124.5
X159.42Y-84.5
X159.42Y-104.5
X159.42Y-124.5
X169.58Y-84.5
X169.58Y-104.5
X169.58Y-124.5
T2
X124.5Y-84.5
X124.5Y-104.5
X124.5Y-124.5
X144.5Y-84.5
X144.5Y-104.54
X144.5Y-124.5
X164.5Y-84.5
X164.5Y-104.5
X164.5Y-124.5
M30
