%TF.GenerationSoftware,KiCad,Pcbnew,10.0.6*%
%TF.CreationDate,2026-09-07T01:11:53-05:00*%
%TF.ProjectId,macropad,6d616372-6f70-4616-942e-6b696361645f,rev?*%
%TF.SameCoordinates,Original*%
%TF.FileFunction,Legend,Bot*%
%TF.FilePolarity,Positive*%
%FSLAX46Y46*%
G04 Gerber Fmt 4.6, Leading zero omitted, Abs format (unit mm)*
G04 Created by KiCad (PCBNEW 10.0.6) date 2026-09-07 01:11:53*
%MOMM*%
%LPD*%
G01*
G04 APERTURE LIST*
%ADD10C,0.101600*%
%ADD11C,0.150000*%
%ADD12C,0.127000*%
%ADD13C,0.120000*%
%ADD14C,0.254000*%
%ADD15C,0.025400*%
G04 APERTURE END LIST*
D10*
X146177333Y-50556985D02*
X146177333Y-51276652D01*
X146177333Y-51276652D02*
X146135000Y-51361318D01*
X146135000Y-51361318D02*
X146092666Y-51403652D01*
X146092666Y-51403652D02*
X146008000Y-51445985D01*
X146008000Y-51445985D02*
X145838666Y-51445985D01*
X145838666Y-51445985D02*
X145754000Y-51403652D01*
X145754000Y-51403652D02*
X145711666Y-51361318D01*
X145711666Y-51361318D02*
X145669333Y-51276652D01*
X145669333Y-51276652D02*
X145669333Y-50556985D01*
X144780333Y-51445985D02*
X145288333Y-51445985D01*
X145034333Y-51445985D02*
X145034333Y-50556985D01*
X145034333Y-50556985D02*
X145119000Y-50683985D01*
X145119000Y-50683985D02*
X145203667Y-50768652D01*
X145203667Y-50768652D02*
X145288333Y-50810985D01*
D11*
X150261904Y-47407200D02*
X150119047Y-47454819D01*
X150119047Y-47454819D02*
X149880952Y-47454819D01*
X149880952Y-47454819D02*
X149785714Y-47407200D01*
X149785714Y-47407200D02*
X149738095Y-47359580D01*
X149738095Y-47359580D02*
X149690476Y-47264342D01*
X149690476Y-47264342D02*
X149690476Y-47169104D01*
X149690476Y-47169104D02*
X149738095Y-47073866D01*
X149738095Y-47073866D02*
X149785714Y-47026247D01*
X149785714Y-47026247D02*
X149880952Y-46978628D01*
X149880952Y-46978628D02*
X150071428Y-46931009D01*
X150071428Y-46931009D02*
X150166666Y-46883390D01*
X150166666Y-46883390D02*
X150214285Y-46835771D01*
X150214285Y-46835771D02*
X150261904Y-46740533D01*
X150261904Y-46740533D02*
X150261904Y-46645295D01*
X150261904Y-46645295D02*
X150214285Y-46550057D01*
X150214285Y-46550057D02*
X150166666Y-46502438D01*
X150166666Y-46502438D02*
X150071428Y-46454819D01*
X150071428Y-46454819D02*
X149833333Y-46454819D01*
X149833333Y-46454819D02*
X149690476Y-46502438D01*
X148880952Y-47407200D02*
X148976190Y-47454819D01*
X148976190Y-47454819D02*
X149166666Y-47454819D01*
X149166666Y-47454819D02*
X149261904Y-47407200D01*
X149261904Y-47407200D02*
X149309523Y-47311961D01*
X149309523Y-47311961D02*
X149309523Y-46931009D01*
X149309523Y-46931009D02*
X149261904Y-46835771D01*
X149261904Y-46835771D02*
X149166666Y-46788152D01*
X149166666Y-46788152D02*
X148976190Y-46788152D01*
X148976190Y-46788152D02*
X148880952Y-46835771D01*
X148880952Y-46835771D02*
X148833333Y-46931009D01*
X148833333Y-46931009D02*
X148833333Y-47026247D01*
X148833333Y-47026247D02*
X149309523Y-47121485D01*
X148023809Y-47407200D02*
X148119047Y-47454819D01*
X148119047Y-47454819D02*
X148309523Y-47454819D01*
X148309523Y-47454819D02*
X148404761Y-47407200D01*
X148404761Y-47407200D02*
X148452380Y-47311961D01*
X148452380Y-47311961D02*
X148452380Y-46931009D01*
X148452380Y-46931009D02*
X148404761Y-46835771D01*
X148404761Y-46835771D02*
X148309523Y-46788152D01*
X148309523Y-46788152D02*
X148119047Y-46788152D01*
X148119047Y-46788152D02*
X148023809Y-46835771D01*
X148023809Y-46835771D02*
X147976190Y-46931009D01*
X147976190Y-46931009D02*
X147976190Y-47026247D01*
X147976190Y-47026247D02*
X148452380Y-47121485D01*
X147166666Y-47407200D02*
X147261904Y-47454819D01*
X147261904Y-47454819D02*
X147452380Y-47454819D01*
X147452380Y-47454819D02*
X147547618Y-47407200D01*
X147547618Y-47407200D02*
X147595237Y-47311961D01*
X147595237Y-47311961D02*
X147595237Y-46931009D01*
X147595237Y-46931009D02*
X147547618Y-46835771D01*
X147547618Y-46835771D02*
X147452380Y-46788152D01*
X147452380Y-46788152D02*
X147261904Y-46788152D01*
X147261904Y-46788152D02*
X147166666Y-46835771D01*
X147166666Y-46835771D02*
X147119047Y-46931009D01*
X147119047Y-46931009D02*
X147119047Y-47026247D01*
X147119047Y-47026247D02*
X147595237Y-47121485D01*
X146261904Y-47454819D02*
X146261904Y-46454819D01*
X146261904Y-47407200D02*
X146357142Y-47454819D01*
X146357142Y-47454819D02*
X146547618Y-47454819D01*
X146547618Y-47454819D02*
X146642856Y-47407200D01*
X146642856Y-47407200D02*
X146690475Y-47359580D01*
X146690475Y-47359580D02*
X146738094Y-47264342D01*
X146738094Y-47264342D02*
X146738094Y-46978628D01*
X146738094Y-46978628D02*
X146690475Y-46883390D01*
X146690475Y-46883390D02*
X146642856Y-46835771D01*
X146642856Y-46835771D02*
X146547618Y-46788152D01*
X146547618Y-46788152D02*
X146357142Y-46788152D01*
X146357142Y-46788152D02*
X146261904Y-46835771D01*
X145071427Y-47407200D02*
X144928570Y-47454819D01*
X144928570Y-47454819D02*
X144690475Y-47454819D01*
X144690475Y-47454819D02*
X144595237Y-47407200D01*
X144595237Y-47407200D02*
X144547618Y-47359580D01*
X144547618Y-47359580D02*
X144499999Y-47264342D01*
X144499999Y-47264342D02*
X144499999Y-47169104D01*
X144499999Y-47169104D02*
X144547618Y-47073866D01*
X144547618Y-47073866D02*
X144595237Y-47026247D01*
X144595237Y-47026247D02*
X144690475Y-46978628D01*
X144690475Y-46978628D02*
X144880951Y-46931009D01*
X144880951Y-46931009D02*
X144976189Y-46883390D01*
X144976189Y-46883390D02*
X145023808Y-46835771D01*
X145023808Y-46835771D02*
X145071427Y-46740533D01*
X145071427Y-46740533D02*
X145071427Y-46645295D01*
X145071427Y-46645295D02*
X145023808Y-46550057D01*
X145023808Y-46550057D02*
X144976189Y-46502438D01*
X144976189Y-46502438D02*
X144880951Y-46454819D01*
X144880951Y-46454819D02*
X144642856Y-46454819D01*
X144642856Y-46454819D02*
X144499999Y-46502438D01*
X144214284Y-46788152D02*
X143833332Y-46788152D01*
X144071427Y-46454819D02*
X144071427Y-47311961D01*
X144071427Y-47311961D02*
X144023808Y-47407200D01*
X144023808Y-47407200D02*
X143928570Y-47454819D01*
X143928570Y-47454819D02*
X143833332Y-47454819D01*
X143071427Y-46788152D02*
X143071427Y-47454819D01*
X143499998Y-46788152D02*
X143499998Y-47311961D01*
X143499998Y-47311961D02*
X143452379Y-47407200D01*
X143452379Y-47407200D02*
X143357141Y-47454819D01*
X143357141Y-47454819D02*
X143214284Y-47454819D01*
X143214284Y-47454819D02*
X143119046Y-47407200D01*
X143119046Y-47407200D02*
X143071427Y-47359580D01*
X142166665Y-47454819D02*
X142166665Y-46454819D01*
X142166665Y-47407200D02*
X142261903Y-47454819D01*
X142261903Y-47454819D02*
X142452379Y-47454819D01*
X142452379Y-47454819D02*
X142547617Y-47407200D01*
X142547617Y-47407200D02*
X142595236Y-47359580D01*
X142595236Y-47359580D02*
X142642855Y-47264342D01*
X142642855Y-47264342D02*
X142642855Y-46978628D01*
X142642855Y-46978628D02*
X142595236Y-46883390D01*
X142595236Y-46883390D02*
X142547617Y-46835771D01*
X142547617Y-46835771D02*
X142452379Y-46788152D01*
X142452379Y-46788152D02*
X142261903Y-46788152D01*
X142261903Y-46788152D02*
X142166665Y-46835771D01*
X141690474Y-47454819D02*
X141690474Y-46788152D01*
X141690474Y-46454819D02*
X141738093Y-46502438D01*
X141738093Y-46502438D02*
X141690474Y-46550057D01*
X141690474Y-46550057D02*
X141642855Y-46502438D01*
X141642855Y-46502438D02*
X141690474Y-46454819D01*
X141690474Y-46454819D02*
X141690474Y-46550057D01*
X141071427Y-47454819D02*
X141166665Y-47407200D01*
X141166665Y-47407200D02*
X141214284Y-47359580D01*
X141214284Y-47359580D02*
X141261903Y-47264342D01*
X141261903Y-47264342D02*
X141261903Y-46978628D01*
X141261903Y-46978628D02*
X141214284Y-46883390D01*
X141214284Y-46883390D02*
X141166665Y-46835771D01*
X141166665Y-46835771D02*
X141071427Y-46788152D01*
X141071427Y-46788152D02*
X140928570Y-46788152D01*
X140928570Y-46788152D02*
X140833332Y-46835771D01*
X140833332Y-46835771D02*
X140785713Y-46883390D01*
X140785713Y-46883390D02*
X140738094Y-46978628D01*
X140738094Y-46978628D02*
X140738094Y-47264342D01*
X140738094Y-47264342D02*
X140785713Y-47359580D01*
X140785713Y-47359580D02*
X140833332Y-47407200D01*
X140833332Y-47407200D02*
X140928570Y-47454819D01*
X140928570Y-47454819D02*
X141071427Y-47454819D01*
X147023808Y-48454819D02*
X146357142Y-49454819D01*
X146357142Y-48454819D02*
X147023808Y-49454819D01*
X145976189Y-49454819D02*
X145976189Y-48454819D01*
X145547618Y-49169104D02*
X145071428Y-49169104D01*
X145642856Y-49454819D02*
X145309523Y-48454819D01*
X145309523Y-48454819D02*
X144976190Y-49454819D01*
X144452380Y-48454819D02*
X144261904Y-48454819D01*
X144261904Y-48454819D02*
X144166666Y-48502438D01*
X144166666Y-48502438D02*
X144071428Y-48597676D01*
X144071428Y-48597676D02*
X144023809Y-48788152D01*
X144023809Y-48788152D02*
X144023809Y-49121485D01*
X144023809Y-49121485D02*
X144071428Y-49311961D01*
X144071428Y-49311961D02*
X144166666Y-49407200D01*
X144166666Y-49407200D02*
X144261904Y-49454819D01*
X144261904Y-49454819D02*
X144452380Y-49454819D01*
X144452380Y-49454819D02*
X144547618Y-49407200D01*
X144547618Y-49407200D02*
X144642856Y-49311961D01*
X144642856Y-49311961D02*
X144690475Y-49121485D01*
X144690475Y-49121485D02*
X144690475Y-48788152D01*
X144690475Y-48788152D02*
X144642856Y-48597676D01*
X144642856Y-48597676D02*
X144547618Y-48502438D01*
X144547618Y-48502438D02*
X144452380Y-48454819D01*
%TO.C,U1*%
D12*
X136600000Y-57000000D02*
X136600000Y-40000000D01*
X138600000Y-38000910D02*
X152400000Y-38000910D01*
X141000000Y-36575970D02*
X141000000Y-43929270D01*
X141000000Y-43929270D02*
X150000000Y-43929270D01*
X150000000Y-36575970D02*
X141000000Y-36575970D01*
X150000000Y-43929270D02*
X150000000Y-36575970D01*
X152400000Y-59000000D02*
X138600000Y-59000000D01*
X154400000Y-40000000D02*
X154400000Y-57000000D01*
D13*
X136600000Y-40000000D02*
G75*
G02*
X138600000Y-38000000I2044610J-44610D01*
G01*
X138600000Y-59000000D02*
G75*
G02*
X136600000Y-57000000I0J2000000D01*
G01*
X152400000Y-38000000D02*
G75*
G02*
X154400000Y-40000000I-44612J-2044612D01*
G01*
X154400000Y-57000000D02*
G75*
G02*
X152400000Y-59000000I-2044857J44857D01*
G01*
D14*
X156627000Y-39700000D02*
G75*
G02*
X156373000Y-39700000I-127000J0D01*
G01*
X156373000Y-39700000D02*
G75*
G02*
X156627000Y-39700000I127000J0D01*
G01*
D15*
X154387715Y-39938295D02*
X154384667Y-39889527D01*
X154380603Y-39840506D01*
X154387715Y-39938295D01*
X136610508Y-57021574D02*
X136612287Y-57070850D01*
X136615335Y-57119618D01*
X136619399Y-57168639D01*
X136624732Y-57217407D01*
X136631336Y-57266175D01*
X136638956Y-57314690D01*
X136647847Y-57362950D01*
X136657752Y-57410955D01*
X136610508Y-57021574D01*
%TD*%
M02*
