%TF.GenerationSoftware,KiCad,Pcbnew,10.0.6*%
%TF.CreationDate,2026-09-07T01:11:53-05:00*%
%TF.ProjectId,macropad,6d616372-6f70-4616-942e-6b696361645f,rev?*%
%TF.SameCoordinates,Original*%
%TF.FileFunction,Soldermask,Top*%
%TF.FilePolarity,Negative*%
%FSLAX46Y46*%
G04 Gerber Fmt 4.6, Leading zero omitted, Abs format (unit mm)*
G04 Created by KiCad (PCBNEW 10.0.6) date 2026-09-07 01:11:53*
%MOMM*%
%LPD*%
G01*
G04 APERTURE LIST*
G04 Aperture macros list*
%AMRoundRect*
0 Rectangle with rounded corners*
0 $1 Rounding radius*
0 $2 $3 $4 $5 $6 $7 $8 $9 X,Y pos of 4 corners*
0 Add a 4 corners polygon primitive as box body*
4,1,4,$2,$3,$4,$5,$6,$7,$8,$9,$2,$3,0*
0 Add four circle primitives for the rounded corners*
1,1,$1+$1,$2,$3*
1,1,$1+$1,$4,$5*
1,1,$1+$1,$6,$7*
1,1,$1+$1,$8,$9*
0 Add four rect primitives between the rounded corners*
20,1,$1+$1,$2,$3,$4,$5,0*
20,1,$1+$1,$4,$5,$6,$7,0*
20,1,$1+$1,$6,$7,$8,$9,0*
20,1,$1+$1,$8,$9,$2,$3,0*%
G04 Aperture macros list end*
%ADD10C,1.700000*%
%ADD11C,4.000000*%
%ADD12C,2.200000*%
%ADD13RoundRect,0.250000X-0.550000X-0.550000X0.550000X-0.550000X0.550000X0.550000X-0.550000X0.550000X0*%
%ADD14C,1.600000*%
%ADD15R,2.000000X2.000000*%
%ADD16C,2.000000*%
%ADD17R,3.200000X2.000000*%
%ADD18RoundRect,0.170000X-0.680000X0.680000X-0.680000X-0.680000X0.680000X-0.680000X0.680000X0.680000X0*%
%ADD19R,3.500000X1.700000*%
%ADD20O,3.600000X1.700000*%
%ADD21O,3.700000X1.700000*%
G04 APERTURE END LIST*
D10*
%TO.C,SW6*%
X139420000Y-124500000D03*
D11*
X144500000Y-124500000D03*
D10*
X149580000Y-124500000D03*
D12*
X147040000Y-119420000D03*
X140690000Y-121960000D03*
%TD*%
D10*
%TO.C,SW1*%
X119420000Y-84500000D03*
D11*
X124500000Y-84500000D03*
D10*
X129580000Y-84500000D03*
D12*
X127040000Y-79420000D03*
X120690000Y-81960000D03*
%TD*%
D10*
%TO.C,SW5*%
X139420000Y-104540000D03*
D11*
X144500000Y-104540000D03*
D10*
X149580000Y-104540000D03*
D12*
X147040000Y-99460000D03*
X140690000Y-102000000D03*
%TD*%
D13*
%TO.C,D3*%
X120690000Y-133500000D03*
D14*
X128310000Y-133500000D03*
%TD*%
D10*
%TO.C,SW4*%
X139420000Y-84500000D03*
D11*
X144500000Y-84500000D03*
D10*
X149580000Y-84500000D03*
D12*
X147040000Y-79420000D03*
X140690000Y-81960000D03*
%TD*%
D10*
%TO.C,SW2*%
X119420000Y-104500000D03*
D11*
X124500000Y-104500000D03*
D10*
X129580000Y-104500000D03*
D12*
X127040000Y-99420000D03*
X120690000Y-101960000D03*
%TD*%
D13*
%TO.C,D4*%
X140880000Y-93500000D03*
D14*
X148500000Y-93500000D03*
%TD*%
D13*
%TO.C,D5*%
X140880000Y-113500000D03*
D14*
X148500000Y-113500000D03*
%TD*%
D10*
%TO.C,SW8*%
X159420000Y-104500000D03*
D11*
X164500000Y-104500000D03*
D10*
X169580000Y-104500000D03*
D12*
X167040000Y-99420000D03*
X160690000Y-101960000D03*
%TD*%
D10*
%TO.C,SW9*%
X159420000Y-124500000D03*
D11*
X164500000Y-124500000D03*
D10*
X169580000Y-124500000D03*
D12*
X167040000Y-119420000D03*
X160690000Y-121960000D03*
%TD*%
D10*
%TO.C,SW3*%
X119420000Y-124500000D03*
D11*
X124500000Y-124500000D03*
D10*
X129580000Y-124500000D03*
D12*
X127040000Y-119420000D03*
X120690000Y-121960000D03*
%TD*%
D15*
%TO.C,SW10*%
X157750000Y-64000000D03*
D16*
X157750000Y-69000000D03*
X157750000Y-66500000D03*
D17*
X165250000Y-60900000D03*
X165250000Y-72100000D03*
D16*
X172250000Y-69000000D03*
X172250000Y-64000000D03*
%TD*%
D13*
%TO.C,D7*%
X161190000Y-93500000D03*
D14*
X168810000Y-93500000D03*
%TD*%
D13*
%TO.C,D1*%
X120690000Y-93500000D03*
D14*
X128310000Y-93500000D03*
%TD*%
D10*
%TO.C,SW7*%
X159420000Y-84500000D03*
D11*
X164500000Y-84500000D03*
D10*
X169580000Y-84500000D03*
D12*
X167040000Y-79420000D03*
X160690000Y-81960000D03*
%TD*%
D18*
%TO.C,U2*%
X152000000Y-62960000D03*
D10*
X152000000Y-65500000D03*
X152000000Y-68040000D03*
X152000000Y-70580000D03*
%TD*%
D13*
%TO.C,D6*%
X140880000Y-133500000D03*
D14*
X148500000Y-133500000D03*
%TD*%
D13*
%TO.C,D8*%
X160690000Y-113500000D03*
D14*
X168310000Y-113500000D03*
%TD*%
D13*
%TO.C,D2*%
X120880000Y-113500000D03*
D14*
X128500000Y-113500000D03*
%TD*%
D13*
%TO.C,D9*%
X160690000Y-133500000D03*
D14*
X168310000Y-133500000D03*
%TD*%
D19*
%TO.C,U1*%
X154125000Y-40880000D03*
D20*
X154125000Y-43420000D03*
X154125000Y-45960000D03*
X154125000Y-48500000D03*
X154125000Y-51040000D03*
X154125000Y-53580000D03*
X154125000Y-56120000D03*
X136875000Y-56120000D03*
X136875000Y-53580000D03*
X136875000Y-51040000D03*
D21*
X136875000Y-48500000D03*
X136875000Y-45960000D03*
X136875000Y-43420000D03*
X136875000Y-40880000D03*
%TD*%
M02*
