M48
; DRILL file KiCad 10.0.6 date 2026-09-07T01:10:43
; FORMAT={-:-/ absolute / metric / decimal}
; #@! TF.CreationDate,2026-09-07T01:10:43-05:00
; #@! TF.GenerationSoftware,Kicad,Pcbnew,10.0.6
; #@! TF.FileFunction,Plated,1,2,PTH
FMAT,2
METRIC
; #@! TA.AperFunction,Plated,PTH,ComponentDrill
T1C0.800
; #@! TA.AperFunction,Plated,PTH,ComponentDrill
T2C1.000
; #@! TA.AperFunction,Plated,PTH,ComponentDrill
T3C1.500
%
G90
G05
T1
X120.69Y-93.5
X120.69Y-133.5
X120.88Y-113.5
X128.31Y-93.5
X128.31Y-133.5
X128.5Y-113.5
X140.88Y-93.5
X140.88Y-113.5
X140.88Y-133.5
X148.5Y-93.5
X148.5Y-113.5
X148.5Y-133.5
X160.69Y-113.5
X160.69Y-133.5
X161.19Y-93.5
X168.31Y-113.5
X168.31Y-133.5
X168.81Y-93.5
T2
X137.875Y-40.88
X137.875Y-43.42
X137.875Y-45.96
X137.875Y-48.5
X137.875Y-51.04
X137.875Y-53.58
X137.875Y-56.12
X152.0Y-62.96
X152.0Y-65.5
X152.0Y-68.04
X152.0Y-70.58
X153.125Y-40.88
X153.125Y-43.42
X153.125Y-45.96
X153.125Y-48.5
X153.125Y-51.04
X153.125Y-53.58
X153.125Y-56.12
X157.75Y-64.0
X157.75Y-66.5
X157.75Y-69.0
X172.25Y-64.0
X172.25Y-69.0
T3
X120.69Y-81.96
X120.69Y-101.96
X120.69Y-121.96
X127.04Y-79.42
X127.04Y-99.42
X127.04Y-119.42
X140.69Y-81.96
X140.69Y-102.0
X140.69Y-121.96
X147.04Y-79.42
X147.04Y-99.46
X147.04Y-119.42
X160.69Y-81.96
X160.69Y-101.96
X160.69Y-121.96
X167.04Y-79.42
X167.04Y-99.42
X167.04Y-119.42
T3
G00X164.6Y-60.9
M15
G01X165.9Y-60.9
M16
G05
G00X164.6Y-72.1
M15
G01X165.9Y-72.1
M16
G05
M30
