%TF.GenerationSoftware,KiCad,Pcbnew,10.0.6*%
%TF.CreationDate,2026-09-07T01:11:53-05:00*%
%TF.ProjectId,macropad,6d616372-6f70-4616-942e-6b696361645f,rev?*%
%TF.SameCoordinates,Original*%
%TF.FileFunction,Copper,L2,Bot*%
%TF.FilePolarity,Positive*%
%FSLAX46Y46*%
G04 Gerber Fmt 4.6, Leading zero omitted, Abs format (unit mm)*
G04 Created by KiCad (PCBNEW 10.0.6) date 2026-09-07 01:11:53*
%MOMM*%
%LPD*%
G01*
G04 APERTURE LIST*
G04 Aperture macros list*
%AMRoundRect*
0 Rectangle with rounded corners*
0 $1 Rounding radius*
0 $2 $3 $4 $5 $6 $7 $8 $9 X,Y pos of 4 corners*
0 Add a 4 corners polygon primitive as box body*
4,1,4,$2,$3,$4,$5,$6,$7,$8,$9,$2,$3,0*
0 Add four circle primitives for the rounded corners*
1,1,$1+$1,$2,$3*
1,1,$1+$1,$4,$5*
1,1,$1+$1,$6,$7*
1,1,$1+$1,$8,$9*
0 Add four rect primitives between the rounded corners*
20,1,$1+$1,$2,$3,$4,$5,0*
20,1,$1+$1,$4,$5,$6,$7,0*
20,1,$1+$1,$6,$7,$8,$9,0*
20,1,$1+$1,$8,$9,$2,$3,0*%
G04 Aperture macros list end*
%TA.AperFunction,ComponentPad*%
%ADD10C,2.200000*%
%TD*%
%TA.AperFunction,ComponentPad*%
%ADD11RoundRect,0.250000X-0.550000X-0.550000X0.550000X-0.550000X0.550000X0.550000X-0.550000X0.550000X0*%
%TD*%
%TA.AperFunction,ComponentPad*%
%ADD12C,1.600000*%
%TD*%
%TA.AperFunction,ComponentPad*%
%ADD13R,2.000000X2.000000*%
%TD*%
%TA.AperFunction,ComponentPad*%
%ADD14C,2.000000*%
%TD*%
%TA.AperFunction,ComponentPad*%
%ADD15R,3.200000X2.000000*%
%TD*%
%TA.AperFunction,ComponentPad*%
%ADD16RoundRect,0.170000X-0.680000X0.680000X-0.680000X-0.680000X0.680000X-0.680000X0.680000X0.680000X0*%
%TD*%
%TA.AperFunction,ComponentPad*%
%ADD17C,1.700000*%
%TD*%
%TA.AperFunction,ComponentPad*%
%ADD18R,3.500000X1.700000*%
%TD*%
%TA.AperFunction,ComponentPad*%
%ADD19O,3.600000X1.700000*%
%TD*%
%TA.AperFunction,ComponentPad*%
%ADD20O,3.700000X1.700000*%
%TD*%
%TA.AperFunction,Conductor*%
%ADD21C,0.200000*%
%TD*%
G04 APERTURE END LIST*
D10*
%TO.P,SW6,1,1_1*%
%TO.N,Net-(U1-PA5_A9_D9_MISO)*%
X147040000Y-119420000D03*
%TO.P,SW6,2,2_2*%
%TO.N,Net-(D6-K)*%
X140690000Y-121960000D03*
%TD*%
%TO.P,SW1,1,1_1*%
%TO.N,Net-(U1-PB09_A7_D7_RX)*%
X127040000Y-79420000D03*
%TO.P,SW1,2,2_2*%
%TO.N,Net-(D1-K)*%
X120690000Y-81960000D03*
%TD*%
%TO.P,SW5,1,1_1*%
%TO.N,Net-(U1-PA7_A8_D8_SCK)*%
X147040000Y-99460000D03*
%TO.P,SW5,2,2_2*%
%TO.N,Net-(D5-K)*%
X140690000Y-102000000D03*
%TD*%
D11*
%TO.P,D3,1,K_1*%
%TO.N,Net-(D3-K)*%
X120690000Y-133500000D03*
D12*
%TO.P,D3,2,A_2*%
%TO.N,Net-(D1-A)*%
X128310000Y-133500000D03*
%TD*%
D10*
%TO.P,SW4,1,1_1*%
%TO.N,Net-(U1-PB09_A7_D7_RX)*%
X147040000Y-79420000D03*
%TO.P,SW4,2,2_2*%
%TO.N,Net-(D4-K)*%
X140690000Y-81960000D03*
%TD*%
%TO.P,SW2,1,1_1*%
%TO.N,Net-(U1-PA7_A8_D8_SCK)*%
X127040000Y-99420000D03*
%TO.P,SW2,2,2_2*%
%TO.N,Net-(D2-K)*%
X120690000Y-101960000D03*
%TD*%
D11*
%TO.P,D4,1,K_1*%
%TO.N,Net-(D4-K)*%
X140880000Y-93500000D03*
D12*
%TO.P,D4,2,A_2*%
%TO.N,Net-(D4-A)*%
X148500000Y-93500000D03*
%TD*%
D11*
%TO.P,D5,1,K_1*%
%TO.N,Net-(D5-K)*%
X140880000Y-113500000D03*
D12*
%TO.P,D5,2,A_2*%
%TO.N,Net-(D4-A)*%
X148500000Y-113500000D03*
%TD*%
D10*
%TO.P,SW8,1,1_1*%
%TO.N,Net-(U1-PA7_A8_D8_SCK)*%
X167040000Y-99420000D03*
%TO.P,SW8,2,2_2*%
%TO.N,Net-(D8-K)*%
X160690000Y-101960000D03*
%TD*%
%TO.P,SW9,1,1_1*%
%TO.N,Net-(U1-PA5_A9_D9_MISO)*%
X167040000Y-119420000D03*
%TO.P,SW9,2,2_2*%
%TO.N,Net-(D9-K)*%
X160690000Y-121960000D03*
%TD*%
%TO.P,SW3,1,1_1*%
%TO.N,Net-(U1-PA5_A9_D9_MISO)*%
X127040000Y-119420000D03*
%TO.P,SW3,2,2_2*%
%TO.N,Net-(D3-K)*%
X120690000Y-121960000D03*
%TD*%
D13*
%TO.P,SW10,A,A_A*%
%TO.N,Net-(U1-PA02_A0_D0)*%
X157750000Y-64000000D03*
D14*
%TO.P,SW10,B,B_B*%
%TO.N,Net-(U1-PA4_A1_D1)*%
X157750000Y-69000000D03*
%TO.P,SW10,C,C_C*%
%TO.N,GND*%
X157750000Y-66500000D03*
D15*
%TO.P,SW10,MP*%
%TO.N,N/C*%
X165250000Y-60900000D03*
X165250000Y-72100000D03*
D14*
%TO.P,SW10,S1,S1_S1*%
%TO.N,Net-(U1-PA6_A10_D10_MOSI)*%
X172250000Y-69000000D03*
%TO.P,SW10,S2,S2_S2*%
%TO.N,GND*%
X172250000Y-64000000D03*
%TD*%
D11*
%TO.P,D7,1,K_1*%
%TO.N,Net-(D7-K)*%
X161190000Y-93500000D03*
D12*
%TO.P,D7,2,A_2*%
%TO.N,Net-(D7-A)*%
X168810000Y-93500000D03*
%TD*%
D11*
%TO.P,D1,1,K_1*%
%TO.N,Net-(D1-K)*%
X120690000Y-93500000D03*
D12*
%TO.P,D1,2,A_2*%
%TO.N,Net-(D1-A)*%
X128310000Y-93500000D03*
%TD*%
D10*
%TO.P,SW7,1,1_1*%
%TO.N,Net-(U1-PB09_A7_D7_RX)*%
X167040000Y-79420000D03*
%TO.P,SW7,2,2_2*%
%TO.N,Net-(D7-K)*%
X160690000Y-81960000D03*
%TD*%
D16*
%TO.P,U2,1,GND_1*%
%TO.N,GND*%
X152000000Y-62960000D03*
D17*
%TO.P,U2,2,VCC_2*%
%TO.N,Net-(U1-3V3)*%
X152000000Y-65500000D03*
%TO.P,U2,3,SCL_3*%
%TO.N,Net-(U1-PA9_A5_D5_SCL)*%
X152000000Y-68040000D03*
%TO.P,U2,4,SDA_4*%
%TO.N,Net-(U1-PA8_A4_D4_SDA)*%
X152000000Y-70580000D03*
%TD*%
D11*
%TO.P,D6,1,K_1*%
%TO.N,Net-(D6-K)*%
X140880000Y-133500000D03*
D12*
%TO.P,D6,2,A_2*%
%TO.N,Net-(D4-A)*%
X148500000Y-133500000D03*
%TD*%
D11*
%TO.P,D8,1,K_1*%
%TO.N,Net-(D8-K)*%
X160690000Y-113500000D03*
D12*
%TO.P,D8,2,A_2*%
%TO.N,Net-(D7-A)*%
X168310000Y-113500000D03*
%TD*%
D11*
%TO.P,D2,1,K_1*%
%TO.N,Net-(D2-K)*%
X120880000Y-113500000D03*
D12*
%TO.P,D2,2,A_2*%
%TO.N,Net-(D1-A)*%
X128500000Y-113500000D03*
%TD*%
D11*
%TO.P,D9,1,K_1*%
%TO.N,Net-(D9-K)*%
X160690000Y-133500000D03*
D12*
%TO.P,D9,2,A_2*%
%TO.N,Net-(D7-A)*%
X168310000Y-133500000D03*
%TD*%
D18*
%TO.P,U1,1,PA02_A0_D0_1*%
%TO.N,Net-(U1-PA02_A0_D0)*%
X154125000Y-40880000D03*
D19*
%TO.P,U1,2,PA4_A1_D1_2*%
%TO.N,Net-(U1-PA4_A1_D1)*%
X154125000Y-43420000D03*
%TO.P,U1,3,PA10_A2_D2_3*%
%TO.N,Net-(D1-A)*%
X154125000Y-45960000D03*
%TO.P,U1,4,PA11_A3_D3_4*%
%TO.N,Net-(D4-A)*%
X154125000Y-48500000D03*
%TO.P,U1,5,PA8_A4_D4_SDA_5*%
%TO.N,Net-(U1-PA8_A4_D4_SDA)*%
X154125000Y-51040000D03*
%TO.P,U1,6,PA9_A5_D5_SCL_6*%
%TO.N,Net-(U1-PA9_A5_D5_SCL)*%
X154125000Y-53580000D03*
%TO.P,U1,7,PB08_A6_D6_TX_7*%
%TO.N,Net-(D7-A)*%
X154125000Y-56120000D03*
%TO.P,U1,8,PB09_A7_D7_RX_8*%
%TO.N,Net-(U1-PB09_A7_D7_RX)*%
X136875000Y-56120000D03*
%TO.P,U1,9,PA7_A8_D8_SCK_9*%
%TO.N,Net-(U1-PA7_A8_D8_SCK)*%
X136875000Y-53580000D03*
%TO.P,U1,10,PA5_A9_D9_MISO_10*%
%TO.N,Net-(U1-PA5_A9_D9_MISO)*%
X136875000Y-51040000D03*
D20*
%TO.P,U1,11,PA6_A10_D10_MOSI_11*%
%TO.N,Net-(U1-PA6_A10_D10_MOSI)*%
X136875000Y-48500000D03*
%TO.P,U1,12,3V3_12*%
%TO.N,Net-(U1-3V3)*%
X136875000Y-45960000D03*
%TO.P,U1,13,GND_13*%
%TO.N,GND*%
X136875000Y-43420000D03*
%TO.P,U1,14,5V_14*%
%TO.N,unconnected-(U1-5V-Pad14)*%
X136875000Y-40880000D03*
%TD*%
%TO.N,Net-(D1-A)*%
D21*
X174350000Y-63695836D02*
X156614164Y-45960000D01*
X156614164Y-45960000D02*
X153125000Y-45960000D01*
X169431321Y-95000000D02*
X174350000Y-90081320D01*
X129810000Y-95000000D02*
X169431321Y-95000000D01*
X174350000Y-90081320D02*
X174350000Y-63695836D01*
X128310000Y-93500000D02*
X129810000Y-95000000D01*
%TO.N,Net-(D4-A)*%
X173950000Y-63861522D02*
X158588478Y-48500000D01*
X173950000Y-89915635D02*
X173950000Y-63861522D01*
X169265635Y-94600000D02*
X173950000Y-89915635D01*
X149600000Y-94600000D02*
X169265635Y-94600000D01*
X158588478Y-48500000D02*
X153125000Y-48500000D01*
X148500000Y-93500000D02*
X149600000Y-94600000D01*
%TO.N,GND*%
X169750000Y-66500000D02*
X157750000Y-66500000D01*
X172250000Y-64000000D02*
X169750000Y-66500000D01*
X152000000Y-58000000D02*
X137875000Y-43875000D01*
X152000000Y-62960000D02*
X152000000Y-58000000D01*
X137875000Y-43875000D02*
X137875000Y-43420000D01*
%TO.N,Net-(U1-3V3)*%
X150500000Y-58585000D02*
X137875000Y-45960000D01*
X150500000Y-64000000D02*
X150500000Y-58585000D01*
X152000000Y-65500000D02*
X150500000Y-64000000D01*
%TO.N,Net-(U1-PA9_A5_D5_SCL)*%
X155890000Y-53580000D02*
X153125000Y-53580000D01*
X156225000Y-53245000D02*
X155890000Y-53580000D01*
X156225000Y-50563654D02*
X156225000Y-53245000D01*
X155551346Y-49890000D02*
X156225000Y-50563654D01*
X151625000Y-50963654D02*
X152698654Y-49890000D01*
X152698654Y-49890000D02*
X155551346Y-49890000D01*
X154000000Y-59137032D02*
X151625000Y-56762031D01*
X154000000Y-66040000D02*
X154000000Y-59137032D01*
X151625000Y-56762031D02*
X151625000Y-50963654D01*
X152000000Y-68040000D02*
X154000000Y-66040000D01*
%TO.N,Net-(U1-PA8_A4_D4_SDA)*%
X152025000Y-52140000D02*
X153125000Y-51040000D01*
X152025000Y-56596346D02*
X152025000Y-52140000D01*
X154500000Y-59071346D02*
X152025000Y-56596346D01*
X154500000Y-70500000D02*
X154500000Y-59071346D01*
X154420000Y-70580000D02*
X154500000Y-70500000D01*
X152000000Y-70580000D02*
X154420000Y-70580000D01*
%TO.N,Net-(U1-PA7_A8_D8_SCK)*%
X149440000Y-65145000D02*
X137875000Y-53580000D01*
X149440000Y-78020000D02*
X149440000Y-65145000D01*
X167619899Y-78020000D02*
X149440000Y-78020000D01*
X168440000Y-78840101D02*
X167619899Y-78020000D01*
X168440000Y-79999899D02*
X168440000Y-78840101D01*
X167619899Y-80820000D02*
X168440000Y-79999899D01*
X166460101Y-80820000D02*
X167619899Y-80820000D01*
X148440000Y-79999899D02*
X165640000Y-79999899D01*
X165640000Y-79999899D02*
X166460101Y-80820000D01*
X147619899Y-80820000D02*
X148440000Y-79999899D01*
X146460101Y-80820000D02*
X147619899Y-80820000D01*
X146140101Y-80500000D02*
X146460101Y-80820000D01*
X133500000Y-80500000D02*
X146140101Y-80500000D01*
X132000000Y-87500000D02*
X133500000Y-86000000D01*
X133500000Y-86000000D02*
X133500000Y-80500000D01*
X128500000Y-87500000D02*
X132000000Y-87500000D01*
X127040000Y-88960000D02*
X128500000Y-87500000D01*
X127040000Y-99420000D02*
X127040000Y-88960000D01*
%TO.N,Net-(D7-A)*%
X155000000Y-57995000D02*
X153125000Y-56120000D01*
X155000000Y-73500000D02*
X155000000Y-57995000D01*
X169500000Y-73500000D02*
X155000000Y-73500000D01*
X173550000Y-77550000D02*
X169500000Y-73500000D01*
X173550000Y-88760000D02*
X173550000Y-77550000D01*
X168810000Y-93500000D02*
X173550000Y-88760000D01*
%TO.N,Net-(U1-PA5_A9_D9_MISO)*%
X136838654Y-51040000D02*
X137875000Y-51040000D01*
X125640000Y-89142944D02*
X129082944Y-85700000D01*
X125640000Y-99999899D02*
X125640000Y-89142944D01*
X129082944Y-85700000D02*
X125640000Y-82257056D01*
X127040000Y-101399899D02*
X125640000Y-99999899D01*
X127040000Y-119420000D02*
X127040000Y-101399899D01*
X125640000Y-82257056D02*
X125640000Y-62238654D01*
X125640000Y-62238654D02*
X136838654Y-51040000D01*
%TO.N,Net-(U1-PB09_A7_D7_RX)*%
X127040000Y-66955000D02*
X137875000Y-56120000D01*
X127040000Y-79420000D02*
X127040000Y-66955000D01*
X147040000Y-79420000D02*
X167040000Y-79420000D01*
X127040000Y-79420000D02*
X147040000Y-79420000D01*
%TO.N,Net-(U1-PA7_A8_D8_SCK)*%
X167000000Y-99460000D02*
X167040000Y-99420000D01*
X147040000Y-99460000D02*
X167000000Y-99460000D01*
X147000000Y-99420000D02*
X147040000Y-99460000D01*
X127040000Y-99420000D02*
X147000000Y-99420000D01*
%TO.N,Net-(U1-PA5_A9_D9_MISO)*%
X147040000Y-119420000D02*
X167040000Y-119420000D01*
X127040000Y-119420000D02*
X147040000Y-119420000D01*
%TD*%
M02*
