ISO-10303-21;
HEADER;
/* Generated by software containing ST-Developer
 * from STEP Tools, Inc. (www.steptools.com) 
 */

FILE_DESCRIPTION(
/* description */ (''),
/* implementation_level */ '2;1');

FILE_NAME(
/* name */ 'BOTTOM.step',
/* time_stamp */ '2026-09-07T01:14:44-05:00',
/* author */ (''),
/* organization */ (''),
/* preprocessor_version */ 'ST-DEVELOPER v20.2',
/* originating_system */ 'Autodesk Translation Framework v15.15.0.0',
/* authorisation */ '');

FILE_SCHEMA (('AUTOMOTIVE_DESIGN { 1 0 10303 214 3 1 1 }'));
ENDSEC;

DATA;
#10=MECHANICAL_DESIGN_GEOMETRIC_PRESENTATION_REPRESENTATION('',(#13,#14),
#762);
#11=SHAPE_REPRESENTATION_RELATIONSHIP('SRR','None',#769,#12);
#12=ADVANCED_BREP_SHAPE_REPRESENTATION('',(#15,#16),#761);
#13=STYLED_ITEM('',(#778),#15);
#14=STYLED_ITEM('',(#778),#16);
#15=MANIFOLD_SOLID_BREP('Body4',#469);
#16=MANIFOLD_SOLID_BREP('Body5',#470);
#17=FACE_BOUND('',#75,.T.);
#18=FACE_BOUND('',#80,.T.);
#19=FACE_BOUND('',#84,.T.);
#20=FACE_BOUND('',#85,.T.);
#21=FACE_BOUND('',#86,.T.);
#22=FACE_BOUND('',#87,.T.);
#23=FACE_BOUND('',#88,.T.);
#24=FACE_BOUND('',#90,.T.);
#25=FACE_BOUND('',#91,.T.);
#26=FACE_BOUND('',#92,.T.);
#27=FACE_BOUND('',#93,.T.);
#28=FACE_BOUND('',#94,.T.);
#29=CIRCLE('',#489,1.45);
#30=CIRCLE('',#490,1.45);
#31=CIRCLE('',#492,1.45);
#32=CIRCLE('',#493,1.45);
#33=CIRCLE('',#495,1.45);
#34=CIRCLE('',#496,1.45);
#35=CIRCLE('',#498,1.45);
#36=CIRCLE('',#499,1.45);
#37=CYLINDRICAL_SURFACE('',#488,1.45);
#38=CYLINDRICAL_SURFACE('',#491,1.45);
#39=CYLINDRICAL_SURFACE('',#494,1.45);
#40=CYLINDRICAL_SURFACE('',#497,1.45);
#41=FACE_OUTER_BOUND('',#65,.T.);
#42=FACE_OUTER_BOUND('',#66,.T.);
#43=FACE_OUTER_BOUND('',#67,.T.);
#44=FACE_OUTER_BOUND('',#68,.T.);
#45=FACE_OUTER_BOUND('',#69,.T.);
#46=FACE_OUTER_BOUND('',#70,.T.);
#47=FACE_OUTER_BOUND('',#71,.T.);
#48=FACE_OUTER_BOUND('',#72,.T.);
#49=FACE_OUTER_BOUND('',#73,.T.);
#50=FACE_OUTER_BOUND('',#74,.T.);
#51=FACE_OUTER_BOUND('',#76,.T.);
#52=FACE_OUTER_BOUND('',#77,.T.);
#53=FACE_OUTER_BOUND('',#78,.T.);
#54=FACE_OUTER_BOUND('',#79,.T.);
#55=FACE_OUTER_BOUND('',#81,.T.);
#56=FACE_OUTER_BOUND('',#82,.T.);
#57=FACE_OUTER_BOUND('',#83,.T.);
#58=FACE_OUTER_BOUND('',#89,.T.);
#59=FACE_OUTER_BOUND('',#95,.T.);
#60=FACE_OUTER_BOUND('',#96,.T.);
#61=FACE_OUTER_BOUND('',#97,.T.);
#62=FACE_OUTER_BOUND('',#98,.T.);
#63=FACE_OUTER_BOUND('',#99,.T.);
#64=FACE_OUTER_BOUND('',#100,.T.);
#65=EDGE_LOOP('',(#305,#306,#307,#308));
#66=EDGE_LOOP('',(#309,#310,#311,#312));
#67=EDGE_LOOP('',(#313,#314,#315,#316));
#68=EDGE_LOOP('',(#317,#318,#319,#320));
#69=EDGE_LOOP('',(#321,#322,#323,#324));
#70=EDGE_LOOP('',(#325,#326,#327,#328));
#71=EDGE_LOOP('',(#329,#330,#331,#332));
#72=EDGE_LOOP('',(#333,#334,#335,#336));
#73=EDGE_LOOP('',(#337,#338,#339,#340));
#74=EDGE_LOOP('',(#341,#342,#343,#344));
#75=EDGE_LOOP('',(#345,#346,#347,#348));
#76=EDGE_LOOP('',(#349,#350,#351,#352));
#77=EDGE_LOOP('',(#353,#354,#355,#356));
#78=EDGE_LOOP('',(#357,#358,#359,#360));
#79=EDGE_LOOP('',(#361,#362,#363,#364));
#80=EDGE_LOOP('',(#365,#366,#367,#368));
#81=EDGE_LOOP('',(#369,#370,#371,#372));
#82=EDGE_LOOP('',(#373,#374,#375,#376));
#83=EDGE_LOOP('',(#377,#378,#379,#380));
#84=EDGE_LOOP('',(#381,#382,#383,#384));
#85=EDGE_LOOP('',(#385));
#86=EDGE_LOOP('',(#386));
#87=EDGE_LOOP('',(#387));
#88=EDGE_LOOP('',(#388));
#89=EDGE_LOOP('',(#389,#390,#391,#392));
#90=EDGE_LOOP('',(#393,#394,#395,#396));
#91=EDGE_LOOP('',(#397));
#92=EDGE_LOOP('',(#398));
#93=EDGE_LOOP('',(#399));
#94=EDGE_LOOP('',(#400));
#95=EDGE_LOOP('',(#401,#402,#403,#404));
#96=EDGE_LOOP('',(#405,#406,#407,#408));
#97=EDGE_LOOP('',(#409,#410,#411,#412));
#98=EDGE_LOOP('',(#413,#414,#415,#416));
#99=EDGE_LOOP('',(#417,#418,#419,#420));
#100=EDGE_LOOP('',(#421,#422,#423,#424));
#101=LINE('',#638,#153);
#102=LINE('',#640,#154);
#103=LINE('',#642,#155);
#104=LINE('',#643,#156);
#105=LINE('',#646,#157);
#106=LINE('',#648,#158);
#107=LINE('',#649,#159);
#108=LINE('',#652,#160);
#109=LINE('',#654,#161);
#110=LINE('',#655,#162);
#111=LINE('',#657,#163);
#112=LINE('',#658,#164);
#113=LINE('',#663,#165);
#114=LINE('',#669,#166);
#115=LINE('',#675,#167);
#116=LINE('',#681,#168);
#117=LINE('',#686,#169);
#118=LINE('',#688,#170);
#119=LINE('',#690,#171);
#120=LINE('',#691,#172);
#121=LINE('',#694,#173);
#122=LINE('',#696,#174);
#123=LINE('',#697,#175);
#124=LINE('',#700,#176);
#125=LINE('',#702,#177);
#126=LINE('',#703,#178);
#127=LINE('',#705,#179);
#128=LINE('',#706,#180);
#129=LINE('',#710,#181);
#130=LINE('',#712,#182);
#131=LINE('',#714,#183);
#132=LINE('',#715,#184);
#133=LINE('',#718,#185);
#134=LINE('',#720,#186);
#135=LINE('',#721,#187);
#136=LINE('',#724,#188);
#137=LINE('',#726,#189);
#138=LINE('',#727,#190);
#139=LINE('',#729,#191);
#140=LINE('',#730,#192);
#141=LINE('',#736,#193);
#142=LINE('',#738,#194);
#143=LINE('',#740,#195);
#144=LINE('',#741,#196);
#145=LINE('',#744,#197);
#146=LINE('',#746,#198);
#147=LINE('',#747,#199);
#148=LINE('',#750,#200);
#149=LINE('',#752,#201);
#150=LINE('',#753,#202);
#151=LINE('',#755,#203);
#152=LINE('',#756,#204);
#153=VECTOR('',#520,10.);
#154=VECTOR('',#521,10.);
#155=VECTOR('',#522,10.);
#156=VECTOR('',#523,10.);
#157=VECTOR('',#526,10.);
#158=VECTOR('',#527,10.);
#159=VECTOR('',#528,10.);
#160=VECTOR('',#531,10.);
#161=VECTOR('',#532,10.);
#162=VECTOR('',#533,10.);
#163=VECTOR('',#536,10.);
#164=VECTOR('',#537,10.);
#165=VECTOR('',#542,1.45);
#166=VECTOR('',#549,1.45);
#167=VECTOR('',#556,1.45);
#168=VECTOR('',#563,1.45);
#169=VECTOR('',#568,10.);
#170=VECTOR('',#569,10.);
#171=VECTOR('',#570,10.);
#172=VECTOR('',#571,10.);
#173=VECTOR('',#574,10.);
#174=VECTOR('',#575,10.);
#175=VECTOR('',#576,10.);
#176=VECTOR('',#579,10.);
#177=VECTOR('',#580,10.);
#178=VECTOR('',#581,10.);
#179=VECTOR('',#584,10.);
#180=VECTOR('',#585,10.);
#181=VECTOR('',#588,10.);
#182=VECTOR('',#589,10.);
#183=VECTOR('',#590,10.);
#184=VECTOR('',#591,10.);
#185=VECTOR('',#594,10.);
#186=VECTOR('',#595,10.);
#187=VECTOR('',#596,10.);
#188=VECTOR('',#599,10.);
#189=VECTOR('',#600,10.);
#190=VECTOR('',#601,10.);
#191=VECTOR('',#604,10.);
#192=VECTOR('',#605,10.);
#193=VECTOR('',#612,10.);
#194=VECTOR('',#613,10.);
#195=VECTOR('',#614,10.);
#196=VECTOR('',#615,10.);
#197=VECTOR('',#618,10.);
#198=VECTOR('',#619,10.);
#199=VECTOR('',#620,10.);
#200=VECTOR('',#623,10.);
#201=VECTOR('',#624,10.);
#202=VECTOR('',#625,10.);
#203=VECTOR('',#628,10.);
#204=VECTOR('',#629,10.);
#205=VERTEX_POINT('',#636);
#206=VERTEX_POINT('',#637);
#207=VERTEX_POINT('',#639);
#208=VERTEX_POINT('',#641);
#209=VERTEX_POINT('',#645);
#210=VERTEX_POINT('',#647);
#211=VERTEX_POINT('',#651);
#212=VERTEX_POINT('',#653);
#213=VERTEX_POINT('',#660);
#214=VERTEX_POINT('',#662);
#215=VERTEX_POINT('',#666);
#216=VERTEX_POINT('',#668);
#217=VERTEX_POINT('',#672);
#218=VERTEX_POINT('',#674);
#219=VERTEX_POINT('',#678);
#220=VERTEX_POINT('',#680);
#221=VERTEX_POINT('',#684);
#222=VERTEX_POINT('',#685);
#223=VERTEX_POINT('',#687);
#224=VERTEX_POINT('',#689);
#225=VERTEX_POINT('',#693);
#226=VERTEX_POINT('',#695);
#227=VERTEX_POINT('',#699);
#228=VERTEX_POINT('',#701);
#229=VERTEX_POINT('',#708);
#230=VERTEX_POINT('',#709);
#231=VERTEX_POINT('',#711);
#232=VERTEX_POINT('',#713);
#233=VERTEX_POINT('',#717);
#234=VERTEX_POINT('',#719);
#235=VERTEX_POINT('',#723);
#236=VERTEX_POINT('',#725);
#237=VERTEX_POINT('',#734);
#238=VERTEX_POINT('',#735);
#239=VERTEX_POINT('',#737);
#240=VERTEX_POINT('',#739);
#241=VERTEX_POINT('',#743);
#242=VERTEX_POINT('',#745);
#243=VERTEX_POINT('',#749);
#244=VERTEX_POINT('',#751);
#245=EDGE_CURVE('',#205,#206,#101,.T.);
#246=EDGE_CURVE('',#205,#207,#102,.T.);
#247=EDGE_CURVE('',#208,#207,#103,.T.);
#248=EDGE_CURVE('',#206,#208,#104,.T.);
#249=EDGE_CURVE('',#206,#209,#105,.T.);
#250=EDGE_CURVE('',#210,#208,#106,.T.);
#251=EDGE_CURVE('',#209,#210,#107,.T.);
#252=EDGE_CURVE('',#209,#211,#108,.T.);
#253=EDGE_CURVE('',#212,#210,#109,.T.);
#254=EDGE_CURVE('',#212,#211,#110,.T.);
#255=EDGE_CURVE('',#211,#205,#111,.T.);
#256=EDGE_CURVE('',#207,#212,#112,.T.);
#257=EDGE_CURVE('',#213,#213,#29,.T.);
#258=EDGE_CURVE('',#213,#214,#113,.T.);
#259=EDGE_CURVE('',#214,#214,#30,.T.);
#260=EDGE_CURVE('',#215,#215,#31,.T.);
#261=EDGE_CURVE('',#215,#216,#114,.T.);
#262=EDGE_CURVE('',#216,#216,#32,.T.);
#263=EDGE_CURVE('',#217,#217,#33,.T.);
#264=EDGE_CURVE('',#217,#218,#115,.T.);
#265=EDGE_CURVE('',#218,#218,#34,.T.);
#266=EDGE_CURVE('',#219,#219,#35,.T.);
#267=EDGE_CURVE('',#219,#220,#116,.T.);
#268=EDGE_CURVE('',#220,#220,#36,.T.);
#269=EDGE_CURVE('',#221,#222,#117,.T.);
#270=EDGE_CURVE('',#222,#223,#118,.T.);
#271=EDGE_CURVE('',#224,#223,#119,.T.);
#272=EDGE_CURVE('',#221,#224,#120,.T.);
#273=EDGE_CURVE('',#225,#221,#121,.T.);
#274=EDGE_CURVE('',#226,#224,#122,.T.);
#275=EDGE_CURVE('',#225,#226,#123,.T.);
#276=EDGE_CURVE('',#227,#225,#124,.T.);
#277=EDGE_CURVE('',#228,#226,#125,.T.);
#278=EDGE_CURVE('',#227,#228,#126,.T.);
#279=EDGE_CURVE('',#222,#227,#127,.T.);
#280=EDGE_CURVE('',#223,#228,#128,.T.);
#281=EDGE_CURVE('',#229,#230,#129,.T.);
#282=EDGE_CURVE('',#229,#231,#130,.T.);
#283=EDGE_CURVE('',#232,#231,#131,.T.);
#284=EDGE_CURVE('',#230,#232,#132,.T.);
#285=EDGE_CURVE('',#230,#233,#133,.T.);
#286=EDGE_CURVE('',#234,#232,#134,.T.);
#287=EDGE_CURVE('',#233,#234,#135,.T.);
#288=EDGE_CURVE('',#233,#235,#136,.T.);
#289=EDGE_CURVE('',#236,#234,#137,.T.);
#290=EDGE_CURVE('',#235,#236,#138,.T.);
#291=EDGE_CURVE('',#235,#229,#139,.T.);
#292=EDGE_CURVE('',#231,#236,#140,.T.);
#293=EDGE_CURVE('',#237,#238,#141,.T.);
#294=EDGE_CURVE('',#237,#239,#142,.T.);
#295=EDGE_CURVE('',#240,#239,#143,.T.);
#296=EDGE_CURVE('',#238,#240,#144,.T.);
#297=EDGE_CURVE('',#238,#241,#145,.T.);
#298=EDGE_CURVE('',#242,#240,#146,.T.);
#299=EDGE_CURVE('',#241,#242,#147,.T.);
#300=EDGE_CURVE('',#241,#243,#148,.T.);
#301=EDGE_CURVE('',#244,#242,#149,.T.);
#302=EDGE_CURVE('',#243,#244,#150,.T.);
#303=EDGE_CURVE('',#243,#237,#151,.T.);
#304=EDGE_CURVE('',#239,#244,#152,.T.);
#305=ORIENTED_EDGE('',*,*,#245,.F.);
#306=ORIENTED_EDGE('',*,*,#246,.T.);
#307=ORIENTED_EDGE('',*,*,#247,.F.);
#308=ORIENTED_EDGE('',*,*,#248,.F.);
#309=ORIENTED_EDGE('',*,*,#249,.F.);
#310=ORIENTED_EDGE('',*,*,#248,.T.);
#311=ORIENTED_EDGE('',*,*,#250,.F.);
#312=ORIENTED_EDGE('',*,*,#251,.F.);
#313=ORIENTED_EDGE('',*,*,#252,.F.);
#314=ORIENTED_EDGE('',*,*,#251,.T.);
#315=ORIENTED_EDGE('',*,*,#253,.F.);
#316=ORIENTED_EDGE('',*,*,#254,.T.);
#317=ORIENTED_EDGE('',*,*,#255,.F.);
#318=ORIENTED_EDGE('',*,*,#254,.F.);
#319=ORIENTED_EDGE('',*,*,#256,.F.);
#320=ORIENTED_EDGE('',*,*,#246,.F.);
#321=ORIENTED_EDGE('',*,*,#257,.F.);
#322=ORIENTED_EDGE('',*,*,#258,.T.);
#323=ORIENTED_EDGE('',*,*,#259,.T.);
#324=ORIENTED_EDGE('',*,*,#258,.F.);
#325=ORIENTED_EDGE('',*,*,#260,.F.);
#326=ORIENTED_EDGE('',*,*,#261,.T.);
#327=ORIENTED_EDGE('',*,*,#262,.T.);
#328=ORIENTED_EDGE('',*,*,#261,.F.);
#329=ORIENTED_EDGE('',*,*,#263,.F.);
#330=ORIENTED_EDGE('',*,*,#264,.T.);
#331=ORIENTED_EDGE('',*,*,#265,.T.);
#332=ORIENTED_EDGE('',*,*,#264,.F.);
#333=ORIENTED_EDGE('',*,*,#266,.F.);
#334=ORIENTED_EDGE('',*,*,#267,.T.);
#335=ORIENTED_EDGE('',*,*,#268,.T.);
#336=ORIENTED_EDGE('',*,*,#267,.F.);
#337=ORIENTED_EDGE('',*,*,#269,.T.);
#338=ORIENTED_EDGE('',*,*,#270,.T.);
#339=ORIENTED_EDGE('',*,*,#271,.F.);
#340=ORIENTED_EDGE('',*,*,#272,.F.);
#341=ORIENTED_EDGE('',*,*,#273,.T.);
#342=ORIENTED_EDGE('',*,*,#272,.T.);
#343=ORIENTED_EDGE('',*,*,#274,.F.);
#344=ORIENTED_EDGE('',*,*,#275,.F.);
#345=ORIENTED_EDGE('',*,*,#252,.T.);
#346=ORIENTED_EDGE('',*,*,#255,.T.);
#347=ORIENTED_EDGE('',*,*,#245,.T.);
#348=ORIENTED_EDGE('',*,*,#249,.T.);
#349=ORIENTED_EDGE('',*,*,#276,.T.);
#350=ORIENTED_EDGE('',*,*,#275,.T.);
#351=ORIENTED_EDGE('',*,*,#277,.F.);
#352=ORIENTED_EDGE('',*,*,#278,.F.);
#353=ORIENTED_EDGE('',*,*,#279,.T.);
#354=ORIENTED_EDGE('',*,*,#278,.T.);
#355=ORIENTED_EDGE('',*,*,#280,.F.);
#356=ORIENTED_EDGE('',*,*,#270,.F.);
#357=ORIENTED_EDGE('',*,*,#281,.F.);
#358=ORIENTED_EDGE('',*,*,#282,.T.);
#359=ORIENTED_EDGE('',*,*,#283,.F.);
#360=ORIENTED_EDGE('',*,*,#284,.F.);
#361=ORIENTED_EDGE('',*,*,#285,.F.);
#362=ORIENTED_EDGE('',*,*,#284,.T.);
#363=ORIENTED_EDGE('',*,*,#286,.F.);
#364=ORIENTED_EDGE('',*,*,#287,.F.);
#365=ORIENTED_EDGE('',*,*,#253,.T.);
#366=ORIENTED_EDGE('',*,*,#250,.T.);
#367=ORIENTED_EDGE('',*,*,#247,.T.);
#368=ORIENTED_EDGE('',*,*,#256,.T.);
#369=ORIENTED_EDGE('',*,*,#288,.F.);
#370=ORIENTED_EDGE('',*,*,#287,.T.);
#371=ORIENTED_EDGE('',*,*,#289,.F.);
#372=ORIENTED_EDGE('',*,*,#290,.F.);
#373=ORIENTED_EDGE('',*,*,#291,.F.);
#374=ORIENTED_EDGE('',*,*,#290,.T.);
#375=ORIENTED_EDGE('',*,*,#292,.F.);
#376=ORIENTED_EDGE('',*,*,#282,.F.);
#377=ORIENTED_EDGE('',*,*,#292,.T.);
#378=ORIENTED_EDGE('',*,*,#289,.T.);
#379=ORIENTED_EDGE('',*,*,#286,.T.);
#380=ORIENTED_EDGE('',*,*,#283,.T.);
#381=ORIENTED_EDGE('',*,*,#280,.T.);
#382=ORIENTED_EDGE('',*,*,#277,.T.);
#383=ORIENTED_EDGE('',*,*,#274,.T.);
#384=ORIENTED_EDGE('',*,*,#271,.T.);
#385=ORIENTED_EDGE('',*,*,#266,.T.);
#386=ORIENTED_EDGE('',*,*,#263,.T.);
#387=ORIENTED_EDGE('',*,*,#260,.T.);
#388=ORIENTED_EDGE('',*,*,#257,.T.);
#389=ORIENTED_EDGE('',*,*,#291,.T.);
#390=ORIENTED_EDGE('',*,*,#281,.T.);
#391=ORIENTED_EDGE('',*,*,#285,.T.);
#392=ORIENTED_EDGE('',*,*,#288,.T.);
#393=ORIENTED_EDGE('',*,*,#279,.F.);
#394=ORIENTED_EDGE('',*,*,#269,.F.);
#395=ORIENTED_EDGE('',*,*,#273,.F.);
#396=ORIENTED_EDGE('',*,*,#276,.F.);
#397=ORIENTED_EDGE('',*,*,#268,.F.);
#398=ORIENTED_EDGE('',*,*,#265,.F.);
#399=ORIENTED_EDGE('',*,*,#262,.F.);
#400=ORIENTED_EDGE('',*,*,#259,.F.);
#401=ORIENTED_EDGE('',*,*,#293,.F.);
#402=ORIENTED_EDGE('',*,*,#294,.T.);
#403=ORIENTED_EDGE('',*,*,#295,.F.);
#404=ORIENTED_EDGE('',*,*,#296,.F.);
#405=ORIENTED_EDGE('',*,*,#297,.F.);
#406=ORIENTED_EDGE('',*,*,#296,.T.);
#407=ORIENTED_EDGE('',*,*,#298,.F.);
#408=ORIENTED_EDGE('',*,*,#299,.F.);
#409=ORIENTED_EDGE('',*,*,#300,.F.);
#410=ORIENTED_EDGE('',*,*,#299,.T.);
#411=ORIENTED_EDGE('',*,*,#301,.F.);
#412=ORIENTED_EDGE('',*,*,#302,.F.);
#413=ORIENTED_EDGE('',*,*,#303,.F.);
#414=ORIENTED_EDGE('',*,*,#302,.T.);
#415=ORIENTED_EDGE('',*,*,#304,.F.);
#416=ORIENTED_EDGE('',*,*,#294,.F.);
#417=ORIENTED_EDGE('',*,*,#304,.T.);
#418=ORIENTED_EDGE('',*,*,#301,.T.);
#419=ORIENTED_EDGE('',*,*,#298,.T.);
#420=ORIENTED_EDGE('',*,*,#295,.T.);
#421=ORIENTED_EDGE('',*,*,#303,.T.);
#422=ORIENTED_EDGE('',*,*,#293,.T.);
#423=ORIENTED_EDGE('',*,*,#297,.T.);
#424=ORIENTED_EDGE('',*,*,#300,.T.);
#425=PLANE('',#484);
#426=PLANE('',#485);
#427=PLANE('',#486);
#428=PLANE('',#487);
#429=PLANE('',#500);
#430=PLANE('',#501);
#431=PLANE('',#502);
#432=PLANE('',#503);
#433=PLANE('',#504);
#434=PLANE('',#505);
#435=PLANE('',#506);
#436=PLANE('',#507);
#437=PLANE('',#508);
#438=PLANE('',#509);
#439=PLANE('',#510);
#440=PLANE('',#511);
#441=PLANE('',#512);
#442=PLANE('',#513);
#443=PLANE('',#514);
#444=PLANE('',#515);
#445=ADVANCED_FACE('',(#41),#425,.F.);
#446=ADVANCED_FACE('',(#42),#426,.F.);
#447=ADVANCED_FACE('',(#43),#427,.F.);
#448=ADVANCED_FACE('',(#44),#428,.F.);
#449=ADVANCED_FACE('',(#45),#37,.F.);
#450=ADVANCED_FACE('',(#46),#38,.F.);
#451=ADVANCED_FACE('',(#47),#39,.F.);
#452=ADVANCED_FACE('',(#48),#40,.F.);
#453=ADVANCED_FACE('',(#49),#429,.T.);
#454=ADVANCED_FACE('',(#50,#17),#430,.T.);
#455=ADVANCED_FACE('',(#51),#431,.T.);
#456=ADVANCED_FACE('',(#52),#432,.T.);
#457=ADVANCED_FACE('',(#53),#433,.T.);
#458=ADVANCED_FACE('',(#54,#18),#434,.T.);
#459=ADVANCED_FACE('',(#55),#435,.T.);
#460=ADVANCED_FACE('',(#56),#436,.T.);
#461=ADVANCED_FACE('',(#57,#19,#20,#21,#22,#23),#437,.T.);
#462=ADVANCED_FACE('',(#58,#24,#25,#26,#27,#28),#438,.F.);
#463=ADVANCED_FACE('',(#59),#439,.T.);
#464=ADVANCED_FACE('',(#60),#440,.T.);
#465=ADVANCED_FACE('',(#61),#441,.T.);
#466=ADVANCED_FACE('',(#62),#442,.T.);
#467=ADVANCED_FACE('',(#63),#443,.T.);
#468=ADVANCED_FACE('',(#64),#444,.F.);
#469=CLOSED_SHELL('',(#445,#446,#447,#448,#449,#450,#451,#452,#453,#454,
#455,#456,#457,#458,#459,#460,#461,#462));
#470=CLOSED_SHELL('',(#463,#464,#465,#466,#467,#468));
#471=DERIVED_UNIT_ELEMENT(#473,1.);
#472=DERIVED_UNIT_ELEMENT(#764,-3.);
#473=(
MASS_UNIT()
NAMED_UNIT(*)
SI_UNIT(.KILO.,.GRAM.)
);
#474=DERIVED_UNIT((#471,#472));
#475=MEASURE_REPRESENTATION_ITEM('density measure',
POSITIVE_RATIO_MEASURE(7850.),#474);
#476=PROPERTY_DEFINITION_REPRESENTATION(#481,#478);
#477=PROPERTY_DEFINITION_REPRESENTATION(#482,#479);
#478=REPRESENTATION('material name',(#480),#761);
#479=REPRESENTATION('density',(#475),#761);
#480=DESCRIPTIVE_REPRESENTATION_ITEM('Steel','Steel');
#481=PROPERTY_DEFINITION('material property','material name',#771);
#482=PROPERTY_DEFINITION('material property','density of part',#771);
#483=AXIS2_PLACEMENT_3D('',#634,#516,#517);
#484=AXIS2_PLACEMENT_3D('',#635,#518,#519);
#485=AXIS2_PLACEMENT_3D('',#644,#524,#525);
#486=AXIS2_PLACEMENT_3D('',#650,#529,#530);
#487=AXIS2_PLACEMENT_3D('',#656,#534,#535);
#488=AXIS2_PLACEMENT_3D('',#659,#538,#539);
#489=AXIS2_PLACEMENT_3D('',#661,#540,#541);
#490=AXIS2_PLACEMENT_3D('',#664,#543,#544);
#491=AXIS2_PLACEMENT_3D('',#665,#545,#546);
#492=AXIS2_PLACEMENT_3D('',#667,#547,#548);
#493=AXIS2_PLACEMENT_3D('',#670,#550,#551);
#494=AXIS2_PLACEMENT_3D('',#671,#552,#553);
#495=AXIS2_PLACEMENT_3D('',#673,#554,#555);
#496=AXIS2_PLACEMENT_3D('',#676,#557,#558);
#497=AXIS2_PLACEMENT_3D('',#677,#559,#560);
#498=AXIS2_PLACEMENT_3D('',#679,#561,#562);
#499=AXIS2_PLACEMENT_3D('',#682,#564,#565);
#500=AXIS2_PLACEMENT_3D('',#683,#566,#567);
#501=AXIS2_PLACEMENT_3D('',#692,#572,#573);
#502=AXIS2_PLACEMENT_3D('',#698,#577,#578);
#503=AXIS2_PLACEMENT_3D('',#704,#582,#583);
#504=AXIS2_PLACEMENT_3D('',#707,#586,#587);
#505=AXIS2_PLACEMENT_3D('',#716,#592,#593);
#506=AXIS2_PLACEMENT_3D('',#722,#597,#598);
#507=AXIS2_PLACEMENT_3D('',#728,#602,#603);
#508=AXIS2_PLACEMENT_3D('',#731,#606,#607);
#509=AXIS2_PLACEMENT_3D('',#732,#608,#609);
#510=AXIS2_PLACEMENT_3D('',#733,#610,#611);
#511=AXIS2_PLACEMENT_3D('',#742,#616,#617);
#512=AXIS2_PLACEMENT_3D('',#748,#621,#622);
#513=AXIS2_PLACEMENT_3D('',#754,#626,#627);
#514=AXIS2_PLACEMENT_3D('',#757,#630,#631);
#515=AXIS2_PLACEMENT_3D('',#758,#632,#633);
#516=DIRECTION('axis',(0.,0.,1.));
#517=DIRECTION('refdir',(1.,0.,0.));
#518=DIRECTION('center_axis',(-1.,0.,0.));
#519=DIRECTION('ref_axis',(0.,1.,0.));
#520=DIRECTION('',(0.,1.,0.));
#521=DIRECTION('',(0.,0.,-1.));
#522=DIRECTION('',(0.,-1.,0.));
#523=DIRECTION('',(0.,0.,-1.));
#524=DIRECTION('center_axis',(0.,1.,0.));
#525=DIRECTION('ref_axis',(1.,0.,0.));
#526=DIRECTION('',(1.,0.,0.));
#527=DIRECTION('',(-1.,0.,0.));
#528=DIRECTION('',(0.,0.,-1.));
#529=DIRECTION('center_axis',(1.,0.,0.));
#530=DIRECTION('ref_axis',(0.,-1.,0.));
#531=DIRECTION('',(0.,-1.,0.));
#532=DIRECTION('',(0.,1.,0.));
#533=DIRECTION('',(0.,0.,1.));
#534=DIRECTION('center_axis',(0.,-1.,0.));
#535=DIRECTION('ref_axis',(-1.,0.,0.));
#536=DIRECTION('',(-1.,0.,0.));
#537=DIRECTION('',(1.,0.,0.));
#538=DIRECTION('center_axis',(0.,1.,0.));
#539=DIRECTION('ref_axis',(1.,0.,0.));
#540=DIRECTION('center_axis',(0.,-1.,0.));
#541=DIRECTION('ref_axis',(1.,0.,0.));
#542=DIRECTION('',(0.,-1.,0.));
#543=DIRECTION('center_axis',(0.,-1.,0.));
#544=DIRECTION('ref_axis',(1.,0.,0.));
#545=DIRECTION('center_axis',(0.,1.,0.));
#546=DIRECTION('ref_axis',(1.,0.,0.));
#547=DIRECTION('center_axis',(0.,-1.,0.));
#548=DIRECTION('ref_axis',(1.,0.,0.));
#549=DIRECTION('',(0.,-1.,0.));
#550=DIRECTION('center_axis',(0.,-1.,0.));
#551=DIRECTION('ref_axis',(1.,0.,0.));
#552=DIRECTION('center_axis',(0.,1.,0.));
#553=DIRECTION('ref_axis',(1.,0.,0.));
#554=DIRECTION('center_axis',(0.,-1.,0.));
#555=DIRECTION('ref_axis',(1.,0.,0.));
#556=DIRECTION('',(0.,-1.,0.));
#557=DIRECTION('center_axis',(0.,-1.,0.));
#558=DIRECTION('ref_axis',(1.,0.,0.));
#559=DIRECTION('center_axis',(0.,1.,0.));
#560=DIRECTION('ref_axis',(1.,0.,0.));
#561=DIRECTION('center_axis',(0.,-1.,0.));
#562=DIRECTION('ref_axis',(1.,0.,0.));
#563=DIRECTION('',(0.,-1.,0.));
#564=DIRECTION('center_axis',(0.,-1.,0.));
#565=DIRECTION('ref_axis',(1.,0.,0.));
#566=DIRECTION('center_axis',(-1.,0.,0.));
#567=DIRECTION('ref_axis',(0.,0.,1.));
#568=DIRECTION('',(0.,0.,1.));
#569=DIRECTION('',(0.,1.,0.));
#570=DIRECTION('',(0.,0.,1.));
#571=DIRECTION('',(0.,1.,0.));
#572=DIRECTION('center_axis',(0.,0.,1.));
#573=DIRECTION('ref_axis',(1.,0.,0.));
#574=DIRECTION('',(1.,0.,0.));
#575=DIRECTION('',(1.,0.,0.));
#576=DIRECTION('',(0.,1.,0.));
#577=DIRECTION('center_axis',(1.,0.,0.));
#578=DIRECTION('ref_axis',(0.,0.,-1.));
#579=DIRECTION('',(0.,0.,-1.));
#580=DIRECTION('',(0.,0.,-1.));
#581=DIRECTION('',(0.,1.,0.));
#582=DIRECTION('center_axis',(0.,0.,-1.));
#583=DIRECTION('ref_axis',(-1.,0.,0.));
#584=DIRECTION('',(-1.,0.,0.));
#585=DIRECTION('',(-1.,0.,0.));
#586=DIRECTION('center_axis',(-1.,0.,0.));
#587=DIRECTION('ref_axis',(0.,0.,1.));
#588=DIRECTION('',(0.,0.,-1.));
#589=DIRECTION('',(0.,1.,0.));
#590=DIRECTION('',(0.,0.,1.));
#591=DIRECTION('',(0.,1.,0.));
#592=DIRECTION('center_axis',(0.,0.,-1.));
#593=DIRECTION('ref_axis',(-1.,0.,0.));
#594=DIRECTION('',(1.,0.,0.));
#595=DIRECTION('',(-1.,0.,0.));
#596=DIRECTION('',(0.,1.,0.));
#597=DIRECTION('center_axis',(1.,0.,0.));
#598=DIRECTION('ref_axis',(0.,0.,-1.));
#599=DIRECTION('',(0.,0.,1.));
#600=DIRECTION('',(0.,0.,-1.));
#601=DIRECTION('',(0.,1.,0.));
#602=DIRECTION('center_axis',(0.,0.,1.));
#603=DIRECTION('ref_axis',(1.,0.,0.));
#604=DIRECTION('',(-1.,0.,0.));
#605=DIRECTION('',(1.,0.,0.));
#606=DIRECTION('center_axis',(0.,1.,0.));
#607=DIRECTION('ref_axis',(1.,0.,0.));
#608=DIRECTION('center_axis',(0.,1.,0.));
#609=DIRECTION('ref_axis',(1.,0.,0.));
#610=DIRECTION('center_axis',(-1.,0.,0.));
#611=DIRECTION('ref_axis',(0.,0.,1.));
#612=DIRECTION('',(0.,0.,-1.));
#613=DIRECTION('',(0.,1.,0.));
#614=DIRECTION('',(0.,0.,1.));
#615=DIRECTION('',(0.,1.,0.));
#616=DIRECTION('center_axis',(0.,0.,-1.));
#617=DIRECTION('ref_axis',(-1.,0.,0.));
#618=DIRECTION('',(1.,0.,0.));
#619=DIRECTION('',(-1.,0.,0.));
#620=DIRECTION('',(0.,1.,0.));
#621=DIRECTION('center_axis',(1.,0.,0.));
#622=DIRECTION('ref_axis',(0.,0.,-1.));
#623=DIRECTION('',(0.,0.,1.));
#624=DIRECTION('',(0.,0.,-1.));
#625=DIRECTION('',(0.,1.,0.));
#626=DIRECTION('center_axis',(0.,0.,1.));
#627=DIRECTION('ref_axis',(1.,0.,0.));
#628=DIRECTION('',(-1.,0.,0.));
#629=DIRECTION('',(1.,0.,0.));
#630=DIRECTION('center_axis',(0.,1.,0.));
#631=DIRECTION('ref_axis',(0.,0.,1.));
#632=DIRECTION('center_axis',(0.,1.,0.));
#633=DIRECTION('ref_axis',(1.,0.,0.));
#634=CARTESIAN_POINT('',(0.,0.,0.));
#635=CARTESIAN_POINT('Origin',(25.8057934071586,10.,-113.408060626785));
#636=CARTESIAN_POINT('',(25.8057934071586,10.,-103.408060626785));
#637=CARTESIAN_POINT('',(25.8057934071586,14.,-103.408060626785));
#638=CARTESIAN_POINT('',(25.8057934071586,5.,-103.408060626785));
#639=CARTESIAN_POINT('',(25.8057934071586,10.,-113.408060626785));
#640=CARTESIAN_POINT('',(25.8057934071586,10.,-113.408060626785));
#641=CARTESIAN_POINT('',(25.8057934071586,14.,-113.408060626785));
#642=CARTESIAN_POINT('',(25.8057934071586,5.,-113.408060626785));
#643=CARTESIAN_POINT('',(25.8057934071586,14.,-113.408060626785));
#644=CARTESIAN_POINT('Origin',(25.8057934071586,14.,-113.408060626785));
#645=CARTESIAN_POINT('',(35.3557934071586,14.,-103.408060626785));
#646=CARTESIAN_POINT('',(11.2557934071586,14.,-103.408060626785));
#647=CARTESIAN_POINT('',(35.3557934071586,14.,-113.408060626785));
#648=CARTESIAN_POINT('',(48.9557934071586,14.,-113.408060626785));
#649=CARTESIAN_POINT('',(35.3557934071586,14.,-113.408060626785));
#650=CARTESIAN_POINT('Origin',(35.3557934071586,14.,-113.408060626785));
#651=CARTESIAN_POINT('',(35.3557934071586,10.,-103.408060626785));
#652=CARTESIAN_POINT('',(35.3557934071586,7.,-103.408060626785));
#653=CARTESIAN_POINT('',(35.3557934071586,10.,-113.408060626785));
#654=CARTESIAN_POINT('',(35.3557934071586,7.,-113.408060626785));
#655=CARTESIAN_POINT('',(35.3557934071586,10.,-113.408060626785));
#656=CARTESIAN_POINT('Origin',(35.3557934071586,10.,-113.408060626785));
#657=CARTESIAN_POINT('',(16.0307934071586,10.,-103.408060626785));
#658=CARTESIAN_POINT('',(53.7307934071586,10.,-113.408060626785));
#659=CARTESIAN_POINT('Origin',(-8.29420659284143,0.,0.991939373215001));
#660=CARTESIAN_POINT('',(-9.74420659284142,15.,0.991939373215001));
#661=CARTESIAN_POINT('Origin',(-8.29420659284143,15.,0.991939373215001));
#662=CARTESIAN_POINT('',(-9.74420659284143,0.,0.991939373215001));
#663=CARTESIAN_POINT('',(-9.74420659284143,0.,0.991939373215001));
#664=CARTESIAN_POINT('Origin',(-8.29420659284143,0.,0.991939373215001));
#665=CARTESIAN_POINT('Origin',(67.1057934071586,0.,-108.408060626785));
#666=CARTESIAN_POINT('',(65.6557934071586,15.,-108.408060626785));
#667=CARTESIAN_POINT('Origin',(67.1057934071586,15.,-108.408060626785));
#668=CARTESIAN_POINT('',(65.6557934071586,0.,-108.408060626785));
#669=CARTESIAN_POINT('',(65.6557934071586,0.,-108.408060626785));
#670=CARTESIAN_POINT('Origin',(67.1057934071586,0.,-108.408060626785));
#671=CARTESIAN_POINT('Origin',(-8.29420659284143,0.,-108.408060626785));
#672=CARTESIAN_POINT('',(-9.74420659284142,15.,-108.408060626785));
#673=CARTESIAN_POINT('Origin',(-8.29420659284143,15.,-108.408060626785));
#674=CARTESIAN_POINT('',(-9.74420659284143,0.,-108.408060626785));
#675=CARTESIAN_POINT('',(-9.74420659284143,0.,-108.408060626785));
#676=CARTESIAN_POINT('Origin',(-8.29420659284143,0.,-108.408060626785));
#677=CARTESIAN_POINT('Origin',(67.1057934071586,0.,0.991939373215001));
#678=CARTESIAN_POINT('',(65.6557934071586,15.,0.991939373215001));
#679=CARTESIAN_POINT('Origin',(67.1057934071586,15.,0.991939373215001));
#680=CARTESIAN_POINT('',(65.6557934071586,0.,0.991939373215001));
#681=CARTESIAN_POINT('',(65.6557934071586,0.,0.991939373215001));
#682=CARTESIAN_POINT('Origin',(67.1057934071586,0.,0.991939373215001));
#683=CARTESIAN_POINT('Origin',(62.1057934071586,0.,-103.408060626785));
#684=CARTESIAN_POINT('',(62.1057934071586,0.,-103.408060626785));
#685=CARTESIAN_POINT('',(62.1057934071586,0.,-4.008060626785));
#686=CARTESIAN_POINT('',(62.1057934071586,0.,-103.408060626785));
#687=CARTESIAN_POINT('',(62.1057934071586,15.,-4.008060626785));
#688=CARTESIAN_POINT('',(62.1057934071586,0.,-4.008060626785));
#689=CARTESIAN_POINT('',(62.1057934071586,15.,-103.408060626785));
#690=CARTESIAN_POINT('',(62.1057934071586,15.,-103.408060626785));
#691=CARTESIAN_POINT('',(62.1057934071586,0.,-103.408060626785));
#692=CARTESIAN_POINT('Origin',(-3.29420659284143,0.,-103.408060626785));
#693=CARTESIAN_POINT('',(-3.29420659284143,0.,-103.408060626785));
#694=CARTESIAN_POINT('',(-3.29420659284143,0.,-103.408060626785));
#695=CARTESIAN_POINT('',(-3.29420659284143,15.,-103.408060626785));
#696=CARTESIAN_POINT('',(-3.29420659284143,15.,-103.408060626785));
#697=CARTESIAN_POINT('',(-3.29420659284143,0.,-103.408060626785));
#698=CARTESIAN_POINT('Origin',(-3.29420659284143,0.,-4.008060626785));
#699=CARTESIAN_POINT('',(-3.29420659284143,0.,-4.008060626785));
#700=CARTESIAN_POINT('',(-3.29420659284143,0.,-4.008060626785));
#701=CARTESIAN_POINT('',(-3.29420659284143,15.,-4.008060626785));
#702=CARTESIAN_POINT('',(-3.29420659284143,15.,-4.008060626785));
#703=CARTESIAN_POINT('',(-3.29420659284143,0.,-4.008060626785));
#704=CARTESIAN_POINT('Origin',(62.1057934071586,0.,-4.008060626785));
#705=CARTESIAN_POINT('',(62.1057934071586,0.,-4.008060626785));
#706=CARTESIAN_POINT('',(62.1057934071586,15.,-4.008060626785));
#707=CARTESIAN_POINT('Origin',(-13.2942065928414,0.,-113.408060626785));
#708=CARTESIAN_POINT('',(-13.2942065928414,0.,5.991939373215));
#709=CARTESIAN_POINT('',(-13.2942065928414,0.,-113.408060626785));
#710=CARTESIAN_POINT('',(-13.2942065928414,0.,5.991939373215));
#711=CARTESIAN_POINT('',(-13.2942065928414,15.,5.991939373215));
#712=CARTESIAN_POINT('',(-13.2942065928414,0.,5.991939373215));
#713=CARTESIAN_POINT('',(-13.2942065928414,15.,-113.408060626785));
#714=CARTESIAN_POINT('',(-13.2942065928414,15.,5.991939373215));
#715=CARTESIAN_POINT('',(-13.2942065928414,0.,-113.408060626785));
#716=CARTESIAN_POINT('Origin',(72.1057934071586,0.,-113.408060626785));
#717=CARTESIAN_POINT('',(72.1057934071586,0.,-113.408060626785));
#718=CARTESIAN_POINT('',(-13.2942065928414,0.,-113.408060626785));
#719=CARTESIAN_POINT('',(72.1057934071586,15.,-113.408060626785));
#720=CARTESIAN_POINT('',(-13.2942065928414,15.,-113.408060626785));
#721=CARTESIAN_POINT('',(72.1057934071586,0.,-113.408060626785));
#722=CARTESIAN_POINT('Origin',(72.1057934071586,0.,5.991939373215));
#723=CARTESIAN_POINT('',(72.1057934071586,0.,5.991939373215));
#724=CARTESIAN_POINT('',(72.1057934071586,0.,-113.408060626785));
#725=CARTESIAN_POINT('',(72.1057934071586,15.,5.991939373215));
#726=CARTESIAN_POINT('',(72.1057934071586,15.,-113.408060626785));
#727=CARTESIAN_POINT('',(72.1057934071586,0.,5.991939373215));
#728=CARTESIAN_POINT('Origin',(-13.2942065928414,0.,5.991939373215));
#729=CARTESIAN_POINT('',(72.1057934071586,0.,5.991939373215));
#730=CARTESIAN_POINT('',(72.1057934071586,15.,5.991939373215));
#731=CARTESIAN_POINT('Origin',(29.4057934071586,15.,-53.708060626785));
#732=CARTESIAN_POINT('Origin',(29.4057934071586,0.,-53.708060626785));
#733=CARTESIAN_POINT('Origin',(-3.29420659284143,0.,-103.408060626785));
#734=CARTESIAN_POINT('',(-3.29420659284143,0.,-4.008060626785));
#735=CARTESIAN_POINT('',(-3.29420659284143,0.,-103.408060626785));
#736=CARTESIAN_POINT('',(-3.29420659284143,0.,-4.008060626785));
#737=CARTESIAN_POINT('',(-3.29420659284143,3.,-4.008060626785));
#738=CARTESIAN_POINT('',(-3.29420659284143,0.,-4.008060626785));
#739=CARTESIAN_POINT('',(-3.29420659284143,3.,-103.408060626785));
#740=CARTESIAN_POINT('',(-3.29420659284143,3.,-4.008060626785));
#741=CARTESIAN_POINT('',(-3.29420659284143,0.,-103.408060626785));
#742=CARTESIAN_POINT('Origin',(62.1057934071586,0.,-103.408060626785));
#743=CARTESIAN_POINT('',(62.1057934071586,0.,-103.408060626785));
#744=CARTESIAN_POINT('',(-3.29420659284143,0.,-103.408060626785));
#745=CARTESIAN_POINT('',(62.1057934071586,3.,-103.408060626785));
#746=CARTESIAN_POINT('',(-3.29420659284143,3.,-103.408060626785));
#747=CARTESIAN_POINT('',(62.1057934071586,0.,-103.408060626785));
#748=CARTESIAN_POINT('Origin',(62.1057934071586,0.,-4.008060626785));
#749=CARTESIAN_POINT('',(62.1057934071586,0.,-4.008060626785));
#750=CARTESIAN_POINT('',(62.1057934071586,0.,-103.408060626785));
#751=CARTESIAN_POINT('',(62.1057934071586,3.,-4.008060626785));
#752=CARTESIAN_POINT('',(62.1057934071586,3.,-103.408060626785));
#753=CARTESIAN_POINT('',(62.1057934071586,0.,-4.008060626785));
#754=CARTESIAN_POINT('Origin',(-3.29420659284143,0.,-4.008060626785));
#755=CARTESIAN_POINT('',(62.1057934071586,0.,-4.008060626785));
#756=CARTESIAN_POINT('',(62.1057934071586,3.,-4.008060626785));
#757=CARTESIAN_POINT('Origin',(29.4057934071586,3.,-53.708060626785));
#758=CARTESIAN_POINT('Origin',(29.4057934071586,0.,-53.708060626785));
#759=UNCERTAINTY_MEASURE_WITH_UNIT(LENGTH_MEASURE(0.01),#763,
'DISTANCE_ACCURACY_VALUE',
'Maximum model space distance between geometric entities at asserted c
onnectivities');
#760=UNCERTAINTY_MEASURE_WITH_UNIT(LENGTH_MEASURE(0.01),#763,
'DISTANCE_ACCURACY_VALUE',
'Maximum model space distance between geometric entities at asserted c
onnectivities');
#761=(
GEOMETRIC_REPRESENTATION_CONTEXT(3)
GLOBAL_UNCERTAINTY_ASSIGNED_CONTEXT((#759))
GLOBAL_UNIT_ASSIGNED_CONTEXT((#763,#765,#766))
REPRESENTATION_CONTEXT('','3D')
);
#762=(
GEOMETRIC_REPRESENTATION_CONTEXT(3)
GLOBAL_UNCERTAINTY_ASSIGNED_CONTEXT((#760))
GLOBAL_UNIT_ASSIGNED_CONTEXT((#763,#765,#766))
REPRESENTATION_CONTEXT('','3D')
);
#763=(
LENGTH_UNIT()
NAMED_UNIT(*)
SI_UNIT(.MILLI.,.METRE.)
);
#764=(
LENGTH_UNIT()
NAMED_UNIT(*)
SI_UNIT($,.METRE.)
);
#765=(
NAMED_UNIT(*)
PLANE_ANGLE_UNIT()
SI_UNIT($,.RADIAN.)
);
#766=(
NAMED_UNIT(*)
SI_UNIT($,.STERADIAN.)
SOLID_ANGLE_UNIT()
);
#767=SHAPE_DEFINITION_REPRESENTATION(#768,#769);
#768=PRODUCT_DEFINITION_SHAPE('',$,#771);
#769=SHAPE_REPRESENTATION('',(#483),#761);
#770=PRODUCT_DEFINITION_CONTEXT('part definition',#775,'design');
#771=PRODUCT_DEFINITION('(Unsaved)','(Unsaved)',#772,#770);
#772=PRODUCT_DEFINITION_FORMATION('',$,#777);
#773=PRODUCT_RELATED_PRODUCT_CATEGORY('(Unsaved)','(Unsaved)',(#777));
#774=APPLICATION_PROTOCOL_DEFINITION('international standard',
'automotive_design',2009,#775);
#775=APPLICATION_CONTEXT(
'Core Data for Automotive Mechanical Design Process');
#776=PRODUCT_CONTEXT('part definition',#775,'mechanical');
#777=PRODUCT('(Unsaved)','(Unsaved)',$,(#776));
#778=PRESENTATION_STYLE_ASSIGNMENT((#779));
#779=SURFACE_STYLE_USAGE(.BOTH.,#780);
#780=SURFACE_SIDE_STYLE('',(#781));
#781=SURFACE_STYLE_FILL_AREA(#782);
#782=FILL_AREA_STYLE('Steel - Satin',(#783));
#783=FILL_AREA_STYLE_COLOUR('Steel - Satin',#784);
#784=COLOUR_RGB('Steel - Satin',0.627450980392157,0.627450980392157,0.627450980392157);
ENDSEC;
END-ISO-10303-21;
