ISO-10303-21;
HEADER;
/* Generated by software containing ST-Developer
 * from STEP Tools, Inc. (www.steptools.com) 
 */

FILE_DESCRIPTION(
/* description */ (''),
/* implementation_level */ '2;1');

FILE_NAME(
/* name */ 'TOP.step',
/* time_stamp */ '2026-09-07T01:15:18-05:00',
/* author */ (''),
/* organization */ (''),
/* preprocessor_version */ 'ST-DEVELOPER v20.2',
/* originating_system */ 'Autodesk Translation Framework v15.15.0.0',
/* authorisation */ '');

FILE_SCHEMA (('AUTOMOTIVE_DESIGN { 1 0 10303 214 3 1 1 }'));
ENDSEC;

DATA;
#10=MECHANICAL_DESIGN_GEOMETRIC_PRESENTATION_REPRESENTATION('',(#13),#1835);
#11=SHAPE_REPRESENTATION_RELATIONSHIP('SRR','None',#1842,#12);
#12=ADVANCED_BREP_SHAPE_REPRESENTATION('',(#14),#1834);
#13=STYLED_ITEM('',(#1851),#14);
#14=MANIFOLD_SOLID_BREP('Body3',#1167);
#15=FACE_BOUND('',#202,.T.);
#16=FACE_BOUND('',#203,.T.);
#17=FACE_BOUND('',#204,.T.);
#18=FACE_BOUND('',#205,.T.);
#19=FACE_BOUND('',#206,.T.);
#20=FACE_BOUND('',#207,.T.);
#21=FACE_BOUND('',#208,.T.);
#22=FACE_BOUND('',#209,.T.);
#23=FACE_BOUND('',#210,.T.);
#24=FACE_BOUND('',#211,.T.);
#25=FACE_BOUND('',#212,.T.);
#26=FACE_BOUND('',#213,.T.);
#27=FACE_BOUND('',#214,.T.);
#28=FACE_BOUND('',#215,.T.);
#29=FACE_BOUND('',#216,.T.);
#30=FACE_BOUND('',#218,.T.);
#31=FACE_BOUND('',#219,.T.);
#32=FACE_BOUND('',#220,.T.);
#33=FACE_BOUND('',#221,.T.);
#34=FACE_BOUND('',#222,.T.);
#35=FACE_BOUND('',#223,.T.);
#36=FACE_BOUND('',#224,.T.);
#37=FACE_BOUND('',#225,.T.);
#38=FACE_BOUND('',#226,.T.);
#39=FACE_BOUND('',#227,.T.);
#40=FACE_BOUND('',#228,.T.);
#41=FACE_BOUND('',#229,.T.);
#42=FACE_BOUND('',#230,.T.);
#43=FACE_BOUND('',#231,.T.);
#44=FACE_BOUND('',#232,.T.);
#45=PLANE('',#1193);
#46=PLANE('',#1194);
#47=PLANE('',#1195);
#48=PLANE('',#1196);
#49=PLANE('',#1197);
#50=PLANE('',#1198);
#51=PLANE('',#1199);
#52=PLANE('',#1200);
#53=PLANE('',#1201);
#54=PLANE('',#1202);
#55=PLANE('',#1203);
#56=PLANE('',#1204);
#57=PLANE('',#1205);
#58=PLANE('',#1206);
#59=PLANE('',#1207);
#60=PLANE('',#1208);
#61=PLANE('',#1209);
#62=PLANE('',#1210);
#63=PLANE('',#1211);
#64=PLANE('',#1212);
#65=PLANE('',#1213);
#66=PLANE('',#1214);
#67=PLANE('',#1215);
#68=PLANE('',#1216);
#69=PLANE('',#1217);
#70=PLANE('',#1218);
#71=PLANE('',#1219);
#72=PLANE('',#1220);
#73=PLANE('',#1221);
#74=PLANE('',#1222);
#75=PLANE('',#1223);
#76=PLANE('',#1224);
#77=PLANE('',#1225);
#78=PLANE('',#1226);
#79=PLANE('',#1227);
#80=PLANE('',#1228);
#81=PLANE('',#1229);
#82=PLANE('',#1230);
#83=PLANE('',#1231);
#84=PLANE('',#1232);
#85=PLANE('',#1233);
#86=PLANE('',#1234);
#87=PLANE('',#1235);
#88=PLANE('',#1236);
#89=PLANE('',#1237);
#90=PLANE('',#1238);
#91=PLANE('',#1239);
#92=PLANE('',#1240);
#93=PLANE('',#1241);
#94=PLANE('',#1242);
#95=FACE_OUTER_BOUND('',#149,.T.);
#96=FACE_OUTER_BOUND('',#150,.T.);
#97=FACE_OUTER_BOUND('',#151,.T.);
#98=FACE_OUTER_BOUND('',#152,.T.);
#99=FACE_OUTER_BOUND('',#153,.T.);
#100=FACE_OUTER_BOUND('',#154,.T.);
#101=FACE_OUTER_BOUND('',#155,.T.);
#102=FACE_OUTER_BOUND('',#156,.T.);
#103=FACE_OUTER_BOUND('',#157,.T.);
#104=FACE_OUTER_BOUND('',#158,.T.);
#105=FACE_OUTER_BOUND('',#159,.T.);
#106=FACE_OUTER_BOUND('',#160,.T.);
#107=FACE_OUTER_BOUND('',#161,.T.);
#108=FACE_OUTER_BOUND('',#162,.T.);
#109=FACE_OUTER_BOUND('',#163,.T.);
#110=FACE_OUTER_BOUND('',#164,.T.);
#111=FACE_OUTER_BOUND('',#165,.T.);
#112=FACE_OUTER_BOUND('',#166,.T.);
#113=FACE_OUTER_BOUND('',#167,.T.);
#114=FACE_OUTER_BOUND('',#168,.T.);
#115=FACE_OUTER_BOUND('',#169,.T.);
#116=FACE_OUTER_BOUND('',#170,.T.);
#117=FACE_OUTER_BOUND('',#171,.T.);
#118=FACE_OUTER_BOUND('',#172,.T.);
#119=FACE_OUTER_BOUND('',#173,.T.);
#120=FACE_OUTER_BOUND('',#174,.T.);
#121=FACE_OUTER_BOUND('',#175,.T.);
#122=FACE_OUTER_BOUND('',#176,.T.);
#123=FACE_OUTER_BOUND('',#177,.T.);
#124=FACE_OUTER_BOUND('',#178,.T.);
#125=FACE_OUTER_BOUND('',#179,.T.);
#126=FACE_OUTER_BOUND('',#180,.T.);
#127=FACE_OUTER_BOUND('',#181,.T.);
#128=FACE_OUTER_BOUND('',#182,.T.);
#129=FACE_OUTER_BOUND('',#183,.T.);
#130=FACE_OUTER_BOUND('',#184,.T.);
#131=FACE_OUTER_BOUND('',#185,.T.);
#132=FACE_OUTER_BOUND('',#186,.T.);
#133=FACE_OUTER_BOUND('',#187,.T.);
#134=FACE_OUTER_BOUND('',#188,.T.);
#135=FACE_OUTER_BOUND('',#189,.T.);
#136=FACE_OUTER_BOUND('',#190,.T.);
#137=FACE_OUTER_BOUND('',#191,.T.);
#138=FACE_OUTER_BOUND('',#192,.T.);
#139=FACE_OUTER_BOUND('',#193,.T.);
#140=FACE_OUTER_BOUND('',#194,.T.);
#141=FACE_OUTER_BOUND('',#195,.T.);
#142=FACE_OUTER_BOUND('',#196,.T.);
#143=FACE_OUTER_BOUND('',#197,.T.);
#144=FACE_OUTER_BOUND('',#198,.T.);
#145=FACE_OUTER_BOUND('',#199,.T.);
#146=FACE_OUTER_BOUND('',#200,.T.);
#147=FACE_OUTER_BOUND('',#201,.T.);
#148=FACE_OUTER_BOUND('',#217,.T.);
#149=EDGE_LOOP('',(#797,#798,#799,#800));
#150=EDGE_LOOP('',(#801,#802,#803,#804));
#151=EDGE_LOOP('',(#805,#806,#807,#808));
#152=EDGE_LOOP('',(#809,#810,#811,#812));
#153=EDGE_LOOP('',(#813,#814,#815,#816));
#154=EDGE_LOOP('',(#817,#818,#819,#820));
#155=EDGE_LOOP('',(#821,#822,#823,#824));
#156=EDGE_LOOP('',(#825,#826,#827,#828));
#157=EDGE_LOOP('',(#829,#830,#831,#832));
#158=EDGE_LOOP('',(#833,#834,#835,#836));
#159=EDGE_LOOP('',(#837,#838,#839,#840));
#160=EDGE_LOOP('',(#841,#842,#843,#844));
#161=EDGE_LOOP('',(#845,#846,#847,#848));
#162=EDGE_LOOP('',(#849,#850,#851,#852));
#163=EDGE_LOOP('',(#853,#854,#855,#856));
#164=EDGE_LOOP('',(#857,#858,#859,#860));
#165=EDGE_LOOP('',(#861,#862,#863,#864));
#166=EDGE_LOOP('',(#865,#866,#867,#868));
#167=EDGE_LOOP('',(#869,#870,#871,#872));
#168=EDGE_LOOP('',(#873,#874,#875,#876));
#169=EDGE_LOOP('',(#877,#878,#879,#880));
#170=EDGE_LOOP('',(#881,#882,#883,#884));
#171=EDGE_LOOP('',(#885,#886,#887,#888));
#172=EDGE_LOOP('',(#889,#890,#891,#892));
#173=EDGE_LOOP('',(#893,#894,#895,#896));
#174=EDGE_LOOP('',(#897,#898,#899,#900));
#175=EDGE_LOOP('',(#901,#902,#903,#904));
#176=EDGE_LOOP('',(#905,#906,#907,#908));
#177=EDGE_LOOP('',(#909,#910,#911,#912));
#178=EDGE_LOOP('',(#913,#914,#915,#916));
#179=EDGE_LOOP('',(#917,#918,#919,#920));
#180=EDGE_LOOP('',(#921,#922,#923,#924));
#181=EDGE_LOOP('',(#925,#926,#927,#928));
#182=EDGE_LOOP('',(#929,#930,#931,#932));
#183=EDGE_LOOP('',(#933,#934,#935,#936));
#184=EDGE_LOOP('',(#937,#938,#939,#940));
#185=EDGE_LOOP('',(#941,#942,#943,#944));
#186=EDGE_LOOP('',(#945,#946,#947,#948));
#187=EDGE_LOOP('',(#949,#950,#951,#952));
#188=EDGE_LOOP('',(#953,#954,#955,#956));
#189=EDGE_LOOP('',(#957,#958,#959,#960));
#190=EDGE_LOOP('',(#961,#962,#963,#964));
#191=EDGE_LOOP('',(#965,#966,#967,#968));
#192=EDGE_LOOP('',(#969,#970,#971,#972));
#193=EDGE_LOOP('',(#973,#974,#975,#976));
#194=EDGE_LOOP('',(#977,#978,#979,#980));
#195=EDGE_LOOP('',(#981,#982,#983,#984));
#196=EDGE_LOOP('',(#985,#986,#987,#988));
#197=EDGE_LOOP('',(#989,#990,#991,#992));
#198=EDGE_LOOP('',(#993,#994,#995,#996));
#199=EDGE_LOOP('',(#997,#998,#999,#1000));
#200=EDGE_LOOP('',(#1001,#1002,#1003,#1004));
#201=EDGE_LOOP('',(#1005,#1006,#1007,#1008));
#202=EDGE_LOOP('',(#1009,#1010,#1011,#1012));
#203=EDGE_LOOP('',(#1013,#1014,#1015,#1016));
#204=EDGE_LOOP('',(#1017,#1018,#1019,#1020));
#205=EDGE_LOOP('',(#1021,#1022,#1023,#1024));
#206=EDGE_LOOP('',(#1025,#1026,#1027,#1028));
#207=EDGE_LOOP('',(#1029,#1030,#1031,#1032));
#208=EDGE_LOOP('',(#1033,#1034,#1035,#1036));
#209=EDGE_LOOP('',(#1037,#1038,#1039,#1040));
#210=EDGE_LOOP('',(#1041,#1042,#1043,#1044));
#211=EDGE_LOOP('',(#1045,#1046,#1047,#1048));
#212=EDGE_LOOP('',(#1049,#1050,#1051,#1052));
#213=EDGE_LOOP('',(#1053));
#214=EDGE_LOOP('',(#1054));
#215=EDGE_LOOP('',(#1055));
#216=EDGE_LOOP('',(#1056));
#217=EDGE_LOOP('',(#1057,#1058,#1059,#1060));
#218=EDGE_LOOP('',(#1061,#1062,#1063,#1064));
#219=EDGE_LOOP('',(#1065,#1066,#1067,#1068));
#220=EDGE_LOOP('',(#1069,#1070,#1071,#1072));
#221=EDGE_LOOP('',(#1073,#1074,#1075,#1076));
#222=EDGE_LOOP('',(#1077,#1078,#1079,#1080));
#223=EDGE_LOOP('',(#1081,#1082,#1083,#1084));
#224=EDGE_LOOP('',(#1085,#1086,#1087,#1088));
#225=EDGE_LOOP('',(#1089,#1090,#1091,#1092));
#226=EDGE_LOOP('',(#1093,#1094,#1095,#1096));
#227=EDGE_LOOP('',(#1097,#1098,#1099,#1100));
#228=EDGE_LOOP('',(#1101,#1102,#1103,#1104));
#229=EDGE_LOOP('',(#1105));
#230=EDGE_LOOP('',(#1106));
#231=EDGE_LOOP('',(#1107));
#232=EDGE_LOOP('',(#1108));
#233=LINE('',#1522,#381);
#234=LINE('',#1528,#382);
#235=LINE('',#1534,#383);
#236=LINE('',#1540,#384);
#237=LINE('',#1545,#385);
#238=LINE('',#1547,#386);
#239=LINE('',#1549,#387);
#240=LINE('',#1550,#388);
#241=LINE('',#1553,#389);
#242=LINE('',#1555,#390);
#243=LINE('',#1556,#391);
#244=LINE('',#1559,#392);
#245=LINE('',#1561,#393);
#246=LINE('',#1562,#394);
#247=LINE('',#1564,#395);
#248=LINE('',#1565,#396);
#249=LINE('',#1569,#397);
#250=LINE('',#1571,#398);
#251=LINE('',#1573,#399);
#252=LINE('',#1574,#400);
#253=LINE('',#1577,#401);
#254=LINE('',#1579,#402);
#255=LINE('',#1580,#403);
#256=LINE('',#1583,#404);
#257=LINE('',#1585,#405);
#258=LINE('',#1586,#406);
#259=LINE('',#1588,#407);
#260=LINE('',#1589,#408);
#261=LINE('',#1593,#409);
#262=LINE('',#1595,#410);
#263=LINE('',#1597,#411);
#264=LINE('',#1598,#412);
#265=LINE('',#1601,#413);
#266=LINE('',#1603,#414);
#267=LINE('',#1604,#415);
#268=LINE('',#1607,#416);
#269=LINE('',#1609,#417);
#270=LINE('',#1610,#418);
#271=LINE('',#1612,#419);
#272=LINE('',#1613,#420);
#273=LINE('',#1617,#421);
#274=LINE('',#1619,#422);
#275=LINE('',#1621,#423);
#276=LINE('',#1622,#424);
#277=LINE('',#1625,#425);
#278=LINE('',#1627,#426);
#279=LINE('',#1628,#427);
#280=LINE('',#1631,#428);
#281=LINE('',#1633,#429);
#282=LINE('',#1634,#430);
#283=LINE('',#1636,#431);
#284=LINE('',#1637,#432);
#285=LINE('',#1641,#433);
#286=LINE('',#1643,#434);
#287=LINE('',#1645,#435);
#288=LINE('',#1646,#436);
#289=LINE('',#1649,#437);
#290=LINE('',#1651,#438);
#291=LINE('',#1652,#439);
#292=LINE('',#1655,#440);
#293=LINE('',#1657,#441);
#294=LINE('',#1658,#442);
#295=LINE('',#1660,#443);
#296=LINE('',#1661,#444);
#297=LINE('',#1665,#445);
#298=LINE('',#1667,#446);
#299=LINE('',#1669,#447);
#300=LINE('',#1670,#448);
#301=LINE('',#1673,#449);
#302=LINE('',#1675,#450);
#303=LINE('',#1676,#451);
#304=LINE('',#1679,#452);
#305=LINE('',#1681,#453);
#306=LINE('',#1682,#454);
#307=LINE('',#1684,#455);
#308=LINE('',#1685,#456);
#309=LINE('',#1689,#457);
#310=LINE('',#1691,#458);
#311=LINE('',#1693,#459);
#312=LINE('',#1694,#460);
#313=LINE('',#1697,#461);
#314=LINE('',#1699,#462);
#315=LINE('',#1700,#463);
#316=LINE('',#1703,#464);
#317=LINE('',#1705,#465);
#318=LINE('',#1706,#466);
#319=LINE('',#1708,#467);
#320=LINE('',#1709,#468);
#321=LINE('',#1713,#469);
#322=LINE('',#1715,#470);
#323=LINE('',#1717,#471);
#324=LINE('',#1718,#472);
#325=LINE('',#1721,#473);
#326=LINE('',#1723,#474);
#327=LINE('',#1724,#475);
#328=LINE('',#1727,#476);
#329=LINE('',#1729,#477);
#330=LINE('',#1730,#478);
#331=LINE('',#1732,#479);
#332=LINE('',#1733,#480);
#333=LINE('',#1737,#481);
#334=LINE('',#1739,#482);
#335=LINE('',#1741,#483);
#336=LINE('',#1742,#484);
#337=LINE('',#1745,#485);
#338=LINE('',#1747,#486);
#339=LINE('',#1748,#487);
#340=LINE('',#1751,#488);
#341=LINE('',#1753,#489);
#342=LINE('',#1754,#490);
#343=LINE('',#1756,#491);
#344=LINE('',#1757,#492);
#345=LINE('',#1761,#493);
#346=LINE('',#1763,#494);
#347=LINE('',#1765,#495);
#348=LINE('',#1766,#496);
#349=LINE('',#1769,#497);
#350=LINE('',#1771,#498);
#351=LINE('',#1772,#499);
#352=LINE('',#1775,#500);
#353=LINE('',#1777,#501);
#354=LINE('',#1778,#502);
#355=LINE('',#1780,#503);
#356=LINE('',#1781,#504);
#357=LINE('',#1785,#505);
#358=LINE('',#1787,#506);
#359=LINE('',#1789,#507);
#360=LINE('',#1790,#508);
#361=LINE('',#1793,#509);
#362=LINE('',#1795,#510);
#363=LINE('',#1796,#511);
#364=LINE('',#1799,#512);
#365=LINE('',#1801,#513);
#366=LINE('',#1802,#514);
#367=LINE('',#1804,#515);
#368=LINE('',#1805,#516);
#369=LINE('',#1809,#517);
#370=LINE('',#1811,#518);
#371=LINE('',#1813,#519);
#372=LINE('',#1814,#520);
#373=LINE('',#1817,#521);
#374=LINE('',#1819,#522);
#375=LINE('',#1820,#523);
#376=LINE('',#1823,#524);
#377=LINE('',#1825,#525);
#378=LINE('',#1826,#526);
#379=LINE('',#1828,#527);
#380=LINE('',#1829,#528);
#381=VECTOR('',#1249,1.45);
#382=VECTOR('',#1256,1.45);
#383=VECTOR('',#1263,1.45);
#384=VECTOR('',#1270,1.45);
#385=VECTOR('',#1275,10.);
#386=VECTOR('',#1276,10.);
#387=VECTOR('',#1277,10.);
#388=VECTOR('',#1278,10.);
#389=VECTOR('',#1281,10.);
#390=VECTOR('',#1282,10.);
#391=VECTOR('',#1283,10.);
#392=VECTOR('',#1286,10.);
#393=VECTOR('',#1287,10.);
#394=VECTOR('',#1288,10.);
#395=VECTOR('',#1291,10.);
#396=VECTOR('',#1292,10.);
#397=VECTOR('',#1295,10.);
#398=VECTOR('',#1296,10.);
#399=VECTOR('',#1297,10.);
#400=VECTOR('',#1298,10.);
#401=VECTOR('',#1301,10.);
#402=VECTOR('',#1302,10.);
#403=VECTOR('',#1303,10.);
#404=VECTOR('',#1306,10.);
#405=VECTOR('',#1307,10.);
#406=VECTOR('',#1308,10.);
#407=VECTOR('',#1311,10.);
#408=VECTOR('',#1312,10.);
#409=VECTOR('',#1315,10.);
#410=VECTOR('',#1316,10.);
#411=VECTOR('',#1317,10.);
#412=VECTOR('',#1318,10.);
#413=VECTOR('',#1321,10.);
#414=VECTOR('',#1322,10.);
#415=VECTOR('',#1323,10.);
#416=VECTOR('',#1326,10.);
#417=VECTOR('',#1327,10.);
#418=VECTOR('',#1328,10.);
#419=VECTOR('',#1331,10.);
#420=VECTOR('',#1332,10.);
#421=VECTOR('',#1335,10.);
#422=VECTOR('',#1336,10.);
#423=VECTOR('',#1337,10.);
#424=VECTOR('',#1338,10.);
#425=VECTOR('',#1341,10.);
#426=VECTOR('',#1342,10.);
#427=VECTOR('',#1343,10.);
#428=VECTOR('',#1346,10.);
#429=VECTOR('',#1347,10.);
#430=VECTOR('',#1348,10.);
#431=VECTOR('',#1351,10.);
#432=VECTOR('',#1352,10.);
#433=VECTOR('',#1355,10.);
#434=VECTOR('',#1356,10.);
#435=VECTOR('',#1357,10.);
#436=VECTOR('',#1358,10.);
#437=VECTOR('',#1361,10.);
#438=VECTOR('',#1362,10.);
#439=VECTOR('',#1363,10.);
#440=VECTOR('',#1366,10.);
#441=VECTOR('',#1367,10.);
#442=VECTOR('',#1368,10.);
#443=VECTOR('',#1371,10.);
#444=VECTOR('',#1372,10.);
#445=VECTOR('',#1375,10.);
#446=VECTOR('',#1376,10.);
#447=VECTOR('',#1377,10.);
#448=VECTOR('',#1378,10.);
#449=VECTOR('',#1381,10.);
#450=VECTOR('',#1382,10.);
#451=VECTOR('',#1383,10.);
#452=VECTOR('',#1386,10.);
#453=VECTOR('',#1387,10.);
#454=VECTOR('',#1388,10.);
#455=VECTOR('',#1391,10.);
#456=VECTOR('',#1392,10.);
#457=VECTOR('',#1395,10.);
#458=VECTOR('',#1396,10.);
#459=VECTOR('',#1397,10.);
#460=VECTOR('',#1398,10.);
#461=VECTOR('',#1401,10.);
#462=VECTOR('',#1402,10.);
#463=VECTOR('',#1403,10.);
#464=VECTOR('',#1406,10.);
#465=VECTOR('',#1407,10.);
#466=VECTOR('',#1408,10.);
#467=VECTOR('',#1411,10.);
#468=VECTOR('',#1412,10.);
#469=VECTOR('',#1415,10.);
#470=VECTOR('',#1416,10.);
#471=VECTOR('',#1417,10.);
#472=VECTOR('',#1418,10.);
#473=VECTOR('',#1421,10.);
#474=VECTOR('',#1422,10.);
#475=VECTOR('',#1423,10.);
#476=VECTOR('',#1426,10.);
#477=VECTOR('',#1427,10.);
#478=VECTOR('',#1428,10.);
#479=VECTOR('',#1431,10.);
#480=VECTOR('',#1432,10.);
#481=VECTOR('',#1435,10.);
#482=VECTOR('',#1436,10.);
#483=VECTOR('',#1437,10.);
#484=VECTOR('',#1438,10.);
#485=VECTOR('',#1441,10.);
#486=VECTOR('',#1442,10.);
#487=VECTOR('',#1443,10.);
#488=VECTOR('',#1446,10.);
#489=VECTOR('',#1447,10.);
#490=VECTOR('',#1448,10.);
#491=VECTOR('',#1451,10.);
#492=VECTOR('',#1452,10.);
#493=VECTOR('',#1455,10.);
#494=VECTOR('',#1456,10.);
#495=VECTOR('',#1457,10.);
#496=VECTOR('',#1458,10.);
#497=VECTOR('',#1461,10.);
#498=VECTOR('',#1462,10.);
#499=VECTOR('',#1463,10.);
#500=VECTOR('',#1466,10.);
#501=VECTOR('',#1467,10.);
#502=VECTOR('',#1468,10.);
#503=VECTOR('',#1471,10.);
#504=VECTOR('',#1472,10.);
#505=VECTOR('',#1475,10.);
#506=VECTOR('',#1476,10.);
#507=VECTOR('',#1477,10.);
#508=VECTOR('',#1478,10.);
#509=VECTOR('',#1481,10.);
#510=VECTOR('',#1482,10.);
#511=VECTOR('',#1483,10.);
#512=VECTOR('',#1486,10.);
#513=VECTOR('',#1487,10.);
#514=VECTOR('',#1488,10.);
#515=VECTOR('',#1491,10.);
#516=VECTOR('',#1492,10.);
#517=VECTOR('',#1495,10.);
#518=VECTOR('',#1496,10.);
#519=VECTOR('',#1497,10.);
#520=VECTOR('',#1498,10.);
#521=VECTOR('',#1501,10.);
#522=VECTOR('',#1502,10.);
#523=VECTOR('',#1503,10.);
#524=VECTOR('',#1506,10.);
#525=VECTOR('',#1507,10.);
#526=VECTOR('',#1508,10.);
#527=VECTOR('',#1511,10.);
#528=VECTOR('',#1512,10.);
#529=CIRCLE('',#1182,1.45);
#530=CIRCLE('',#1183,1.45);
#531=CIRCLE('',#1185,1.45);
#532=CIRCLE('',#1186,1.45);
#533=CIRCLE('',#1188,1.45);
#534=CIRCLE('',#1189,1.45);
#535=CIRCLE('',#1191,1.45);
#536=CIRCLE('',#1192,1.45);
#537=VERTEX_POINT('',#1519);
#538=VERTEX_POINT('',#1521);
#539=VERTEX_POINT('',#1525);
#540=VERTEX_POINT('',#1527);
#541=VERTEX_POINT('',#1531);
#542=VERTEX_POINT('',#1533);
#543=VERTEX_POINT('',#1537);
#544=VERTEX_POINT('',#1539);
#545=VERTEX_POINT('',#1543);
#546=VERTEX_POINT('',#1544);
#547=VERTEX_POINT('',#1546);
#548=VERTEX_POINT('',#1548);
#549=VERTEX_POINT('',#1552);
#550=VERTEX_POINT('',#1554);
#551=VERTEX_POINT('',#1558);
#552=VERTEX_POINT('',#1560);
#553=VERTEX_POINT('',#1567);
#554=VERTEX_POINT('',#1568);
#555=VERTEX_POINT('',#1570);
#556=VERTEX_POINT('',#1572);
#557=VERTEX_POINT('',#1576);
#558=VERTEX_POINT('',#1578);
#559=VERTEX_POINT('',#1582);
#560=VERTEX_POINT('',#1584);
#561=VERTEX_POINT('',#1591);
#562=VERTEX_POINT('',#1592);
#563=VERTEX_POINT('',#1594);
#564=VERTEX_POINT('',#1596);
#565=VERTEX_POINT('',#1600);
#566=VERTEX_POINT('',#1602);
#567=VERTEX_POINT('',#1606);
#568=VERTEX_POINT('',#1608);
#569=VERTEX_POINT('',#1615);
#570=VERTEX_POINT('',#1616);
#571=VERTEX_POINT('',#1618);
#572=VERTEX_POINT('',#1620);
#573=VERTEX_POINT('',#1624);
#574=VERTEX_POINT('',#1626);
#575=VERTEX_POINT('',#1630);
#576=VERTEX_POINT('',#1632);
#577=VERTEX_POINT('',#1639);
#578=VERTEX_POINT('',#1640);
#579=VERTEX_POINT('',#1642);
#580=VERTEX_POINT('',#1644);
#581=VERTEX_POINT('',#1648);
#582=VERTEX_POINT('',#1650);
#583=VERTEX_POINT('',#1654);
#584=VERTEX_POINT('',#1656);
#585=VERTEX_POINT('',#1663);
#586=VERTEX_POINT('',#1664);
#587=VERTEX_POINT('',#1666);
#588=VERTEX_POINT('',#1668);
#589=VERTEX_POINT('',#1672);
#590=VERTEX_POINT('',#1674);
#591=VERTEX_POINT('',#1678);
#592=VERTEX_POINT('',#1680);
#593=VERTEX_POINT('',#1687);
#594=VERTEX_POINT('',#1688);
#595=VERTEX_POINT('',#1690);
#596=VERTEX_POINT('',#1692);
#597=VERTEX_POINT('',#1696);
#598=VERTEX_POINT('',#1698);
#599=VERTEX_POINT('',#1702);
#600=VERTEX_POINT('',#1704);
#601=VERTEX_POINT('',#1711);
#602=VERTEX_POINT('',#1712);
#603=VERTEX_POINT('',#1714);
#604=VERTEX_POINT('',#1716);
#605=VERTEX_POINT('',#1720);
#606=VERTEX_POINT('',#1722);
#607=VERTEX_POINT('',#1726);
#608=VERTEX_POINT('',#1728);
#609=VERTEX_POINT('',#1735);
#610=VERTEX_POINT('',#1736);
#611=VERTEX_POINT('',#1738);
#612=VERTEX_POINT('',#1740);
#613=VERTEX_POINT('',#1744);
#614=VERTEX_POINT('',#1746);
#615=VERTEX_POINT('',#1750);
#616=VERTEX_POINT('',#1752);
#617=VERTEX_POINT('',#1759);
#618=VERTEX_POINT('',#1760);
#619=VERTEX_POINT('',#1762);
#620=VERTEX_POINT('',#1764);
#621=VERTEX_POINT('',#1768);
#622=VERTEX_POINT('',#1770);
#623=VERTEX_POINT('',#1774);
#624=VERTEX_POINT('',#1776);
#625=VERTEX_POINT('',#1783);
#626=VERTEX_POINT('',#1784);
#627=VERTEX_POINT('',#1786);
#628=VERTEX_POINT('',#1788);
#629=VERTEX_POINT('',#1792);
#630=VERTEX_POINT('',#1794);
#631=VERTEX_POINT('',#1798);
#632=VERTEX_POINT('',#1800);
#633=VERTEX_POINT('',#1807);
#634=VERTEX_POINT('',#1808);
#635=VERTEX_POINT('',#1810);
#636=VERTEX_POINT('',#1812);
#637=VERTEX_POINT('',#1816);
#638=VERTEX_POINT('',#1818);
#639=VERTEX_POINT('',#1822);
#640=VERTEX_POINT('',#1824);
#641=EDGE_CURVE('',#537,#537,#529,.T.);
#642=EDGE_CURVE('',#537,#538,#233,.T.);
#643=EDGE_CURVE('',#538,#538,#530,.T.);
#644=EDGE_CURVE('',#539,#539,#531,.T.);
#645=EDGE_CURVE('',#539,#540,#234,.T.);
#646=EDGE_CURVE('',#540,#540,#532,.T.);
#647=EDGE_CURVE('',#541,#541,#533,.T.);
#648=EDGE_CURVE('',#541,#542,#235,.T.);
#649=EDGE_CURVE('',#542,#542,#534,.T.);
#650=EDGE_CURVE('',#543,#543,#535,.T.);
#651=EDGE_CURVE('',#543,#544,#236,.T.);
#652=EDGE_CURVE('',#544,#544,#536,.T.);
#653=EDGE_CURVE('',#545,#546,#237,.T.);
#654=EDGE_CURVE('',#546,#547,#238,.T.);
#655=EDGE_CURVE('',#548,#547,#239,.T.);
#656=EDGE_CURVE('',#545,#548,#240,.T.);
#657=EDGE_CURVE('',#549,#545,#241,.T.);
#658=EDGE_CURVE('',#550,#548,#242,.T.);
#659=EDGE_CURVE('',#549,#550,#243,.T.);
#660=EDGE_CURVE('',#551,#549,#244,.T.);
#661=EDGE_CURVE('',#552,#550,#245,.T.);
#662=EDGE_CURVE('',#551,#552,#246,.T.);
#663=EDGE_CURVE('',#546,#551,#247,.T.);
#664=EDGE_CURVE('',#547,#552,#248,.T.);
#665=EDGE_CURVE('',#553,#554,#249,.T.);
#666=EDGE_CURVE('',#554,#555,#250,.T.);
#667=EDGE_CURVE('',#556,#555,#251,.T.);
#668=EDGE_CURVE('',#553,#556,#252,.T.);
#669=EDGE_CURVE('',#557,#553,#253,.T.);
#670=EDGE_CURVE('',#558,#556,#254,.T.);
#671=EDGE_CURVE('',#557,#558,#255,.T.);
#672=EDGE_CURVE('',#559,#557,#256,.T.);
#673=EDGE_CURVE('',#560,#558,#257,.T.);
#674=EDGE_CURVE('',#559,#560,#258,.T.);
#675=EDGE_CURVE('',#554,#559,#259,.T.);
#676=EDGE_CURVE('',#555,#560,#260,.T.);
#677=EDGE_CURVE('',#561,#562,#261,.T.);
#678=EDGE_CURVE('',#562,#563,#262,.T.);
#679=EDGE_CURVE('',#564,#563,#263,.T.);
#680=EDGE_CURVE('',#561,#564,#264,.T.);
#681=EDGE_CURVE('',#565,#561,#265,.T.);
#682=EDGE_CURVE('',#566,#564,#266,.T.);
#683=EDGE_CURVE('',#565,#566,#267,.T.);
#684=EDGE_CURVE('',#567,#565,#268,.T.);
#685=EDGE_CURVE('',#568,#566,#269,.T.);
#686=EDGE_CURVE('',#567,#568,#270,.T.);
#687=EDGE_CURVE('',#562,#567,#271,.T.);
#688=EDGE_CURVE('',#563,#568,#272,.T.);
#689=EDGE_CURVE('',#569,#570,#273,.T.);
#690=EDGE_CURVE('',#570,#571,#274,.T.);
#691=EDGE_CURVE('',#572,#571,#275,.T.);
#692=EDGE_CURVE('',#569,#572,#276,.T.);
#693=EDGE_CURVE('',#573,#569,#277,.T.);
#694=EDGE_CURVE('',#574,#572,#278,.T.);
#695=EDGE_CURVE('',#573,#574,#279,.T.);
#696=EDGE_CURVE('',#575,#573,#280,.T.);
#697=EDGE_CURVE('',#576,#574,#281,.T.);
#698=EDGE_CURVE('',#575,#576,#282,.T.);
#699=EDGE_CURVE('',#570,#575,#283,.T.);
#700=EDGE_CURVE('',#571,#576,#284,.T.);
#701=EDGE_CURVE('',#577,#578,#285,.T.);
#702=EDGE_CURVE('',#578,#579,#286,.T.);
#703=EDGE_CURVE('',#580,#579,#287,.T.);
#704=EDGE_CURVE('',#577,#580,#288,.T.);
#705=EDGE_CURVE('',#581,#577,#289,.T.);
#706=EDGE_CURVE('',#582,#580,#290,.T.);
#707=EDGE_CURVE('',#581,#582,#291,.T.);
#708=EDGE_CURVE('',#583,#581,#292,.T.);
#709=EDGE_CURVE('',#584,#582,#293,.T.);
#710=EDGE_CURVE('',#583,#584,#294,.T.);
#711=EDGE_CURVE('',#578,#583,#295,.T.);
#712=EDGE_CURVE('',#579,#584,#296,.T.);
#713=EDGE_CURVE('',#585,#586,#297,.T.);
#714=EDGE_CURVE('',#586,#587,#298,.T.);
#715=EDGE_CURVE('',#588,#587,#299,.T.);
#716=EDGE_CURVE('',#585,#588,#300,.T.);
#717=EDGE_CURVE('',#589,#585,#301,.T.);
#718=EDGE_CURVE('',#590,#588,#302,.T.);
#719=EDGE_CURVE('',#589,#590,#303,.T.);
#720=EDGE_CURVE('',#591,#589,#304,.T.);
#721=EDGE_CURVE('',#592,#590,#305,.T.);
#722=EDGE_CURVE('',#591,#592,#306,.T.);
#723=EDGE_CURVE('',#586,#591,#307,.T.);
#724=EDGE_CURVE('',#587,#592,#308,.T.);
#725=EDGE_CURVE('',#593,#594,#309,.T.);
#726=EDGE_CURVE('',#594,#595,#310,.T.);
#727=EDGE_CURVE('',#596,#595,#311,.T.);
#728=EDGE_CURVE('',#593,#596,#312,.T.);
#729=EDGE_CURVE('',#597,#593,#313,.T.);
#730=EDGE_CURVE('',#598,#596,#314,.T.);
#731=EDGE_CURVE('',#597,#598,#315,.T.);
#732=EDGE_CURVE('',#599,#597,#316,.T.);
#733=EDGE_CURVE('',#600,#598,#317,.T.);
#734=EDGE_CURVE('',#599,#600,#318,.T.);
#735=EDGE_CURVE('',#594,#599,#319,.T.);
#736=EDGE_CURVE('',#595,#600,#320,.T.);
#737=EDGE_CURVE('',#601,#602,#321,.T.);
#738=EDGE_CURVE('',#602,#603,#322,.T.);
#739=EDGE_CURVE('',#604,#603,#323,.T.);
#740=EDGE_CURVE('',#601,#604,#324,.T.);
#741=EDGE_CURVE('',#605,#601,#325,.T.);
#742=EDGE_CURVE('',#606,#604,#326,.T.);
#743=EDGE_CURVE('',#605,#606,#327,.T.);
#744=EDGE_CURVE('',#607,#605,#328,.T.);
#745=EDGE_CURVE('',#608,#606,#329,.T.);
#746=EDGE_CURVE('',#607,#608,#330,.T.);
#747=EDGE_CURVE('',#602,#607,#331,.T.);
#748=EDGE_CURVE('',#603,#608,#332,.T.);
#749=EDGE_CURVE('',#609,#610,#333,.T.);
#750=EDGE_CURVE('',#610,#611,#334,.T.);
#751=EDGE_CURVE('',#612,#611,#335,.T.);
#752=EDGE_CURVE('',#609,#612,#336,.T.);
#753=EDGE_CURVE('',#613,#609,#337,.T.);
#754=EDGE_CURVE('',#614,#612,#338,.T.);
#755=EDGE_CURVE('',#613,#614,#339,.T.);
#756=EDGE_CURVE('',#615,#613,#340,.T.);
#757=EDGE_CURVE('',#616,#614,#341,.T.);
#758=EDGE_CURVE('',#615,#616,#342,.T.);
#759=EDGE_CURVE('',#610,#615,#343,.T.);
#760=EDGE_CURVE('',#611,#616,#344,.T.);
#761=EDGE_CURVE('',#617,#618,#345,.T.);
#762=EDGE_CURVE('',#618,#619,#346,.T.);
#763=EDGE_CURVE('',#620,#619,#347,.T.);
#764=EDGE_CURVE('',#617,#620,#348,.T.);
#765=EDGE_CURVE('',#621,#617,#349,.T.);
#766=EDGE_CURVE('',#622,#620,#350,.T.);
#767=EDGE_CURVE('',#621,#622,#351,.T.);
#768=EDGE_CURVE('',#623,#621,#352,.T.);
#769=EDGE_CURVE('',#624,#622,#353,.T.);
#770=EDGE_CURVE('',#623,#624,#354,.T.);
#771=EDGE_CURVE('',#618,#623,#355,.T.);
#772=EDGE_CURVE('',#619,#624,#356,.T.);
#773=EDGE_CURVE('',#625,#626,#357,.T.);
#774=EDGE_CURVE('',#626,#627,#358,.T.);
#775=EDGE_CURVE('',#628,#627,#359,.T.);
#776=EDGE_CURVE('',#625,#628,#360,.T.);
#777=EDGE_CURVE('',#629,#625,#361,.T.);
#778=EDGE_CURVE('',#630,#628,#362,.T.);
#779=EDGE_CURVE('',#629,#630,#363,.T.);
#780=EDGE_CURVE('',#631,#629,#364,.T.);
#781=EDGE_CURVE('',#632,#630,#365,.T.);
#782=EDGE_CURVE('',#631,#632,#366,.T.);
#783=EDGE_CURVE('',#626,#631,#367,.T.);
#784=EDGE_CURVE('',#627,#632,#368,.T.);
#785=EDGE_CURVE('',#633,#634,#369,.T.);
#786=EDGE_CURVE('',#633,#635,#370,.T.);
#787=EDGE_CURVE('',#636,#635,#371,.T.);
#788=EDGE_CURVE('',#634,#636,#372,.T.);
#789=EDGE_CURVE('',#634,#637,#373,.T.);
#790=EDGE_CURVE('',#638,#636,#374,.T.);
#791=EDGE_CURVE('',#637,#638,#375,.T.);
#792=EDGE_CURVE('',#637,#639,#376,.T.);
#793=EDGE_CURVE('',#640,#638,#377,.T.);
#794=EDGE_CURVE('',#639,#640,#378,.T.);
#795=EDGE_CURVE('',#639,#633,#379,.T.);
#796=EDGE_CURVE('',#635,#640,#380,.T.);
#797=ORIENTED_EDGE('',*,*,#641,.F.);
#798=ORIENTED_EDGE('',*,*,#642,.T.);
#799=ORIENTED_EDGE('',*,*,#643,.F.);
#800=ORIENTED_EDGE('',*,*,#642,.F.);
#801=ORIENTED_EDGE('',*,*,#644,.F.);
#802=ORIENTED_EDGE('',*,*,#645,.T.);
#803=ORIENTED_EDGE('',*,*,#646,.F.);
#804=ORIENTED_EDGE('',*,*,#645,.F.);
#805=ORIENTED_EDGE('',*,*,#647,.F.);
#806=ORIENTED_EDGE('',*,*,#648,.T.);
#807=ORIENTED_EDGE('',*,*,#649,.F.);
#808=ORIENTED_EDGE('',*,*,#648,.F.);
#809=ORIENTED_EDGE('',*,*,#650,.F.);
#810=ORIENTED_EDGE('',*,*,#651,.T.);
#811=ORIENTED_EDGE('',*,*,#652,.F.);
#812=ORIENTED_EDGE('',*,*,#651,.F.);
#813=ORIENTED_EDGE('',*,*,#653,.T.);
#814=ORIENTED_EDGE('',*,*,#654,.T.);
#815=ORIENTED_EDGE('',*,*,#655,.F.);
#816=ORIENTED_EDGE('',*,*,#656,.F.);
#817=ORIENTED_EDGE('',*,*,#657,.T.);
#818=ORIENTED_EDGE('',*,*,#656,.T.);
#819=ORIENTED_EDGE('',*,*,#658,.F.);
#820=ORIENTED_EDGE('',*,*,#659,.F.);
#821=ORIENTED_EDGE('',*,*,#660,.T.);
#822=ORIENTED_EDGE('',*,*,#659,.T.);
#823=ORIENTED_EDGE('',*,*,#661,.F.);
#824=ORIENTED_EDGE('',*,*,#662,.F.);
#825=ORIENTED_EDGE('',*,*,#663,.T.);
#826=ORIENTED_EDGE('',*,*,#662,.T.);
#827=ORIENTED_EDGE('',*,*,#664,.F.);
#828=ORIENTED_EDGE('',*,*,#654,.F.);
#829=ORIENTED_EDGE('',*,*,#665,.T.);
#830=ORIENTED_EDGE('',*,*,#666,.T.);
#831=ORIENTED_EDGE('',*,*,#667,.F.);
#832=ORIENTED_EDGE('',*,*,#668,.F.);
#833=ORIENTED_EDGE('',*,*,#669,.T.);
#834=ORIENTED_EDGE('',*,*,#668,.T.);
#835=ORIENTED_EDGE('',*,*,#670,.F.);
#836=ORIENTED_EDGE('',*,*,#671,.F.);
#837=ORIENTED_EDGE('',*,*,#672,.T.);
#838=ORIENTED_EDGE('',*,*,#671,.T.);
#839=ORIENTED_EDGE('',*,*,#673,.F.);
#840=ORIENTED_EDGE('',*,*,#674,.F.);
#841=ORIENTED_EDGE('',*,*,#675,.T.);
#842=ORIENTED_EDGE('',*,*,#674,.T.);
#843=ORIENTED_EDGE('',*,*,#676,.F.);
#844=ORIENTED_EDGE('',*,*,#666,.F.);
#845=ORIENTED_EDGE('',*,*,#677,.T.);
#846=ORIENTED_EDGE('',*,*,#678,.T.);
#847=ORIENTED_EDGE('',*,*,#679,.F.);
#848=ORIENTED_EDGE('',*,*,#680,.F.);
#849=ORIENTED_EDGE('',*,*,#681,.T.);
#850=ORIENTED_EDGE('',*,*,#680,.T.);
#851=ORIENTED_EDGE('',*,*,#682,.F.);
#852=ORIENTED_EDGE('',*,*,#683,.F.);
#853=ORIENTED_EDGE('',*,*,#684,.T.);
#854=ORIENTED_EDGE('',*,*,#683,.T.);
#855=ORIENTED_EDGE('',*,*,#685,.F.);
#856=ORIENTED_EDGE('',*,*,#686,.F.);
#857=ORIENTED_EDGE('',*,*,#687,.T.);
#858=ORIENTED_EDGE('',*,*,#686,.T.);
#859=ORIENTED_EDGE('',*,*,#688,.F.);
#860=ORIENTED_EDGE('',*,*,#678,.F.);
#861=ORIENTED_EDGE('',*,*,#689,.T.);
#862=ORIENTED_EDGE('',*,*,#690,.T.);
#863=ORIENTED_EDGE('',*,*,#691,.F.);
#864=ORIENTED_EDGE('',*,*,#692,.F.);
#865=ORIENTED_EDGE('',*,*,#693,.T.);
#866=ORIENTED_EDGE('',*,*,#692,.T.);
#867=ORIENTED_EDGE('',*,*,#694,.F.);
#868=ORIENTED_EDGE('',*,*,#695,.F.);
#869=ORIENTED_EDGE('',*,*,#696,.T.);
#870=ORIENTED_EDGE('',*,*,#695,.T.);
#871=ORIENTED_EDGE('',*,*,#697,.F.);
#872=ORIENTED_EDGE('',*,*,#698,.F.);
#873=ORIENTED_EDGE('',*,*,#699,.T.);
#874=ORIENTED_EDGE('',*,*,#698,.T.);
#875=ORIENTED_EDGE('',*,*,#700,.F.);
#876=ORIENTED_EDGE('',*,*,#690,.F.);
#877=ORIENTED_EDGE('',*,*,#701,.T.);
#878=ORIENTED_EDGE('',*,*,#702,.T.);
#879=ORIENTED_EDGE('',*,*,#703,.F.);
#880=ORIENTED_EDGE('',*,*,#704,.F.);
#881=ORIENTED_EDGE('',*,*,#705,.T.);
#882=ORIENTED_EDGE('',*,*,#704,.T.);
#883=ORIENTED_EDGE('',*,*,#706,.F.);
#884=ORIENTED_EDGE('',*,*,#707,.F.);
#885=ORIENTED_EDGE('',*,*,#708,.T.);
#886=ORIENTED_EDGE('',*,*,#707,.T.);
#887=ORIENTED_EDGE('',*,*,#709,.F.);
#888=ORIENTED_EDGE('',*,*,#710,.F.);
#889=ORIENTED_EDGE('',*,*,#711,.T.);
#890=ORIENTED_EDGE('',*,*,#710,.T.);
#891=ORIENTED_EDGE('',*,*,#712,.F.);
#892=ORIENTED_EDGE('',*,*,#702,.F.);
#893=ORIENTED_EDGE('',*,*,#713,.T.);
#894=ORIENTED_EDGE('',*,*,#714,.T.);
#895=ORIENTED_EDGE('',*,*,#715,.F.);
#896=ORIENTED_EDGE('',*,*,#716,.F.);
#897=ORIENTED_EDGE('',*,*,#717,.T.);
#898=ORIENTED_EDGE('',*,*,#716,.T.);
#899=ORIENTED_EDGE('',*,*,#718,.F.);
#900=ORIENTED_EDGE('',*,*,#719,.F.);
#901=ORIENTED_EDGE('',*,*,#720,.T.);
#902=ORIENTED_EDGE('',*,*,#719,.T.);
#903=ORIENTED_EDGE('',*,*,#721,.F.);
#904=ORIENTED_EDGE('',*,*,#722,.F.);
#905=ORIENTED_EDGE('',*,*,#723,.T.);
#906=ORIENTED_EDGE('',*,*,#722,.T.);
#907=ORIENTED_EDGE('',*,*,#724,.F.);
#908=ORIENTED_EDGE('',*,*,#714,.F.);
#909=ORIENTED_EDGE('',*,*,#725,.T.);
#910=ORIENTED_EDGE('',*,*,#726,.T.);
#911=ORIENTED_EDGE('',*,*,#727,.F.);
#912=ORIENTED_EDGE('',*,*,#728,.F.);
#913=ORIENTED_EDGE('',*,*,#729,.T.);
#914=ORIENTED_EDGE('',*,*,#728,.T.);
#915=ORIENTED_EDGE('',*,*,#730,.F.);
#916=ORIENTED_EDGE('',*,*,#731,.F.);
#917=ORIENTED_EDGE('',*,*,#732,.T.);
#918=ORIENTED_EDGE('',*,*,#731,.T.);
#919=ORIENTED_EDGE('',*,*,#733,.F.);
#920=ORIENTED_EDGE('',*,*,#734,.F.);
#921=ORIENTED_EDGE('',*,*,#735,.T.);
#922=ORIENTED_EDGE('',*,*,#734,.T.);
#923=ORIENTED_EDGE('',*,*,#736,.F.);
#924=ORIENTED_EDGE('',*,*,#726,.F.);
#925=ORIENTED_EDGE('',*,*,#737,.T.);
#926=ORIENTED_EDGE('',*,*,#738,.T.);
#927=ORIENTED_EDGE('',*,*,#739,.F.);
#928=ORIENTED_EDGE('',*,*,#740,.F.);
#929=ORIENTED_EDGE('',*,*,#741,.T.);
#930=ORIENTED_EDGE('',*,*,#740,.T.);
#931=ORIENTED_EDGE('',*,*,#742,.F.);
#932=ORIENTED_EDGE('',*,*,#743,.F.);
#933=ORIENTED_EDGE('',*,*,#744,.T.);
#934=ORIENTED_EDGE('',*,*,#743,.T.);
#935=ORIENTED_EDGE('',*,*,#745,.F.);
#936=ORIENTED_EDGE('',*,*,#746,.F.);
#937=ORIENTED_EDGE('',*,*,#747,.T.);
#938=ORIENTED_EDGE('',*,*,#746,.T.);
#939=ORIENTED_EDGE('',*,*,#748,.F.);
#940=ORIENTED_EDGE('',*,*,#738,.F.);
#941=ORIENTED_EDGE('',*,*,#749,.T.);
#942=ORIENTED_EDGE('',*,*,#750,.T.);
#943=ORIENTED_EDGE('',*,*,#751,.F.);
#944=ORIENTED_EDGE('',*,*,#752,.F.);
#945=ORIENTED_EDGE('',*,*,#753,.T.);
#946=ORIENTED_EDGE('',*,*,#752,.T.);
#947=ORIENTED_EDGE('',*,*,#754,.F.);
#948=ORIENTED_EDGE('',*,*,#755,.F.);
#949=ORIENTED_EDGE('',*,*,#756,.T.);
#950=ORIENTED_EDGE('',*,*,#755,.T.);
#951=ORIENTED_EDGE('',*,*,#757,.F.);
#952=ORIENTED_EDGE('',*,*,#758,.F.);
#953=ORIENTED_EDGE('',*,*,#759,.T.);
#954=ORIENTED_EDGE('',*,*,#758,.T.);
#955=ORIENTED_EDGE('',*,*,#760,.F.);
#956=ORIENTED_EDGE('',*,*,#750,.F.);
#957=ORIENTED_EDGE('',*,*,#761,.T.);
#958=ORIENTED_EDGE('',*,*,#762,.T.);
#959=ORIENTED_EDGE('',*,*,#763,.F.);
#960=ORIENTED_EDGE('',*,*,#764,.F.);
#961=ORIENTED_EDGE('',*,*,#765,.T.);
#962=ORIENTED_EDGE('',*,*,#764,.T.);
#963=ORIENTED_EDGE('',*,*,#766,.F.);
#964=ORIENTED_EDGE('',*,*,#767,.F.);
#965=ORIENTED_EDGE('',*,*,#768,.T.);
#966=ORIENTED_EDGE('',*,*,#767,.T.);
#967=ORIENTED_EDGE('',*,*,#769,.F.);
#968=ORIENTED_EDGE('',*,*,#770,.F.);
#969=ORIENTED_EDGE('',*,*,#771,.T.);
#970=ORIENTED_EDGE('',*,*,#770,.T.);
#971=ORIENTED_EDGE('',*,*,#772,.F.);
#972=ORIENTED_EDGE('',*,*,#762,.F.);
#973=ORIENTED_EDGE('',*,*,#773,.T.);
#974=ORIENTED_EDGE('',*,*,#774,.T.);
#975=ORIENTED_EDGE('',*,*,#775,.F.);
#976=ORIENTED_EDGE('',*,*,#776,.F.);
#977=ORIENTED_EDGE('',*,*,#777,.T.);
#978=ORIENTED_EDGE('',*,*,#776,.T.);
#979=ORIENTED_EDGE('',*,*,#778,.F.);
#980=ORIENTED_EDGE('',*,*,#779,.F.);
#981=ORIENTED_EDGE('',*,*,#780,.T.);
#982=ORIENTED_EDGE('',*,*,#779,.T.);
#983=ORIENTED_EDGE('',*,*,#781,.F.);
#984=ORIENTED_EDGE('',*,*,#782,.F.);
#985=ORIENTED_EDGE('',*,*,#783,.T.);
#986=ORIENTED_EDGE('',*,*,#782,.T.);
#987=ORIENTED_EDGE('',*,*,#784,.F.);
#988=ORIENTED_EDGE('',*,*,#774,.F.);
#989=ORIENTED_EDGE('',*,*,#785,.F.);
#990=ORIENTED_EDGE('',*,*,#786,.T.);
#991=ORIENTED_EDGE('',*,*,#787,.F.);
#992=ORIENTED_EDGE('',*,*,#788,.F.);
#993=ORIENTED_EDGE('',*,*,#789,.F.);
#994=ORIENTED_EDGE('',*,*,#788,.T.);
#995=ORIENTED_EDGE('',*,*,#790,.F.);
#996=ORIENTED_EDGE('',*,*,#791,.F.);
#997=ORIENTED_EDGE('',*,*,#792,.F.);
#998=ORIENTED_EDGE('',*,*,#791,.T.);
#999=ORIENTED_EDGE('',*,*,#793,.F.);
#1000=ORIENTED_EDGE('',*,*,#794,.F.);
#1001=ORIENTED_EDGE('',*,*,#795,.F.);
#1002=ORIENTED_EDGE('',*,*,#794,.T.);
#1003=ORIENTED_EDGE('',*,*,#796,.F.);
#1004=ORIENTED_EDGE('',*,*,#786,.F.);
#1005=ORIENTED_EDGE('',*,*,#796,.T.);
#1006=ORIENTED_EDGE('',*,*,#793,.T.);
#1007=ORIENTED_EDGE('',*,*,#790,.T.);
#1008=ORIENTED_EDGE('',*,*,#787,.T.);
#1009=ORIENTED_EDGE('',*,*,#664,.T.);
#1010=ORIENTED_EDGE('',*,*,#661,.T.);
#1011=ORIENTED_EDGE('',*,*,#658,.T.);
#1012=ORIENTED_EDGE('',*,*,#655,.T.);
#1013=ORIENTED_EDGE('',*,*,#676,.T.);
#1014=ORIENTED_EDGE('',*,*,#673,.T.);
#1015=ORIENTED_EDGE('',*,*,#670,.T.);
#1016=ORIENTED_EDGE('',*,*,#667,.T.);
#1017=ORIENTED_EDGE('',*,*,#688,.T.);
#1018=ORIENTED_EDGE('',*,*,#685,.T.);
#1019=ORIENTED_EDGE('',*,*,#682,.T.);
#1020=ORIENTED_EDGE('',*,*,#679,.T.);
#1021=ORIENTED_EDGE('',*,*,#700,.T.);
#1022=ORIENTED_EDGE('',*,*,#697,.T.);
#1023=ORIENTED_EDGE('',*,*,#694,.T.);
#1024=ORIENTED_EDGE('',*,*,#691,.T.);
#1025=ORIENTED_EDGE('',*,*,#712,.T.);
#1026=ORIENTED_EDGE('',*,*,#709,.T.);
#1027=ORIENTED_EDGE('',*,*,#706,.T.);
#1028=ORIENTED_EDGE('',*,*,#703,.T.);
#1029=ORIENTED_EDGE('',*,*,#724,.T.);
#1030=ORIENTED_EDGE('',*,*,#721,.T.);
#1031=ORIENTED_EDGE('',*,*,#718,.T.);
#1032=ORIENTED_EDGE('',*,*,#715,.T.);
#1033=ORIENTED_EDGE('',*,*,#736,.T.);
#1034=ORIENTED_EDGE('',*,*,#733,.T.);
#1035=ORIENTED_EDGE('',*,*,#730,.T.);
#1036=ORIENTED_EDGE('',*,*,#727,.T.);
#1037=ORIENTED_EDGE('',*,*,#748,.T.);
#1038=ORIENTED_EDGE('',*,*,#745,.T.);
#1039=ORIENTED_EDGE('',*,*,#742,.T.);
#1040=ORIENTED_EDGE('',*,*,#739,.T.);
#1041=ORIENTED_EDGE('',*,*,#760,.T.);
#1042=ORIENTED_EDGE('',*,*,#757,.T.);
#1043=ORIENTED_EDGE('',*,*,#754,.T.);
#1044=ORIENTED_EDGE('',*,*,#751,.T.);
#1045=ORIENTED_EDGE('',*,*,#772,.T.);
#1046=ORIENTED_EDGE('',*,*,#769,.T.);
#1047=ORIENTED_EDGE('',*,*,#766,.T.);
#1048=ORIENTED_EDGE('',*,*,#763,.T.);
#1049=ORIENTED_EDGE('',*,*,#784,.T.);
#1050=ORIENTED_EDGE('',*,*,#781,.T.);
#1051=ORIENTED_EDGE('',*,*,#778,.T.);
#1052=ORIENTED_EDGE('',*,*,#775,.T.);
#1053=ORIENTED_EDGE('',*,*,#650,.T.);
#1054=ORIENTED_EDGE('',*,*,#647,.T.);
#1055=ORIENTED_EDGE('',*,*,#644,.T.);
#1056=ORIENTED_EDGE('',*,*,#641,.T.);
#1057=ORIENTED_EDGE('',*,*,#795,.T.);
#1058=ORIENTED_EDGE('',*,*,#785,.T.);
#1059=ORIENTED_EDGE('',*,*,#789,.T.);
#1060=ORIENTED_EDGE('',*,*,#792,.T.);
#1061=ORIENTED_EDGE('',*,*,#663,.F.);
#1062=ORIENTED_EDGE('',*,*,#653,.F.);
#1063=ORIENTED_EDGE('',*,*,#657,.F.);
#1064=ORIENTED_EDGE('',*,*,#660,.F.);
#1065=ORIENTED_EDGE('',*,*,#675,.F.);
#1066=ORIENTED_EDGE('',*,*,#665,.F.);
#1067=ORIENTED_EDGE('',*,*,#669,.F.);
#1068=ORIENTED_EDGE('',*,*,#672,.F.);
#1069=ORIENTED_EDGE('',*,*,#687,.F.);
#1070=ORIENTED_EDGE('',*,*,#677,.F.);
#1071=ORIENTED_EDGE('',*,*,#681,.F.);
#1072=ORIENTED_EDGE('',*,*,#684,.F.);
#1073=ORIENTED_EDGE('',*,*,#699,.F.);
#1074=ORIENTED_EDGE('',*,*,#689,.F.);
#1075=ORIENTED_EDGE('',*,*,#693,.F.);
#1076=ORIENTED_EDGE('',*,*,#696,.F.);
#1077=ORIENTED_EDGE('',*,*,#711,.F.);
#1078=ORIENTED_EDGE('',*,*,#701,.F.);
#1079=ORIENTED_EDGE('',*,*,#705,.F.);
#1080=ORIENTED_EDGE('',*,*,#708,.F.);
#1081=ORIENTED_EDGE('',*,*,#723,.F.);
#1082=ORIENTED_EDGE('',*,*,#713,.F.);
#1083=ORIENTED_EDGE('',*,*,#717,.F.);
#1084=ORIENTED_EDGE('',*,*,#720,.F.);
#1085=ORIENTED_EDGE('',*,*,#735,.F.);
#1086=ORIENTED_EDGE('',*,*,#725,.F.);
#1087=ORIENTED_EDGE('',*,*,#729,.F.);
#1088=ORIENTED_EDGE('',*,*,#732,.F.);
#1089=ORIENTED_EDGE('',*,*,#747,.F.);
#1090=ORIENTED_EDGE('',*,*,#737,.F.);
#1091=ORIENTED_EDGE('',*,*,#741,.F.);
#1092=ORIENTED_EDGE('',*,*,#744,.F.);
#1093=ORIENTED_EDGE('',*,*,#759,.F.);
#1094=ORIENTED_EDGE('',*,*,#749,.F.);
#1095=ORIENTED_EDGE('',*,*,#753,.F.);
#1096=ORIENTED_EDGE('',*,*,#756,.F.);
#1097=ORIENTED_EDGE('',*,*,#771,.F.);
#1098=ORIENTED_EDGE('',*,*,#761,.F.);
#1099=ORIENTED_EDGE('',*,*,#765,.F.);
#1100=ORIENTED_EDGE('',*,*,#768,.F.);
#1101=ORIENTED_EDGE('',*,*,#783,.F.);
#1102=ORIENTED_EDGE('',*,*,#773,.F.);
#1103=ORIENTED_EDGE('',*,*,#777,.F.);
#1104=ORIENTED_EDGE('',*,*,#780,.F.);
#1105=ORIENTED_EDGE('',*,*,#652,.T.);
#1106=ORIENTED_EDGE('',*,*,#649,.T.);
#1107=ORIENTED_EDGE('',*,*,#646,.T.);
#1108=ORIENTED_EDGE('',*,*,#643,.T.);
#1109=CYLINDRICAL_SURFACE('',#1181,1.45);
#1110=CYLINDRICAL_SURFACE('',#1184,1.45);
#1111=CYLINDRICAL_SURFACE('',#1187,1.45);
#1112=CYLINDRICAL_SURFACE('',#1190,1.45);
#1113=ADVANCED_FACE('',(#95),#1109,.F.);
#1114=ADVANCED_FACE('',(#96),#1110,.F.);
#1115=ADVANCED_FACE('',(#97),#1111,.F.);
#1116=ADVANCED_FACE('',(#98),#1112,.F.);
#1117=ADVANCED_FACE('',(#99),#45,.T.);
#1118=ADVANCED_FACE('',(#100),#46,.T.);
#1119=ADVANCED_FACE('',(#101),#47,.T.);
#1120=ADVANCED_FACE('',(#102),#48,.T.);
#1121=ADVANCED_FACE('',(#103),#49,.T.);
#1122=ADVANCED_FACE('',(#104),#50,.T.);
#1123=ADVANCED_FACE('',(#105),#51,.T.);
#1124=ADVANCED_FACE('',(#106),#52,.T.);
#1125=ADVANCED_FACE('',(#107),#53,.T.);
#1126=ADVANCED_FACE('',(#108),#54,.T.);
#1127=ADVANCED_FACE('',(#109),#55,.T.);
#1128=ADVANCED_FACE('',(#110),#56,.T.);
#1129=ADVANCED_FACE('',(#111),#57,.T.);
#1130=ADVANCED_FACE('',(#112),#58,.T.);
#1131=ADVANCED_FACE('',(#113),#59,.T.);
#1132=ADVANCED_FACE('',(#114),#60,.T.);
#1133=ADVANCED_FACE('',(#115),#61,.T.);
#1134=ADVANCED_FACE('',(#116),#62,.T.);
#1135=ADVANCED_FACE('',(#117),#63,.T.);
#1136=ADVANCED_FACE('',(#118),#64,.T.);
#1137=ADVANCED_FACE('',(#119),#65,.T.);
#1138=ADVANCED_FACE('',(#120),#66,.T.);
#1139=ADVANCED_FACE('',(#121),#67,.T.);
#1140=ADVANCED_FACE('',(#122),#68,.T.);
#1141=ADVANCED_FACE('',(#123),#69,.T.);
#1142=ADVANCED_FACE('',(#124),#70,.T.);
#1143=ADVANCED_FACE('',(#125),#71,.T.);
#1144=ADVANCED_FACE('',(#126),#72,.T.);
#1145=ADVANCED_FACE('',(#127),#73,.T.);
#1146=ADVANCED_FACE('',(#128),#74,.T.);
#1147=ADVANCED_FACE('',(#129),#75,.T.);
#1148=ADVANCED_FACE('',(#130),#76,.T.);
#1149=ADVANCED_FACE('',(#131),#77,.T.);
#1150=ADVANCED_FACE('',(#132),#78,.T.);
#1151=ADVANCED_FACE('',(#133),#79,.T.);
#1152=ADVANCED_FACE('',(#134),#80,.T.);
#1153=ADVANCED_FACE('',(#135),#81,.T.);
#1154=ADVANCED_FACE('',(#136),#82,.T.);
#1155=ADVANCED_FACE('',(#137),#83,.T.);
#1156=ADVANCED_FACE('',(#138),#84,.T.);
#1157=ADVANCED_FACE('',(#139),#85,.T.);
#1158=ADVANCED_FACE('',(#140),#86,.T.);
#1159=ADVANCED_FACE('',(#141),#87,.T.);
#1160=ADVANCED_FACE('',(#142),#88,.T.);
#1161=ADVANCED_FACE('',(#143),#89,.T.);
#1162=ADVANCED_FACE('',(#144),#90,.T.);
#1163=ADVANCED_FACE('',(#145),#91,.T.);
#1164=ADVANCED_FACE('',(#146),#92,.T.);
#1165=ADVANCED_FACE('',(#147,#15,#16,#17,#18,#19,#20,#21,#22,#23,#24,#25,
#26,#27,#28,#29),#93,.T.);
#1166=ADVANCED_FACE('',(#148,#30,#31,#32,#33,#34,#35,#36,#37,#38,#39,#40,
#41,#42,#43,#44),#94,.F.);
#1167=CLOSED_SHELL('',(#1113,#1114,#1115,#1116,#1117,#1118,#1119,#1120,
#1121,#1122,#1123,#1124,#1125,#1126,#1127,#1128,#1129,#1130,#1131,#1132,
#1133,#1134,#1135,#1136,#1137,#1138,#1139,#1140,#1141,#1142,#1143,#1144,
#1145,#1146,#1147,#1148,#1149,#1150,#1151,#1152,#1153,#1154,#1155,#1156,
#1157,#1158,#1159,#1160,#1161,#1162,#1163,#1164,#1165,#1166));
#1168=DERIVED_UNIT_ELEMENT(#1170,1.);
#1169=DERIVED_UNIT_ELEMENT(#1837,-3.);
#1170=(
MASS_UNIT()
NAMED_UNIT(*)
SI_UNIT(.KILO.,.GRAM.)
);
#1171=DERIVED_UNIT((#1168,#1169));
#1172=MEASURE_REPRESENTATION_ITEM('density measure',
POSITIVE_RATIO_MEASURE(7850.),#1171);
#1173=PROPERTY_DEFINITION_REPRESENTATION(#1178,#1175);
#1174=PROPERTY_DEFINITION_REPRESENTATION(#1179,#1176);
#1175=REPRESENTATION('material name',(#1177),#1834);
#1176=REPRESENTATION('density',(#1172),#1834);
#1177=DESCRIPTIVE_REPRESENTATION_ITEM('Steel','Steel');
#1178=PROPERTY_DEFINITION('material property','material name',#1844);
#1179=PROPERTY_DEFINITION('material property','density of part',#1844);
#1180=AXIS2_PLACEMENT_3D('',#1517,#1243,#1244);
#1181=AXIS2_PLACEMENT_3D('',#1518,#1245,#1246);
#1182=AXIS2_PLACEMENT_3D('',#1520,#1247,#1248);
#1183=AXIS2_PLACEMENT_3D('',#1523,#1250,#1251);
#1184=AXIS2_PLACEMENT_3D('',#1524,#1252,#1253);
#1185=AXIS2_PLACEMENT_3D('',#1526,#1254,#1255);
#1186=AXIS2_PLACEMENT_3D('',#1529,#1257,#1258);
#1187=AXIS2_PLACEMENT_3D('',#1530,#1259,#1260);
#1188=AXIS2_PLACEMENT_3D('',#1532,#1261,#1262);
#1189=AXIS2_PLACEMENT_3D('',#1535,#1264,#1265);
#1190=AXIS2_PLACEMENT_3D('',#1536,#1266,#1267);
#1191=AXIS2_PLACEMENT_3D('',#1538,#1268,#1269);
#1192=AXIS2_PLACEMENT_3D('',#1541,#1271,#1272);
#1193=AXIS2_PLACEMENT_3D('',#1542,#1273,#1274);
#1194=AXIS2_PLACEMENT_3D('',#1551,#1279,#1280);
#1195=AXIS2_PLACEMENT_3D('',#1557,#1284,#1285);
#1196=AXIS2_PLACEMENT_3D('',#1563,#1289,#1290);
#1197=AXIS2_PLACEMENT_3D('',#1566,#1293,#1294);
#1198=AXIS2_PLACEMENT_3D('',#1575,#1299,#1300);
#1199=AXIS2_PLACEMENT_3D('',#1581,#1304,#1305);
#1200=AXIS2_PLACEMENT_3D('',#1587,#1309,#1310);
#1201=AXIS2_PLACEMENT_3D('',#1590,#1313,#1314);
#1202=AXIS2_PLACEMENT_3D('',#1599,#1319,#1320);
#1203=AXIS2_PLACEMENT_3D('',#1605,#1324,#1325);
#1204=AXIS2_PLACEMENT_3D('',#1611,#1329,#1330);
#1205=AXIS2_PLACEMENT_3D('',#1614,#1333,#1334);
#1206=AXIS2_PLACEMENT_3D('',#1623,#1339,#1340);
#1207=AXIS2_PLACEMENT_3D('',#1629,#1344,#1345);
#1208=AXIS2_PLACEMENT_3D('',#1635,#1349,#1350);
#1209=AXIS2_PLACEMENT_3D('',#1638,#1353,#1354);
#1210=AXIS2_PLACEMENT_3D('',#1647,#1359,#1360);
#1211=AXIS2_PLACEMENT_3D('',#1653,#1364,#1365);
#1212=AXIS2_PLACEMENT_3D('',#1659,#1369,#1370);
#1213=AXIS2_PLACEMENT_3D('',#1662,#1373,#1374);
#1214=AXIS2_PLACEMENT_3D('',#1671,#1379,#1380);
#1215=AXIS2_PLACEMENT_3D('',#1677,#1384,#1385);
#1216=AXIS2_PLACEMENT_3D('',#1683,#1389,#1390);
#1217=AXIS2_PLACEMENT_3D('',#1686,#1393,#1394);
#1218=AXIS2_PLACEMENT_3D('',#1695,#1399,#1400);
#1219=AXIS2_PLACEMENT_3D('',#1701,#1404,#1405);
#1220=AXIS2_PLACEMENT_3D('',#1707,#1409,#1410);
#1221=AXIS2_PLACEMENT_3D('',#1710,#1413,#1414);
#1222=AXIS2_PLACEMENT_3D('',#1719,#1419,#1420);
#1223=AXIS2_PLACEMENT_3D('',#1725,#1424,#1425);
#1224=AXIS2_PLACEMENT_3D('',#1731,#1429,#1430);
#1225=AXIS2_PLACEMENT_3D('',#1734,#1433,#1434);
#1226=AXIS2_PLACEMENT_3D('',#1743,#1439,#1440);
#1227=AXIS2_PLACEMENT_3D('',#1749,#1444,#1445);
#1228=AXIS2_PLACEMENT_3D('',#1755,#1449,#1450);
#1229=AXIS2_PLACEMENT_3D('',#1758,#1453,#1454);
#1230=AXIS2_PLACEMENT_3D('',#1767,#1459,#1460);
#1231=AXIS2_PLACEMENT_3D('',#1773,#1464,#1465);
#1232=AXIS2_PLACEMENT_3D('',#1779,#1469,#1470);
#1233=AXIS2_PLACEMENT_3D('',#1782,#1473,#1474);
#1234=AXIS2_PLACEMENT_3D('',#1791,#1479,#1480);
#1235=AXIS2_PLACEMENT_3D('',#1797,#1484,#1485);
#1236=AXIS2_PLACEMENT_3D('',#1803,#1489,#1490);
#1237=AXIS2_PLACEMENT_3D('',#1806,#1493,#1494);
#1238=AXIS2_PLACEMENT_3D('',#1815,#1499,#1500);
#1239=AXIS2_PLACEMENT_3D('',#1821,#1504,#1505);
#1240=AXIS2_PLACEMENT_3D('',#1827,#1509,#1510);
#1241=AXIS2_PLACEMENT_3D('',#1830,#1513,#1514);
#1242=AXIS2_PLACEMENT_3D('',#1831,#1515,#1516);
#1243=DIRECTION('axis',(0.,0.,1.));
#1244=DIRECTION('refdir',(1.,0.,0.));
#1245=DIRECTION('center_axis',(0.,-1.,0.));
#1246=DIRECTION('ref_axis',(-1.,0.,0.));
#1247=DIRECTION('center_axis',(0.,-1.,0.));
#1248=DIRECTION('ref_axis',(-1.,0.,0.));
#1249=DIRECTION('',(0.,-1.,0.));
#1250=DIRECTION('center_axis',(0.,1.,0.));
#1251=DIRECTION('ref_axis',(-1.,0.,0.));
#1252=DIRECTION('center_axis',(0.,-1.,0.));
#1253=DIRECTION('ref_axis',(-1.,0.,0.));
#1254=DIRECTION('center_axis',(0.,-1.,0.));
#1255=DIRECTION('ref_axis',(-1.,0.,0.));
#1256=DIRECTION('',(0.,-1.,0.));
#1257=DIRECTION('center_axis',(0.,1.,0.));
#1258=DIRECTION('ref_axis',(-1.,0.,0.));
#1259=DIRECTION('center_axis',(0.,-1.,0.));
#1260=DIRECTION('ref_axis',(-1.,0.,0.));
#1261=DIRECTION('center_axis',(0.,-1.,0.));
#1262=DIRECTION('ref_axis',(-1.,0.,0.));
#1263=DIRECTION('',(0.,-1.,0.));
#1264=DIRECTION('center_axis',(0.,1.,0.));
#1265=DIRECTION('ref_axis',(-1.,0.,0.));
#1266=DIRECTION('center_axis',(0.,-1.,0.));
#1267=DIRECTION('ref_axis',(-1.,0.,0.));
#1268=DIRECTION('center_axis',(0.,-1.,0.));
#1269=DIRECTION('ref_axis',(-1.,0.,0.));
#1270=DIRECTION('',(0.,-1.,0.));
#1271=DIRECTION('center_axis',(0.,1.,0.));
#1272=DIRECTION('ref_axis',(-1.,0.,0.));
#1273=DIRECTION('center_axis',(-1.,0.,0.));
#1274=DIRECTION('ref_axis',(0.,0.,1.));
#1275=DIRECTION('',(0.,0.,1.));
#1276=DIRECTION('',(0.,1.,0.));
#1277=DIRECTION('',(0.,0.,1.));
#1278=DIRECTION('',(0.,1.,0.));
#1279=DIRECTION('center_axis',(0.,0.,1.));
#1280=DIRECTION('ref_axis',(1.,0.,0.));
#1281=DIRECTION('',(1.,0.,0.));
#1282=DIRECTION('',(1.,0.,0.));
#1283=DIRECTION('',(0.,1.,0.));
#1284=DIRECTION('center_axis',(1.,0.,0.));
#1285=DIRECTION('ref_axis',(0.,0.,-1.));
#1286=DIRECTION('',(0.,0.,-1.));
#1287=DIRECTION('',(0.,0.,-1.));
#1288=DIRECTION('',(0.,1.,0.));
#1289=DIRECTION('center_axis',(0.,0.,-1.));
#1290=DIRECTION('ref_axis',(-1.,0.,0.));
#1291=DIRECTION('',(-1.,0.,0.));
#1292=DIRECTION('',(-1.,0.,0.));
#1293=DIRECTION('center_axis',(-1.,0.,0.));
#1294=DIRECTION('ref_axis',(0.,0.,1.));
#1295=DIRECTION('',(0.,0.,1.));
#1296=DIRECTION('',(0.,1.,0.));
#1297=DIRECTION('',(0.,0.,1.));
#1298=DIRECTION('',(0.,1.,0.));
#1299=DIRECTION('center_axis',(0.,0.,1.));
#1300=DIRECTION('ref_axis',(1.,0.,0.));
#1301=DIRECTION('',(1.,0.,0.));
#1302=DIRECTION('',(1.,0.,0.));
#1303=DIRECTION('',(0.,1.,0.));
#1304=DIRECTION('center_axis',(1.,0.,0.));
#1305=DIRECTION('ref_axis',(0.,0.,-1.));
#1306=DIRECTION('',(0.,0.,-1.));
#1307=DIRECTION('',(0.,0.,-1.));
#1308=DIRECTION('',(0.,1.,0.));
#1309=DIRECTION('center_axis',(0.,0.,-1.));
#1310=DIRECTION('ref_axis',(-1.,0.,0.));
#1311=DIRECTION('',(-1.,0.,0.));
#1312=DIRECTION('',(-1.,0.,0.));
#1313=DIRECTION('center_axis',(-1.,0.,0.));
#1314=DIRECTION('ref_axis',(0.,0.,1.));
#1315=DIRECTION('',(0.,0.,1.));
#1316=DIRECTION('',(0.,1.,0.));
#1317=DIRECTION('',(0.,0.,1.));
#1318=DIRECTION('',(0.,1.,0.));
#1319=DIRECTION('center_axis',(0.,0.,1.));
#1320=DIRECTION('ref_axis',(1.,0.,0.));
#1321=DIRECTION('',(1.,0.,0.));
#1322=DIRECTION('',(1.,0.,0.));
#1323=DIRECTION('',(0.,1.,0.));
#1324=DIRECTION('center_axis',(1.,0.,0.));
#1325=DIRECTION('ref_axis',(0.,0.,-1.));
#1326=DIRECTION('',(0.,0.,-1.));
#1327=DIRECTION('',(0.,0.,-1.));
#1328=DIRECTION('',(0.,1.,0.));
#1329=DIRECTION('center_axis',(0.,0.,-1.));
#1330=DIRECTION('ref_axis',(-1.,0.,0.));
#1331=DIRECTION('',(-1.,0.,0.));
#1332=DIRECTION('',(-1.,0.,0.));
#1333=DIRECTION('center_axis',(-1.,0.,0.));
#1334=DIRECTION('ref_axis',(0.,0.,1.));
#1335=DIRECTION('',(0.,0.,1.));
#1336=DIRECTION('',(0.,1.,0.));
#1337=DIRECTION('',(0.,0.,1.));
#1338=DIRECTION('',(0.,1.,0.));
#1339=DIRECTION('center_axis',(0.,0.,1.));
#1340=DIRECTION('ref_axis',(1.,0.,0.));
#1341=DIRECTION('',(1.,0.,0.));
#1342=DIRECTION('',(1.,0.,0.));
#1343=DIRECTION('',(0.,1.,0.));
#1344=DIRECTION('center_axis',(1.,0.,0.));
#1345=DIRECTION('ref_axis',(0.,0.,-1.));
#1346=DIRECTION('',(0.,0.,-1.));
#1347=DIRECTION('',(0.,0.,-1.));
#1348=DIRECTION('',(0.,1.,0.));
#1349=DIRECTION('center_axis',(0.,0.,-1.));
#1350=DIRECTION('ref_axis',(-1.,0.,0.));
#1351=DIRECTION('',(-1.,0.,0.));
#1352=DIRECTION('',(-1.,0.,0.));
#1353=DIRECTION('center_axis',(-1.,0.,0.));
#1354=DIRECTION('ref_axis',(0.,0.,1.));
#1355=DIRECTION('',(0.,0.,1.));
#1356=DIRECTION('',(0.,1.,0.));
#1357=DIRECTION('',(0.,0.,1.));
#1358=DIRECTION('',(0.,1.,0.));
#1359=DIRECTION('center_axis',(0.,0.,1.));
#1360=DIRECTION('ref_axis',(1.,0.,0.));
#1361=DIRECTION('',(1.,0.,0.));
#1362=DIRECTION('',(1.,0.,0.));
#1363=DIRECTION('',(0.,1.,0.));
#1364=DIRECTION('center_axis',(1.,0.,0.));
#1365=DIRECTION('ref_axis',(0.,0.,-1.));
#1366=DIRECTION('',(0.,0.,-1.));
#1367=DIRECTION('',(0.,0.,-1.));
#1368=DIRECTION('',(0.,1.,0.));
#1369=DIRECTION('center_axis',(0.,0.,-1.));
#1370=DIRECTION('ref_axis',(-1.,0.,0.));
#1371=DIRECTION('',(-1.,0.,0.));
#1372=DIRECTION('',(-1.,0.,0.));
#1373=DIRECTION('center_axis',(-1.,0.,0.));
#1374=DIRECTION('ref_axis',(0.,0.,1.));
#1375=DIRECTION('',(0.,0.,1.));
#1376=DIRECTION('',(0.,1.,0.));
#1377=DIRECTION('',(0.,0.,1.));
#1378=DIRECTION('',(0.,1.,0.));
#1379=DIRECTION('center_axis',(0.,0.,1.));
#1380=DIRECTION('ref_axis',(1.,0.,0.));
#1381=DIRECTION('',(1.,0.,0.));
#1382=DIRECTION('',(1.,0.,0.));
#1383=DIRECTION('',(0.,1.,0.));
#1384=DIRECTION('center_axis',(1.,0.,0.));
#1385=DIRECTION('ref_axis',(0.,0.,-1.));
#1386=DIRECTION('',(0.,0.,-1.));
#1387=DIRECTION('',(0.,0.,-1.));
#1388=DIRECTION('',(0.,1.,0.));
#1389=DIRECTION('center_axis',(0.,0.,-1.));
#1390=DIRECTION('ref_axis',(-1.,0.,0.));
#1391=DIRECTION('',(-1.,0.,0.));
#1392=DIRECTION('',(-1.,0.,0.));
#1393=DIRECTION('center_axis',(-1.,0.,0.));
#1394=DIRECTION('ref_axis',(0.,0.,1.));
#1395=DIRECTION('',(0.,0.,1.));
#1396=DIRECTION('',(0.,1.,0.));
#1397=DIRECTION('',(0.,0.,1.));
#1398=DIRECTION('',(0.,1.,0.));
#1399=DIRECTION('center_axis',(0.,0.,1.));
#1400=DIRECTION('ref_axis',(1.,0.,0.));
#1401=DIRECTION('',(1.,0.,0.));
#1402=DIRECTION('',(1.,0.,0.));
#1403=DIRECTION('',(0.,1.,0.));
#1404=DIRECTION('center_axis',(1.,0.,0.));
#1405=DIRECTION('ref_axis',(0.,0.,-1.));
#1406=DIRECTION('',(0.,0.,-1.));
#1407=DIRECTION('',(0.,0.,-1.));
#1408=DIRECTION('',(0.,1.,0.));
#1409=DIRECTION('center_axis',(0.,0.,-1.));
#1410=DIRECTION('ref_axis',(-1.,0.,0.));
#1411=DIRECTION('',(-1.,0.,0.));
#1412=DIRECTION('',(-1.,0.,0.));
#1413=DIRECTION('center_axis',(-1.,0.,0.));
#1414=DIRECTION('ref_axis',(0.,0.,1.));
#1415=DIRECTION('',(0.,0.,1.));
#1416=DIRECTION('',(0.,1.,0.));
#1417=DIRECTION('',(0.,0.,1.));
#1418=DIRECTION('',(0.,1.,0.));
#1419=DIRECTION('center_axis',(0.,0.,1.));
#1420=DIRECTION('ref_axis',(1.,0.,0.));
#1421=DIRECTION('',(1.,0.,0.));
#1422=DIRECTION('',(1.,0.,0.));
#1423=DIRECTION('',(0.,1.,0.));
#1424=DIRECTION('center_axis',(1.,0.,0.));
#1425=DIRECTION('ref_axis',(0.,0.,-1.));
#1426=DIRECTION('',(0.,0.,-1.));
#1427=DIRECTION('',(0.,0.,-1.));
#1428=DIRECTION('',(0.,1.,0.));
#1429=DIRECTION('center_axis',(0.,0.,-1.));
#1430=DIRECTION('ref_axis',(-1.,0.,0.));
#1431=DIRECTION('',(-1.,0.,0.));
#1432=DIRECTION('',(-1.,0.,0.));
#1433=DIRECTION('center_axis',(-1.,0.,0.));
#1434=DIRECTION('ref_axis',(0.,0.,1.));
#1435=DIRECTION('',(0.,0.,1.));
#1436=DIRECTION('',(0.,1.,0.));
#1437=DIRECTION('',(0.,0.,1.));
#1438=DIRECTION('',(0.,1.,0.));
#1439=DIRECTION('center_axis',(0.,0.,1.));
#1440=DIRECTION('ref_axis',(1.,0.,0.));
#1441=DIRECTION('',(1.,0.,0.));
#1442=DIRECTION('',(1.,0.,0.));
#1443=DIRECTION('',(0.,1.,0.));
#1444=DIRECTION('center_axis',(1.,0.,0.));
#1445=DIRECTION('ref_axis',(0.,0.,-1.));
#1446=DIRECTION('',(0.,0.,-1.));
#1447=DIRECTION('',(0.,0.,-1.));
#1448=DIRECTION('',(0.,1.,0.));
#1449=DIRECTION('center_axis',(0.,0.,-1.));
#1450=DIRECTION('ref_axis',(-1.,0.,0.));
#1451=DIRECTION('',(-1.,0.,0.));
#1452=DIRECTION('',(-1.,0.,0.));
#1453=DIRECTION('center_axis',(-1.,0.,0.));
#1454=DIRECTION('ref_axis',(0.,0.,1.));
#1455=DIRECTION('',(0.,0.,1.));
#1456=DIRECTION('',(0.,1.,0.));
#1457=DIRECTION('',(0.,0.,1.));
#1458=DIRECTION('',(0.,1.,0.));
#1459=DIRECTION('center_axis',(0.,0.,1.));
#1460=DIRECTION('ref_axis',(1.,0.,0.));
#1461=DIRECTION('',(1.,0.,0.));
#1462=DIRECTION('',(1.,0.,0.));
#1463=DIRECTION('',(0.,1.,0.));
#1464=DIRECTION('center_axis',(1.,0.,0.));
#1465=DIRECTION('ref_axis',(0.,0.,-1.));
#1466=DIRECTION('',(0.,0.,-1.));
#1467=DIRECTION('',(0.,0.,-1.));
#1468=DIRECTION('',(0.,1.,0.));
#1469=DIRECTION('center_axis',(0.,0.,-1.));
#1470=DIRECTION('ref_axis',(-1.,0.,0.));
#1471=DIRECTION('',(-1.,0.,0.));
#1472=DIRECTION('',(-1.,0.,0.));
#1473=DIRECTION('center_axis',(-1.,0.,0.));
#1474=DIRECTION('ref_axis',(0.,0.,1.));
#1475=DIRECTION('',(0.,0.,1.));
#1476=DIRECTION('',(0.,1.,0.));
#1477=DIRECTION('',(0.,0.,1.));
#1478=DIRECTION('',(0.,1.,0.));
#1479=DIRECTION('center_axis',(0.,0.,1.));
#1480=DIRECTION('ref_axis',(1.,0.,0.));
#1481=DIRECTION('',(1.,0.,0.));
#1482=DIRECTION('',(1.,0.,0.));
#1483=DIRECTION('',(0.,1.,0.));
#1484=DIRECTION('center_axis',(1.,0.,0.));
#1485=DIRECTION('ref_axis',(0.,0.,-1.));
#1486=DIRECTION('',(0.,0.,-1.));
#1487=DIRECTION('',(0.,0.,-1.));
#1488=DIRECTION('',(0.,1.,0.));
#1489=DIRECTION('center_axis',(0.,0.,-1.));
#1490=DIRECTION('ref_axis',(-1.,0.,0.));
#1491=DIRECTION('',(-1.,0.,0.));
#1492=DIRECTION('',(-1.,0.,0.));
#1493=DIRECTION('center_axis',(-1.,0.,0.));
#1494=DIRECTION('ref_axis',(0.,0.,1.));
#1495=DIRECTION('',(0.,0.,-1.));
#1496=DIRECTION('',(0.,1.,0.));
#1497=DIRECTION('',(0.,0.,1.));
#1498=DIRECTION('',(0.,1.,0.));
#1499=DIRECTION('center_axis',(0.,0.,-1.));
#1500=DIRECTION('ref_axis',(-1.,0.,0.));
#1501=DIRECTION('',(1.,0.,0.));
#1502=DIRECTION('',(-1.,0.,0.));
#1503=DIRECTION('',(0.,1.,0.));
#1504=DIRECTION('center_axis',(1.,0.,0.));
#1505=DIRECTION('ref_axis',(0.,0.,-1.));
#1506=DIRECTION('',(0.,0.,1.));
#1507=DIRECTION('',(0.,0.,-1.));
#1508=DIRECTION('',(0.,1.,0.));
#1509=DIRECTION('center_axis',(0.,0.,1.));
#1510=DIRECTION('ref_axis',(1.,0.,0.));
#1511=DIRECTION('',(-1.,0.,0.));
#1512=DIRECTION('',(1.,0.,0.));
#1513=DIRECTION('center_axis',(0.,1.,0.));
#1514=DIRECTION('ref_axis',(0.,0.,1.));
#1515=DIRECTION('center_axis',(0.,1.,0.));
#1516=DIRECTION('ref_axis',(1.,0.,0.));
#1517=CARTESIAN_POINT('',(0.,0.,0.));
#1518=CARTESIAN_POINT('Origin',(160.400126980194,3.,-104.399787541317));
#1519=CARTESIAN_POINT('',(161.850126980194,3.,-104.399787541317));
#1520=CARTESIAN_POINT('Origin',(160.400126980194,3.,-104.399787541317));
#1521=CARTESIAN_POINT('',(161.850126980194,-2.22044604925031E-15,-104.399787541317));
#1522=CARTESIAN_POINT('',(161.850126980194,3.,-104.399787541317));
#1523=CARTESIAN_POINT('Origin',(160.400126980194,0.,-104.399787541317));
#1524=CARTESIAN_POINT('Origin',(160.400126980194,3.,5.00021245868281));
#1525=CARTESIAN_POINT('',(161.850126980194,3.,5.00021245868281));
#1526=CARTESIAN_POINT('Origin',(160.400126980194,3.,5.00021245868281));
#1527=CARTESIAN_POINT('',(161.850126980194,-2.22044604925031E-15,5.00021245868281));
#1528=CARTESIAN_POINT('',(161.850126980194,3.,5.00021245868281));
#1529=CARTESIAN_POINT('Origin',(160.400126980194,0.,5.00021245868281));
#1530=CARTESIAN_POINT('Origin',(85.0001269801941,3.,-104.399787541317));
#1531=CARTESIAN_POINT('',(86.4501269801941,3.,-104.399787541317));
#1532=CARTESIAN_POINT('Origin',(85.0001269801941,3.,-104.399787541317));
#1533=CARTESIAN_POINT('',(86.4501269801941,-2.22044604925031E-15,-104.399787541317));
#1534=CARTESIAN_POINT('',(86.4501269801941,3.,-104.399787541317));
#1535=CARTESIAN_POINT('Origin',(85.0001269801941,0.,-104.399787541317));
#1536=CARTESIAN_POINT('Origin',(85.0001269801941,3.,5.00021245868281));
#1537=CARTESIAN_POINT('',(86.4501269801941,3.,5.00021245868281));
#1538=CARTESIAN_POINT('Origin',(85.0001269801941,3.,5.00021245868281));
#1539=CARTESIAN_POINT('',(86.4501269801941,-2.22044604925031E-15,5.00021245868281));
#1540=CARTESIAN_POINT('',(86.4501269801941,3.,5.00021245868281));
#1541=CARTESIAN_POINT('Origin',(85.0001269801941,0.,5.00021245868281));
#1542=CARTESIAN_POINT('Origin',(109.650126980194,0.,-19.7747875413172));
#1543=CARTESIAN_POINT('',(109.650126980194,0.,-19.7747875413172));
#1544=CARTESIAN_POINT('',(109.650126980194,0.,-5.7747875413172));
#1545=CARTESIAN_POINT('',(109.650126980194,0.,-19.7747875413172));
#1546=CARTESIAN_POINT('',(109.650126980194,3.,-5.7747875413172));
#1547=CARTESIAN_POINT('',(109.650126980194,0.,-5.7747875413172));
#1548=CARTESIAN_POINT('',(109.650126980194,3.,-19.7747875413172));
#1549=CARTESIAN_POINT('',(109.650126980194,3.,-19.7747875413172));
#1550=CARTESIAN_POINT('',(109.650126980194,0.,-19.7747875413172));
#1551=CARTESIAN_POINT('Origin',(95.6501269801941,0.,-19.7747875413172));
#1552=CARTESIAN_POINT('',(95.6501269801941,0.,-19.7747875413172));
#1553=CARTESIAN_POINT('',(95.6501269801941,0.,-19.7747875413172));
#1554=CARTESIAN_POINT('',(95.6501269801941,3.,-19.7747875413172));
#1555=CARTESIAN_POINT('',(95.6501269801941,3.,-19.7747875413172));
#1556=CARTESIAN_POINT('',(95.6501269801941,0.,-19.7747875413172));
#1557=CARTESIAN_POINT('Origin',(95.6501269801941,0.,-5.7747875413172));
#1558=CARTESIAN_POINT('',(95.6501269801941,0.,-5.7747875413172));
#1559=CARTESIAN_POINT('',(95.6501269801941,0.,-5.7747875413172));
#1560=CARTESIAN_POINT('',(95.6501269801941,3.,-5.7747875413172));
#1561=CARTESIAN_POINT('',(95.6501269801941,3.,-5.7747875413172));
#1562=CARTESIAN_POINT('',(95.6501269801941,0.,-5.7747875413172));
#1563=CARTESIAN_POINT('Origin',(109.650126980194,0.,-5.7747875413172));
#1564=CARTESIAN_POINT('',(109.650126980194,0.,-5.7747875413172));
#1565=CARTESIAN_POINT('',(109.650126980194,3.,-5.7747875413172));
#1566=CARTESIAN_POINT('Origin',(131.950126980194,0.,-76.7247875413172));
#1567=CARTESIAN_POINT('',(131.950126980194,0.,-76.7247875413172));
#1568=CARTESIAN_POINT('',(131.950126980194,0.,-64.1747875413172));
#1569=CARTESIAN_POINT('',(131.950126980194,0.,-76.7247875413172));
#1570=CARTESIAN_POINT('',(131.950126980194,3.,-64.1747875413172));
#1571=CARTESIAN_POINT('',(131.950126980194,0.,-64.1747875413172));
#1572=CARTESIAN_POINT('',(131.950126980194,3.,-76.7247875413172));
#1573=CARTESIAN_POINT('',(131.950126980194,3.,-76.7247875413172));
#1574=CARTESIAN_POINT('',(131.950126980194,0.,-76.7247875413172));
#1575=CARTESIAN_POINT('Origin',(93.4001269801941,0.,-76.7247875413172));
#1576=CARTESIAN_POINT('',(93.4001269801941,0.,-76.7247875413172));
#1577=CARTESIAN_POINT('',(93.4001269801941,0.,-76.7247875413172));
#1578=CARTESIAN_POINT('',(93.4001269801941,3.,-76.7247875413172));
#1579=CARTESIAN_POINT('',(93.4001269801941,3.,-76.7247875413172));
#1580=CARTESIAN_POINT('',(93.4001269801941,0.,-76.7247875413172));
#1581=CARTESIAN_POINT('Origin',(93.4001269801941,0.,-64.1747875413172));
#1582=CARTESIAN_POINT('',(93.4001269801941,0.,-64.1747875413172));
#1583=CARTESIAN_POINT('',(93.4001269801941,0.,-64.1747875413172));
#1584=CARTESIAN_POINT('',(93.4001269801941,3.,-64.1747875413172));
#1585=CARTESIAN_POINT('',(93.4001269801941,3.,-64.1747875413172));
#1586=CARTESIAN_POINT('',(93.4001269801941,0.,-64.1747875413172));
#1587=CARTESIAN_POINT('Origin',(131.950126980194,0.,-64.1747875413172));
#1588=CARTESIAN_POINT('',(131.950126980194,0.,-64.1747875413172));
#1589=CARTESIAN_POINT('',(131.950126980194,3.,-64.1747875413172));
#1590=CARTESIAN_POINT('Origin',(129.650126980194,0.,-59.5959989420176));
#1591=CARTESIAN_POINT('',(129.650126980194,0.,-59.5959989420176));
#1592=CARTESIAN_POINT('',(129.650126980194,0.,-45.5959989420176));
#1593=CARTESIAN_POINT('',(129.650126980194,0.,-59.5959989420176));
#1594=CARTESIAN_POINT('',(129.650126980194,3.,-45.5959989420176));
#1595=CARTESIAN_POINT('',(129.650126980194,0.,-45.5959989420176));
#1596=CARTESIAN_POINT('',(129.650126980194,3.,-59.5959989420176));
#1597=CARTESIAN_POINT('',(129.650126980194,3.,-59.5959989420176));
#1598=CARTESIAN_POINT('',(129.650126980194,0.,-59.5959989420176));
#1599=CARTESIAN_POINT('Origin',(115.650126980194,0.,-59.5959989420176));
#1600=CARTESIAN_POINT('',(115.650126980194,0.,-59.5959989420176));
#1601=CARTESIAN_POINT('',(115.650126980194,0.,-59.5959989420176));
#1602=CARTESIAN_POINT('',(115.650126980194,3.,-59.5959989420176));
#1603=CARTESIAN_POINT('',(115.650126980194,3.,-59.5959989420176));
#1604=CARTESIAN_POINT('',(115.650126980194,0.,-59.5959989420176));
#1605=CARTESIAN_POINT('Origin',(115.650126980194,0.,-45.5959989420176));
#1606=CARTESIAN_POINT('',(115.650126980194,0.,-45.5959989420176));
#1607=CARTESIAN_POINT('',(115.650126980194,0.,-45.5959989420176));
#1608=CARTESIAN_POINT('',(115.650126980194,3.,-45.5959989420176));
#1609=CARTESIAN_POINT('',(115.650126980194,3.,-45.5959989420176));
#1610=CARTESIAN_POINT('',(115.650126980194,0.,-45.5959989420176));
#1611=CARTESIAN_POINT('Origin',(129.650126980194,0.,-45.5959989420176));
#1612=CARTESIAN_POINT('',(129.650126980194,0.,-45.5959989420176));
#1613=CARTESIAN_POINT('',(129.650126980194,3.,-45.5959989420176));
#1614=CARTESIAN_POINT('Origin',(109.650126980194,0.,-59.7747875413172));
#1615=CARTESIAN_POINT('',(109.650126980194,0.,-59.7747875413172));
#1616=CARTESIAN_POINT('',(109.650126980194,0.,-45.7747875413172));
#1617=CARTESIAN_POINT('',(109.650126980194,0.,-59.7747875413172));
#1618=CARTESIAN_POINT('',(109.650126980194,3.,-45.7747875413172));
#1619=CARTESIAN_POINT('',(109.650126980194,0.,-45.7747875413172));
#1620=CARTESIAN_POINT('',(109.650126980194,3.,-59.7747875413172));
#1621=CARTESIAN_POINT('',(109.650126980194,3.,-59.7747875413172));
#1622=CARTESIAN_POINT('',(109.650126980194,0.,-59.7747875413172));
#1623=CARTESIAN_POINT('Origin',(95.6501269801941,0.,-59.7747875413172));
#1624=CARTESIAN_POINT('',(95.6501269801941,0.,-59.7747875413172));
#1625=CARTESIAN_POINT('',(95.6501269801941,0.,-59.7747875413172));
#1626=CARTESIAN_POINT('',(95.6501269801941,3.,-59.7747875413172));
#1627=CARTESIAN_POINT('',(95.6501269801941,3.,-59.7747875413172));
#1628=CARTESIAN_POINT('',(95.6501269801941,0.,-59.7747875413172));
#1629=CARTESIAN_POINT('Origin',(95.6501269801941,0.,-45.7747875413172));
#1630=CARTESIAN_POINT('',(95.6501269801941,0.,-45.7747875413172));
#1631=CARTESIAN_POINT('',(95.6501269801941,0.,-45.7747875413172));
#1632=CARTESIAN_POINT('',(95.6501269801941,3.,-45.7747875413172));
#1633=CARTESIAN_POINT('',(95.6501269801941,3.,-45.7747875413172));
#1634=CARTESIAN_POINT('',(95.6501269801941,0.,-45.7747875413172));
#1635=CARTESIAN_POINT('Origin',(109.650126980194,0.,-45.7747875413172));
#1636=CARTESIAN_POINT('',(109.650126980194,0.,-45.7747875413172));
#1637=CARTESIAN_POINT('',(109.650126980194,3.,-45.7747875413172));
#1638=CARTESIAN_POINT('Origin',(149.650126980194,0.,-19.5959986439943));
#1639=CARTESIAN_POINT('',(149.650126980194,0.,-19.5959986439943));
#1640=CARTESIAN_POINT('',(149.650126980194,0.,-5.59599864399434));
#1641=CARTESIAN_POINT('',(149.650126980194,0.,-19.5959986439943));
#1642=CARTESIAN_POINT('',(149.650126980194,3.,-5.59599864399434));
#1643=CARTESIAN_POINT('',(149.650126980194,0.,-5.59599864399434));
#1644=CARTESIAN_POINT('',(149.650126980194,3.,-19.5959986439943));
#1645=CARTESIAN_POINT('',(149.650126980194,3.,-19.5959986439943));
#1646=CARTESIAN_POINT('',(149.650126980194,0.,-19.5959986439943));
#1647=CARTESIAN_POINT('Origin',(135.650126980194,0.,-19.5959986439943));
#1648=CARTESIAN_POINT('',(135.650126980194,0.,-19.5959986439943));
#1649=CARTESIAN_POINT('',(135.650126980194,0.,-19.5959986439943));
#1650=CARTESIAN_POINT('',(135.650126980194,3.,-19.5959986439943));
#1651=CARTESIAN_POINT('',(135.650126980194,3.,-19.5959986439943));
#1652=CARTESIAN_POINT('',(135.650126980194,0.,-19.5959986439943));
#1653=CARTESIAN_POINT('Origin',(135.650126980194,0.,-5.59599864399434));
#1654=CARTESIAN_POINT('',(135.650126980194,0.,-5.59599864399434));
#1655=CARTESIAN_POINT('',(135.650126980194,0.,-5.59599864399434));
#1656=CARTESIAN_POINT('',(135.650126980194,3.,-5.59599864399434));
#1657=CARTESIAN_POINT('',(135.650126980194,3.,-5.59599864399434));
#1658=CARTESIAN_POINT('',(135.650126980194,0.,-5.59599864399434));
#1659=CARTESIAN_POINT('Origin',(149.650126980194,0.,-5.59599864399434));
#1660=CARTESIAN_POINT('',(149.650126980194,0.,-5.59599864399434));
#1661=CARTESIAN_POINT('',(149.650126980194,3.,-5.59599864399434));
#1662=CARTESIAN_POINT('Origin',(149.650126980194,0.,-59.5959989420176));
#1663=CARTESIAN_POINT('',(149.650126980194,0.,-59.5959989420176));
#1664=CARTESIAN_POINT('',(149.650126980194,0.,-45.5959989420176));
#1665=CARTESIAN_POINT('',(149.650126980194,0.,-59.5959989420176));
#1666=CARTESIAN_POINT('',(149.650126980194,3.,-45.5959989420176));
#1667=CARTESIAN_POINT('',(149.650126980194,0.,-45.5959989420176));
#1668=CARTESIAN_POINT('',(149.650126980194,3.,-59.5959989420176));
#1669=CARTESIAN_POINT('',(149.650126980194,3.,-59.5959989420176));
#1670=CARTESIAN_POINT('',(149.650126980194,0.,-59.5959989420176));
#1671=CARTESIAN_POINT('Origin',(135.650126980194,0.,-59.5959989420176));
#1672=CARTESIAN_POINT('',(135.650126980194,0.,-59.5959989420176));
#1673=CARTESIAN_POINT('',(135.650126980194,0.,-59.5959989420176));
#1674=CARTESIAN_POINT('',(135.650126980194,3.,-59.5959989420176));
#1675=CARTESIAN_POINT('',(135.650126980194,3.,-59.5959989420176));
#1676=CARTESIAN_POINT('',(135.650126980194,0.,-59.5959989420176));
#1677=CARTESIAN_POINT('Origin',(135.650126980194,0.,-45.5959989420176));
#1678=CARTESIAN_POINT('',(135.650126980194,0.,-45.5959989420176));
#1679=CARTESIAN_POINT('',(135.650126980194,0.,-45.5959989420176));
#1680=CARTESIAN_POINT('',(135.650126980194,3.,-45.5959989420176));
#1681=CARTESIAN_POINT('',(135.650126980194,3.,-45.5959989420176));
#1682=CARTESIAN_POINT('',(135.650126980194,0.,-45.5959989420176));
#1683=CARTESIAN_POINT('Origin',(149.650126980194,0.,-45.5959989420176));
#1684=CARTESIAN_POINT('',(149.650126980194,0.,-45.5959989420176));
#1685=CARTESIAN_POINT('',(149.650126980194,3.,-45.5959989420176));
#1686=CARTESIAN_POINT('Origin',(129.650126980194,0.,-19.5959989420176));
#1687=CARTESIAN_POINT('',(129.650126980194,0.,-19.5959989420176));
#1688=CARTESIAN_POINT('',(129.650126980194,0.,-5.59599894201757));
#1689=CARTESIAN_POINT('',(129.650126980194,0.,-19.5959989420176));
#1690=CARTESIAN_POINT('',(129.650126980194,3.,-5.59599894201757));
#1691=CARTESIAN_POINT('',(129.650126980194,0.,-5.59599894201757));
#1692=CARTESIAN_POINT('',(129.650126980194,3.,-19.5959989420176));
#1693=CARTESIAN_POINT('',(129.650126980194,3.,-19.5959989420176));
#1694=CARTESIAN_POINT('',(129.650126980194,0.,-19.5959989420176));
#1695=CARTESIAN_POINT('Origin',(115.650126980194,0.,-19.5959989420176));
#1696=CARTESIAN_POINT('',(115.650126980194,0.,-19.5959989420176));
#1697=CARTESIAN_POINT('',(115.650126980194,0.,-19.5959989420176));
#1698=CARTESIAN_POINT('',(115.650126980194,3.,-19.5959989420176));
#1699=CARTESIAN_POINT('',(115.650126980194,3.,-19.5959989420176));
#1700=CARTESIAN_POINT('',(115.650126980194,0.,-19.5959989420176));
#1701=CARTESIAN_POINT('Origin',(115.650126980194,0.,-5.59599894201757));
#1702=CARTESIAN_POINT('',(115.650126980194,0.,-5.59599894201757));
#1703=CARTESIAN_POINT('',(115.650126980194,0.,-5.59599894201757));
#1704=CARTESIAN_POINT('',(115.650126980194,3.,-5.59599894201757));
#1705=CARTESIAN_POINT('',(115.650126980194,3.,-5.59599894201757));
#1706=CARTESIAN_POINT('',(115.650126980194,0.,-5.59599894201757));
#1707=CARTESIAN_POINT('Origin',(129.650126980194,0.,-5.59599894201757));
#1708=CARTESIAN_POINT('',(129.650126980194,0.,-5.59599894201757));
#1709=CARTESIAN_POINT('',(129.650126980194,3.,-5.59599894201757));
#1710=CARTESIAN_POINT('Origin',(129.650126980194,0.,-39.5959989420176));
#1711=CARTESIAN_POINT('',(129.650126980194,0.,-39.5959989420176));
#1712=CARTESIAN_POINT('',(129.650126980194,0.,-25.5959989420176));
#1713=CARTESIAN_POINT('',(129.650126980194,0.,-39.5959989420176));
#1714=CARTESIAN_POINT('',(129.650126980194,3.,-25.5959989420176));
#1715=CARTESIAN_POINT('',(129.650126980194,0.,-25.5959989420176));
#1716=CARTESIAN_POINT('',(129.650126980194,3.,-39.5959989420176));
#1717=CARTESIAN_POINT('',(129.650126980194,3.,-39.5959989420176));
#1718=CARTESIAN_POINT('',(129.650126980194,0.,-39.5959989420176));
#1719=CARTESIAN_POINT('Origin',(115.650126980194,0.,-39.5959989420176));
#1720=CARTESIAN_POINT('',(115.650126980194,0.,-39.5959989420176));
#1721=CARTESIAN_POINT('',(115.650126980194,0.,-39.5959989420176));
#1722=CARTESIAN_POINT('',(115.650126980194,3.,-39.5959989420176));
#1723=CARTESIAN_POINT('',(115.650126980194,3.,-39.5959989420176));
#1724=CARTESIAN_POINT('',(115.650126980194,0.,-39.5959989420176));
#1725=CARTESIAN_POINT('Origin',(115.650126980194,0.,-25.5959989420176));
#1726=CARTESIAN_POINT('',(115.650126980194,0.,-25.5959989420176));
#1727=CARTESIAN_POINT('',(115.650126980194,0.,-25.5959989420176));
#1728=CARTESIAN_POINT('',(115.650126980194,3.,-25.5959989420176));
#1729=CARTESIAN_POINT('',(115.650126980194,3.,-25.5959989420176));
#1730=CARTESIAN_POINT('',(115.650126980194,0.,-25.5959989420176));
#1731=CARTESIAN_POINT('Origin',(129.650126980194,0.,-25.5959989420176));
#1732=CARTESIAN_POINT('',(129.650126980194,0.,-25.5959989420176));
#1733=CARTESIAN_POINT('',(129.650126980194,3.,-25.5959989420176));
#1734=CARTESIAN_POINT('Origin',(152.000126980194,0.,-77.8497875413172));
#1735=CARTESIAN_POINT('',(152.000126980194,0.,-77.8497875413172));
#1736=CARTESIAN_POINT('',(152.000126980194,0.,-63.5997875413172));
#1737=CARTESIAN_POINT('',(152.000126980194,0.,-77.8497875413172));
#1738=CARTESIAN_POINT('',(152.000126980194,3.,-63.5997875413172));
#1739=CARTESIAN_POINT('',(152.000126980194,0.,-63.5997875413172));
#1740=CARTESIAN_POINT('',(152.000126980194,3.,-77.8497875413172));
#1741=CARTESIAN_POINT('',(152.000126980194,3.,-77.8497875413172));
#1742=CARTESIAN_POINT('',(152.000126980194,0.,-77.8497875413172));
#1743=CARTESIAN_POINT('Origin',(134.450126980194,0.,-77.8497875413172));
#1744=CARTESIAN_POINT('',(134.450126980194,0.,-77.8497875413172));
#1745=CARTESIAN_POINT('',(134.450126980194,0.,-77.8497875413172));
#1746=CARTESIAN_POINT('',(134.450126980194,3.,-77.8497875413172));
#1747=CARTESIAN_POINT('',(134.450126980194,3.,-77.8497875413172));
#1748=CARTESIAN_POINT('',(134.450126980194,0.,-77.8497875413172));
#1749=CARTESIAN_POINT('Origin',(134.450126980194,0.,-63.5997875413172));
#1750=CARTESIAN_POINT('',(134.450126980194,0.,-63.5997875413172));
#1751=CARTESIAN_POINT('',(134.450126980194,0.,-63.5997875413172));
#1752=CARTESIAN_POINT('',(134.450126980194,3.,-63.5997875413172));
#1753=CARTESIAN_POINT('',(134.450126980194,3.,-63.5997875413172));
#1754=CARTESIAN_POINT('',(134.450126980194,0.,-63.5997875413172));
#1755=CARTESIAN_POINT('Origin',(152.000126980194,0.,-63.5997875413172));
#1756=CARTESIAN_POINT('',(152.000126980194,0.,-63.5997875413172));
#1757=CARTESIAN_POINT('',(152.000126980194,3.,-63.5997875413172));
#1758=CARTESIAN_POINT('Origin',(149.650126980194,0.,-39.5959986439943));
#1759=CARTESIAN_POINT('',(149.650126980194,0.,-39.5959986439943));
#1760=CARTESIAN_POINT('',(149.650126980194,0.,-25.5959986439943));
#1761=CARTESIAN_POINT('',(149.650126980194,0.,-39.5959986439943));
#1762=CARTESIAN_POINT('',(149.650126980194,3.,-25.5959986439943));
#1763=CARTESIAN_POINT('',(149.650126980194,0.,-25.5959986439943));
#1764=CARTESIAN_POINT('',(149.650126980194,3.,-39.5959986439943));
#1765=CARTESIAN_POINT('',(149.650126980194,3.,-39.5959986439943));
#1766=CARTESIAN_POINT('',(149.650126980194,0.,-39.5959986439943));
#1767=CARTESIAN_POINT('Origin',(135.650126980194,0.,-39.5959986439943));
#1768=CARTESIAN_POINT('',(135.650126980194,0.,-39.5959986439943));
#1769=CARTESIAN_POINT('',(135.650126980194,0.,-39.5959986439943));
#1770=CARTESIAN_POINT('',(135.650126980194,3.,-39.5959986439943));
#1771=CARTESIAN_POINT('',(135.650126980194,3.,-39.5959986439943));
#1772=CARTESIAN_POINT('',(135.650126980194,0.,-39.5959986439943));
#1773=CARTESIAN_POINT('Origin',(135.650126980194,0.,-25.5959986439943));
#1774=CARTESIAN_POINT('',(135.650126980194,0.,-25.5959986439943));
#1775=CARTESIAN_POINT('',(135.650126980194,0.,-25.5959986439943));
#1776=CARTESIAN_POINT('',(135.650126980194,3.,-25.5959986439943));
#1777=CARTESIAN_POINT('',(135.650126980194,3.,-25.5959986439943));
#1778=CARTESIAN_POINT('',(135.650126980194,0.,-25.5959986439943));
#1779=CARTESIAN_POINT('Origin',(149.650126980194,0.,-25.5959986439943));
#1780=CARTESIAN_POINT('',(149.650126980194,0.,-25.5959986439943));
#1781=CARTESIAN_POINT('',(149.650126980194,3.,-25.5959986439943));
#1782=CARTESIAN_POINT('Origin',(109.650126980194,0.,-39.7747875413172));
#1783=CARTESIAN_POINT('',(109.650126980194,0.,-39.7747875413172));
#1784=CARTESIAN_POINT('',(109.650126980194,0.,-25.7747875413172));
#1785=CARTESIAN_POINT('',(109.650126980194,0.,-39.7747875413172));
#1786=CARTESIAN_POINT('',(109.650126980194,3.,-25.7747875413172));
#1787=CARTESIAN_POINT('',(109.650126980194,0.,-25.7747875413172));
#1788=CARTESIAN_POINT('',(109.650126980194,3.,-39.7747875413172));
#1789=CARTESIAN_POINT('',(109.650126980194,3.,-39.7747875413172));
#1790=CARTESIAN_POINT('',(109.650126980194,0.,-39.7747875413172));
#1791=CARTESIAN_POINT('Origin',(95.6501269801941,0.,-39.7747875413172));
#1792=CARTESIAN_POINT('',(95.6501269801941,0.,-39.7747875413172));
#1793=CARTESIAN_POINT('',(95.6501269801941,0.,-39.7747875413172));
#1794=CARTESIAN_POINT('',(95.6501269801941,3.,-39.7747875413172));
#1795=CARTESIAN_POINT('',(95.6501269801941,3.,-39.7747875413172));
#1796=CARTESIAN_POINT('',(95.6501269801941,0.,-39.7747875413172));
#1797=CARTESIAN_POINT('Origin',(95.6501269801941,0.,-25.7747875413172));
#1798=CARTESIAN_POINT('',(95.6501269801941,0.,-25.7747875413172));
#1799=CARTESIAN_POINT('',(95.6501269801941,0.,-25.7747875413172));
#1800=CARTESIAN_POINT('',(95.6501269801941,3.,-25.7747875413172));
#1801=CARTESIAN_POINT('',(95.6501269801941,3.,-25.7747875413172));
#1802=CARTESIAN_POINT('',(95.6501269801941,0.,-25.7747875413172));
#1803=CARTESIAN_POINT('Origin',(109.650126980194,0.,-25.7747875413172));
#1804=CARTESIAN_POINT('',(109.650126980194,0.,-25.7747875413172));
#1805=CARTESIAN_POINT('',(109.650126980194,3.,-25.7747875413172));
#1806=CARTESIAN_POINT('Origin',(80.0001269801941,0.,-109.399787541317));
#1807=CARTESIAN_POINT('',(80.0001269801941,0.,10.0002124586828));
#1808=CARTESIAN_POINT('',(80.0001269801941,0.,-109.399787541317));
#1809=CARTESIAN_POINT('',(80.0001269801941,0.,10.0002124586828));
#1810=CARTESIAN_POINT('',(80.0001269801941,3.,10.0002124586828));
#1811=CARTESIAN_POINT('',(80.0001269801941,0.,10.0002124586828));
#1812=CARTESIAN_POINT('',(80.0001269801941,3.,-109.399787541317));
#1813=CARTESIAN_POINT('',(80.0001269801941,3.,10.0002124586828));
#1814=CARTESIAN_POINT('',(80.0001269801941,0.,-109.399787541317));
#1815=CARTESIAN_POINT('Origin',(165.400126980194,0.,-109.399787541317));
#1816=CARTESIAN_POINT('',(165.400126980194,0.,-109.399787541317));
#1817=CARTESIAN_POINT('',(80.0001269801941,0.,-109.399787541317));
#1818=CARTESIAN_POINT('',(165.400126980194,3.,-109.399787541317));
#1819=CARTESIAN_POINT('',(80.0001269801941,3.,-109.399787541317));
#1820=CARTESIAN_POINT('',(165.400126980194,0.,-109.399787541317));
#1821=CARTESIAN_POINT('Origin',(165.400126980194,0.,10.0002124586828));
#1822=CARTESIAN_POINT('',(165.400126980194,0.,10.0002124586828));
#1823=CARTESIAN_POINT('',(165.400126980194,0.,-109.399787541317));
#1824=CARTESIAN_POINT('',(165.400126980194,3.,10.0002124586828));
#1825=CARTESIAN_POINT('',(165.400126980194,3.,-109.399787541317));
#1826=CARTESIAN_POINT('',(165.400126980194,0.,10.0002124586828));
#1827=CARTESIAN_POINT('Origin',(80.0001269801941,0.,10.0002124586828));
#1828=CARTESIAN_POINT('',(165.400126980194,0.,10.0002124586828));
#1829=CARTESIAN_POINT('',(165.400126980194,3.,10.0002124586828));
#1830=CARTESIAN_POINT('Origin',(122.700126980194,3.,-49.6997875413172));
#1831=CARTESIAN_POINT('Origin',(122.700126980194,0.,-49.6997875413172));
#1832=UNCERTAINTY_MEASURE_WITH_UNIT(LENGTH_MEASURE(0.01),#1836,
'DISTANCE_ACCURACY_VALUE',
'Maximum model space distance between geometric entities at asserted c
onnectivities');
#1833=UNCERTAINTY_MEASURE_WITH_UNIT(LENGTH_MEASURE(0.01),#1836,
'DISTANCE_ACCURACY_VALUE',
'Maximum model space distance between geometric entities at asserted c
onnectivities');
#1834=(
GEOMETRIC_REPRESENTATION_CONTEXT(3)
GLOBAL_UNCERTAINTY_ASSIGNED_CONTEXT((#1832))
GLOBAL_UNIT_ASSIGNED_CONTEXT((#1836,#1838,#1839))
REPRESENTATION_CONTEXT('','3D')
);
#1835=(
GEOMETRIC_REPRESENTATION_CONTEXT(3)
GLOBAL_UNCERTAINTY_ASSIGNED_CONTEXT((#1833))
GLOBAL_UNIT_ASSIGNED_CONTEXT((#1836,#1838,#1839))
REPRESENTATION_CONTEXT('','3D')
);
#1836=(
LENGTH_UNIT()
NAMED_UNIT(*)
SI_UNIT(.MILLI.,.METRE.)
);
#1837=(
LENGTH_UNIT()
NAMED_UNIT(*)
SI_UNIT($,.METRE.)
);
#1838=(
NAMED_UNIT(*)
PLANE_ANGLE_UNIT()
SI_UNIT($,.RADIAN.)
);
#1839=(
NAMED_UNIT(*)
SI_UNIT($,.STERADIAN.)
SOLID_ANGLE_UNIT()
);
#1840=SHAPE_DEFINITION_REPRESENTATION(#1841,#1842);
#1841=PRODUCT_DEFINITION_SHAPE('',$,#1844);
#1842=SHAPE_REPRESENTATION('',(#1180),#1834);
#1843=PRODUCT_DEFINITION_CONTEXT('part definition',#1848,'design');
#1844=PRODUCT_DEFINITION('(Unsaved)','(Unsaved)',#1845,#1843);
#1845=PRODUCT_DEFINITION_FORMATION('',$,#1850);
#1846=PRODUCT_RELATED_PRODUCT_CATEGORY('(Unsaved)','(Unsaved)',(#1850));
#1847=APPLICATION_PROTOCOL_DEFINITION('international standard',
'automotive_design',2009,#1848);
#1848=APPLICATION_CONTEXT(
'Core Data for Automotive Mechanical Design Process');
#1849=PRODUCT_CONTEXT('part definition',#1848,'mechanical');
#1850=PRODUCT('(Unsaved)','(Unsaved)',$,(#1849));
#1851=PRESENTATION_STYLE_ASSIGNMENT((#1852));
#1852=SURFACE_STYLE_USAGE(.BOTH.,#1853);
#1853=SURFACE_SIDE_STYLE('',(#1854));
#1854=SURFACE_STYLE_FILL_AREA(#1855);
#1855=FILL_AREA_STYLE('Steel - Satin',(#1856));
#1856=FILL_AREA_STYLE_COLOUR('Steel - Satin',#1857);
#1857=COLOUR_RGB('Steel - Satin',0.627450980392157,0.627450980392157,0.627450980392157);
ENDSEC;
END-ISO-10303-21;
